<?xml version="1.0" encoding="UTF-8" standalone="no"?>
<!DOCTYPE svg PUBLIC "-//W3C//DTD SVG 1.1//EN"
 "http://www.w3.org/Graphics/SVG/1.1/DTD/svg11.dtd">
<!-- Generated by graphviz version 7.1.0 (20230121.1956)
 -->
<!-- Pages: 1 -->
<svg width="746pt" height="114pt"
 viewBox="0.00 0.00 745.50 114.33" xmlns="http://www.w3.org/2000/svg" xmlns:xlink="http://www.w3.org/1999/xlink">
<g id="graph0" class="graph" transform="scale(1 1) rotate(0) translate(4 110.33)">
<polygon fill="white" stroke="none" points="-4,4 -4,-110.33 741.5,-110.33 741.5,4 -4,4"/>
<!-- is food up -->
<g id="node1" class="node">
<title>is food up</title>
<polygon fill="lightgray" stroke="black" points="53,-106.33 0,-106.33 0,-88.33 53,-88.33 53,-106.33"/>
<text text-anchor="middle" x="26.5" y="-95.13" font-family="Times New Roman,serif" font-size="9.00">is food up</text>
</g>
<!-- right -->
<g id="node15" class="node">
<title>right</title>
<ellipse fill="lightblue" stroke="black" cx="253.5" cy="-26.16" rx="23.17" ry="23.17"/>
<text text-anchor="middle" x="253.5" y="-23.96" font-family="Times New Roman,serif" font-size="9.00">right</text>
</g>
<!-- is food up&#45;&gt;right -->
<g id="edge13" class="edge">
<title>is food up&#45;&gt;right</title>
<path fill="none" stroke="red" stroke-width="0.26" d="M53.38,-90.15C99.99,-79.38 192.23,-57.79 206.5,-52.33 212.63,-49.98 218.96,-47 224.92,-43.93"/>
<polygon fill="red" stroke="red" stroke-width="0.26" points="226.42,-47.1 233.56,-39.27 223.1,-40.94 226.42,-47.1"/>
</g>
<!-- life pos y -->
<g id="node2" class="node">
<title>life pos y</title>
<polygon fill="lightgray" stroke="black" points="205,-106.33 154,-106.33 154,-88.33 205,-88.33 205,-106.33"/>
<text text-anchor="middle" x="179.5" y="-95.13" font-family="Times New Roman,serif" font-size="9.00">life pos y</text>
</g>
<!-- stop -->
<g id="node11" class="node">
<title>stop</title>
<ellipse fill="lightblue" stroke="black" cx="405.5" cy="-26.16" rx="23.17" ry="23.17"/>
<text text-anchor="middle" x="405.5" y="-23.96" font-family="Times New Roman,serif" font-size="9.00">stop</text>
</g>
<!-- life pos y&#45;&gt;stop -->
<g id="edge16" class="edge">
<title>life pos y&#45;&gt;stop</title>
<path fill="none" stroke="red" stroke-width="0.14" d="M205.35,-90.36C254.26,-79.05 356.12,-55.33 363.5,-52.33 368.3,-50.37 373.19,-47.92 377.86,-45.32"/>
<polygon fill="red" stroke="red" stroke-width="0.14" points="379.47,-48.44 386.3,-40.34 375.91,-42.41 379.47,-48.44"/>
</g>
<!-- up -->
<g id="node12" class="node">
<title>up</title>
<ellipse fill="lightblue" stroke="black" cx="179.5" cy="-26.16" rx="18.27" ry="18.27"/>
<text text-anchor="middle" x="179.5" y="-23.96" font-family="Times New Roman,serif" font-size="9.00">up</text>
</g>
<!-- life pos y&#45;&gt;up -->
<g id="edge5" class="edge">
<title>life pos y&#45;&gt;up</title>
<path fill="none" stroke="green" stroke-width="0.21" d="M179.5,-87.85C179.5,-79.59 179.5,-66.58 179.5,-54.73"/>
<polygon fill="green" stroke="green" stroke-width="0.21" points="183,-55.07 179.5,-45.07 176,-55.07 183,-55.07"/>
</g>
<!-- down -->
<g id="node13" class="node">
<title>down</title>
<ellipse fill="lightblue" stroke="black" cx="328.5" cy="-26.16" rx="26.33" ry="26.33"/>
<text text-anchor="middle" x="328.5" y="-23.96" font-family="Times New Roman,serif" font-size="9.00">down</text>
</g>
<!-- life pos y&#45;&gt;down -->
<g id="edge1" class="edge">
<title>life pos y&#45;&gt;down</title>
<path fill="none" stroke="red" stroke-width="0.24" d="M202.23,-87.92C223.97,-79.65 257.49,-66.25 285.5,-52.33 289.53,-50.32 293.7,-48.09 297.78,-45.81"/>
<polygon fill="red" stroke="red" stroke-width="0.24" points="299.26,-49 306.19,-40.99 295.77,-42.93 299.26,-49"/>
</g>
<!-- life pos y&#45;&gt;right -->
<g id="edge11" class="edge">
<title>life pos y&#45;&gt;right</title>
<path fill="none" stroke="green" stroke-width="0.18" d="M188.57,-87.85C198.67,-78.41 215.39,-62.78 229.34,-49.74"/>
<polygon fill="green" stroke="green" stroke-width="0.18" points="231.63,-52.39 236.55,-43.01 226.85,-47.28 231.63,-52.39"/>
</g>
<!-- near bottom -->
<g id="node3" class="node">
<title>near bottom</title>
<polygon fill="lightgray" stroke="black" points="521.5,-106.33 461.5,-106.33 461.5,-88.33 521.5,-88.33 521.5,-106.33"/>
<text text-anchor="middle" x="491.5" y="-95.13" font-family="Times New Roman,serif" font-size="9.00">near bottom</text>
</g>
<!-- near bottom&#45;&gt;stop -->
<g id="edge2" class="edge">
<title>near bottom&#45;&gt;stop</title>
<path fill="none" stroke="green" stroke-width="0.48" d="M480.95,-87.85C468.73,-78.02 448.15,-61.46 431.56,-48.12"/>
<polygon fill="green" stroke="green" stroke-width="0.48" points="433.87,-45.49 423.89,-41.95 429.48,-50.94 433.87,-45.49"/>
</g>
<!-- left -->
<g id="node14" class="node">
<title>left</title>
<ellipse fill="lightblue" stroke="black" cx="491.5" cy="-26.16" rx="20.51" ry="20.51"/>
<text text-anchor="middle" x="491.5" y="-23.96" font-family="Times New Roman,serif" font-size="9.00">left</text>
</g>
<!-- near bottom&#45;&gt;left -->
<g id="edge25" class="edge">
<title>near bottom&#45;&gt;left</title>
<path fill="none" stroke="green" stroke-width="0.38" d="M491.5,-87.85C491.5,-80.19 491.5,-68.46 491.5,-57.34"/>
<polygon fill="green" stroke="green" stroke-width="0.38" points="495,-57.6 491.5,-47.6 488,-57.6 495,-57.6"/>
</g>
<!-- near bottom&#45;&gt;right -->
<g id="edge23" class="edge">
<title>near bottom&#45;&gt;right</title>
<path fill="none" stroke="red" stroke-width="0.29" d="M461.19,-89.87C407.67,-78.44 301.28,-55.52 293.5,-52.33 289.2,-50.56 284.85,-48.34 280.67,-45.96"/>
<polygon fill="red" stroke="red" stroke-width="0.29" points="282.64,-43.06 272.29,-40.83 278.99,-49.03 282.64,-43.06"/>
</g>
<!-- is food down -->
<g id="node4" class="node">
<title>is food down</title>
<polygon fill="lightgray" stroke="black" points="135.5,-106.33 71.5,-106.33 71.5,-88.33 135.5,-88.33 135.5,-106.33"/>
<text text-anchor="middle" x="103.5" y="-95.13" font-family="Times New Roman,serif" font-size="9.00">is food down</text>
</g>
<!-- is food down&#45;&gt;up -->
<g id="edge9" class="edge">
<title>is food down&#45;&gt;up</title>
<path fill="none" stroke="green" stroke-width="0.13" d="M112.82,-87.85C124.23,-77.46 143.88,-59.58 158.91,-45.9"/>
<polygon fill="green" stroke="green" stroke-width="0.13" points="161.09,-48.65 166.13,-39.33 156.37,-43.48 161.09,-48.65"/>
</g>
<!-- is food down&#45;&gt;down -->
<g id="edge24" class="edge">
<title>is food down&#45;&gt;down</title>
<path fill="none" stroke="red" stroke-width="0.17" d="M135.67,-89.73C180.29,-80.38 258.52,-63.21 285.5,-52.33 289.67,-50.64 293.93,-48.6 298.06,-46.42"/>
<polygon fill="red" stroke="red" stroke-width="0.17" points="299.58,-49.58 306.59,-41.64 296.15,-43.48 299.58,-49.58"/>
</g>
<!-- is food down&#45;&gt;right -->
<g id="edge21" class="edge">
<title>is food down&#45;&gt;right</title>
<path fill="none" stroke="red" stroke-width="0.36" d="M124.65,-87.93C145.65,-79.44 178.63,-65.71 206.5,-52.33 212.41,-49.49 218.66,-46.29 224.59,-43.15"/>
<polygon fill="red" stroke="red" stroke-width="0.36" points="225.93,-46.41 233.09,-38.59 222.62,-40.24 225.93,-46.41"/>
</g>
<!-- near top -->
<g id="node5" class="node">
<title>near top</title>
<polygon fill="lightgray" stroke="black" points="669,-106.33 622,-106.33 622,-88.33 669,-88.33 669,-106.33"/>
<text text-anchor="middle" x="645.5" y="-95.13" font-family="Times New Roman,serif" font-size="9.00">near top</text>
</g>
<!-- near top&#45;&gt;left -->
<g id="edge6" class="edge">
<title>near top&#45;&gt;left</title>
<path fill="none" stroke="green" stroke-width="0.38" d="M626.62,-87.85C599.8,-75.8 550.5,-53.66 519.45,-39.71"/>
<polygon fill="green" stroke="green" stroke-width="0.38" points="521.14,-36.64 510.58,-35.73 518.27,-43.02 521.14,-36.64"/>
</g>
<!-- is food right -->
<g id="node6" class="node">
<title>is food right</title>
<polygon fill="lightgray" stroke="black" points="283.5,-106.33 223.5,-106.33 223.5,-88.33 283.5,-88.33 283.5,-106.33"/>
<text text-anchor="middle" x="253.5" y="-95.13" font-family="Times New Roman,serif" font-size="9.00">is food right</text>
</g>
<!-- is food right&#45;&gt;up -->
<g id="edge22" class="edge">
<title>is food right&#45;&gt;up</title>
<path fill="none" stroke="green" stroke-width="0.32" d="M244.43,-87.85C233.48,-77.62 214.75,-60.11 200.21,-46.52"/>
<polygon fill="green" stroke="green" stroke-width="0.32" points="202.7,-44.05 193,-39.78 197.92,-49.17 202.7,-44.05"/>
</g>
<!-- is food right&#45;&gt;down -->
<g id="edge12" class="edge">
<title>is food right&#45;&gt;down</title>
<path fill="none" stroke="red" stroke-width="0.28" d="M262.7,-87.85C272.47,-78.84 288.36,-64.18 302.08,-51.52"/>
<polygon fill="red" stroke="red" stroke-width="0.28" points="304.14,-54.39 309.12,-45.04 299.39,-49.24 304.14,-54.39"/>
</g>
<!-- is food right&#45;&gt;left -->
<g id="edge18" class="edge">
<title>is food right&#45;&gt;left</title>
<path fill="none" stroke="red" stroke-width="0.11" d="M283.66,-89.89C328.18,-80.25 409.28,-62.16 437.5,-52.33 446.44,-49.21 455.89,-45.1 464.35,-41.12"/>
<polygon fill="red" stroke="red" stroke-width="0.11" points="465.78,-44.31 473.24,-36.79 462.72,-38.02 465.78,-44.31"/>
</g>
<!-- is food right&#45;&gt;right -->
<g id="edge10" class="edge">
<title>is food right&#45;&gt;right</title>
<path fill="none" stroke="red" stroke-width="0.35" d="M253.5,-87.85C253.5,-80.83 253.5,-70.39 253.5,-60.14"/>
<polygon fill="red" stroke="red" stroke-width="0.35" points="257,-60.21 253.5,-50.21 250,-60.21 257,-60.21"/>
</g>
<!-- near edge right -->
<g id="node7" class="node">
<title>near edge right</title>
<polygon fill="lightgray" stroke="black" points="369.5,-106.33 301.5,-106.33 301.5,-88.33 369.5,-88.33 369.5,-106.33"/>
<text text-anchor="middle" x="335.5" y="-95.13" font-family="Times New Roman,serif" font-size="9.00">near edge right</text>
</g>
<!-- near edge right&#45;&gt;stop -->
<g id="edge15" class="edge">
<title>near edge right&#45;&gt;stop</title>
<path fill="none" stroke="red" stroke-width="0.13" d="M344.08,-87.85C353.57,-78.47 369.25,-62.98 382.39,-50"/>
<polygon fill="red" stroke="red" stroke-width="0.13" points="384.58,-52.75 389.24,-43.23 379.66,-47.77 384.58,-52.75"/>
</g>
<!-- near edge right&#45;&gt;down -->
<g id="edge20" class="edge">
<title>near edge right&#45;&gt;down</title>
<path fill="none" stroke="green" stroke-width="0.29" d="M334.64,-87.85C334,-81.5 333.07,-72.36 332.14,-63.09"/>
<polygon fill="green" stroke="green" stroke-width="0.29" points="335.62,-62.75 331.13,-53.15 328.65,-63.45 335.62,-62.75"/>
</g>
<!-- near edge right&#45;&gt;right -->
<g id="edge14" class="edge">
<title>near edge right&#45;&gt;right</title>
<path fill="none" stroke="red" stroke-width="0.24" d="M325.45,-87.85C313.86,-78.08 294.41,-61.67 278.65,-48.37"/>
<polygon fill="red" stroke="red" stroke-width="0.24" points="280.98,-45.76 271.08,-41.99 276.47,-51.11 280.98,-45.76"/>
</g>
<!-- life pos x -->
<g id="node8" class="node">
<title>life pos x</title>
<polygon fill="lightgray" stroke="black" points="737.5,-106.33 687.5,-106.33 687.5,-88.33 737.5,-88.33 737.5,-106.33"/>
<text text-anchor="middle" x="712.5" y="-95.13" font-family="Times New Roman,serif" font-size="9.00">life pos x</text>
</g>
<!-- near edge left -->
<g id="node9" class="node">
<title>near edge left</title>
<polygon fill="lightgray" stroke="black" points="603.5,-106.33 539.5,-106.33 539.5,-88.33 603.5,-88.33 603.5,-106.33"/>
<text text-anchor="middle" x="571.5" y="-95.13" font-family="Times New Roman,serif" font-size="9.00">near edge left</text>
</g>
<!-- near edge left&#45;&gt;down -->
<g id="edge4" class="edge">
<title>near edge left&#45;&gt;down</title>
<path fill="none" stroke="green" stroke-width="0.23" d="M539.04,-89.65C486.92,-78.85 388.84,-58.18 373.5,-52.33 368.71,-50.5 363.81,-48.23 359.09,-45.81"/>
<polygon fill="green" stroke="green" stroke-width="0.23" points="361.07,-42.9 350.61,-41.2 357.73,-49.05 361.07,-42.9"/>
</g>
<!-- near edge left&#45;&gt;left -->
<g id="edge8" class="edge">
<title>near edge left&#45;&gt;left</title>
<path fill="none" stroke="green" stroke-width="0.25" d="M561.69,-87.85C550.04,-77.77 530.21,-60.63 514.59,-47.13"/>
<polygon fill="green" stroke="green" stroke-width="0.25" points="517.02,-44.6 507.17,-40.71 512.44,-49.89 517.02,-44.6"/>
</g>
<!-- is food left -->
<g id="node10" class="node">
<title>is food left</title>
<polygon fill="lightgray" stroke="black" points="443.5,-106.33 387.5,-106.33 387.5,-88.33 443.5,-88.33 443.5,-106.33"/>
<text text-anchor="middle" x="415.5" y="-95.13" font-family="Times New Roman,serif" font-size="9.00">is food left</text>
</g>
<!-- is food left&#45;&gt;stop -->
<g id="edge7" class="edge">
<title>is food left&#45;&gt;stop</title>
<path fill="none" stroke="red" stroke-width="0.14" d="M414.27,-87.85C413.23,-80.63 411.66,-69.79 410.14,-59.25"/>
<polygon fill="red" stroke="red" stroke-width="0.14" points="413.64,-58.98 408.74,-49.58 406.71,-59.98 413.64,-58.98"/>
</g>
<!-- is food left&#45;&gt;down -->
<g id="edge3" class="edge">
<title>is food left&#45;&gt;down</title>
<path fill="none" stroke="red" stroke-width="0.46" d="M404.83,-87.85C393.01,-78.45 373.45,-62.9 357.09,-49.89"/>
<polygon fill="red" stroke="red" stroke-width="0.46" points="359.43,-47.28 349.42,-43.8 355.07,-52.76 359.43,-47.28"/>
</g>
<!-- is food left&#45;&gt;left -->
<g id="edge19" class="edge">
<title>is food left&#45;&gt;left</title>
<path fill="none" stroke="green" stroke-width="0.24" d="M424.82,-87.85C435.82,-77.83 454.5,-60.84 469.29,-47.38"/>
<polygon fill="green" stroke="green" stroke-width="0.24" points="471.3,-50.28 476.34,-40.96 466.58,-45.11 471.3,-50.28"/>
</g>
<!-- is food left&#45;&gt;right -->
<g id="edge17" class="edge">
<title>is food left&#45;&gt;right</title>
<path fill="none" stroke="green" stroke-width="0.14" d="M387.18,-88.02C361.99,-80.2 324.46,-67.43 293.5,-52.33 289.21,-50.23 284.8,-47.79 280.55,-45.27"/>
<polygon fill="green" stroke="green" stroke-width="0.14" points="282.67,-42.46 272.32,-40.17 278.98,-48.41 282.67,-42.46"/>
</g>
</g>
</svg>
