<?xml version="1.0" encoding="UTF-8" standalone="no"?>
<!DOCTYPE svg PUBLIC "-//W3C//DTD SVG 1.1//EN"
 "http://www.w3.org/Graphics/SVG/1.1/DTD/svg11.dtd">
<!-- Generated by graphviz version 7.1.0 (20230121.1956)
 -->
<!-- Pages: 1 -->
<svg width="425pt" height="300pt"
 viewBox="0.00 0.00 424.88 299.85" xmlns="http://www.w3.org/2000/svg" xmlns:xlink="http://www.w3.org/1999/xlink">
<g id="graph0" class="graph" transform="scale(1 1) rotate(0) translate(4 295.85)">
<polygon fill="white" stroke="none" points="-4,4 -4,-295.85 420.88,-295.85 420.88,4 -4,4"/>
<!-- life pos y -->
<g id="node1" class="node">
<title>life pos y</title>
<polygon fill="lightgray" stroke="black" points="104,-279.51 53,-279.51 53,-257.51 104,-257.51 104,-279.51"/>
<text text-anchor="middle" x="78.5" y="-266.31" font-family="Times New Roman,serif" font-size="9.00">life pos y</text>
</g>
<!-- down -->
<g id="node8" class="node">
<title>down</title>
<ellipse fill="lightblue" stroke="black" cx="78.5" cy="-26.16" rx="26.33" ry="26.33"/>
<text text-anchor="middle" x="78.5" y="-23.96" font-family="Times New Roman,serif" font-size="9.00">down</text>
</g>
<!-- life pos y&#45;&gt;down -->
<g id="edge2" class="edge">
<title>life pos y&#45;&gt;down</title>
<path fill="none" stroke="green" stroke-width="0.51" stroke-dasharray="1,5" d="M78.5,-257.19C78.5,-224.08 78.5,-119.51 78.5,-63.47"/>
<polygon fill="green" stroke="green" stroke-width="0.51" points="82,-63.72 78.5,-53.72 75,-63.72 82,-63.72"/>
</g>
<!-- left -->
<g id="node9" class="node">
<title>left</title>
<ellipse fill="lightblue" stroke="black" cx="23.5" cy="-187.97" rx="20.51" ry="20.51"/>
<text text-anchor="middle" x="23.5" y="-185.77" font-family="Times New Roman,serif" font-size="9.00">left</text>
</g>
<!-- life pos y&#45;&gt;left -->
<g id="edge1" class="edge">
<title>life pos y&#45;&gt;left</title>
<path fill="none" stroke="green" stroke-width="0.57" d="M71.31,-257.24C63.64,-246.29 51.21,-228.54 40.95,-213.89"/>
<polygon fill="green" stroke="green" stroke-width="0.57" points="44,-212.14 35.4,-205.96 38.27,-216.16 44,-212.14"/>
</g>
<!-- 378 -->
<g id="node11" class="node">
<title>378</title>
<ellipse fill="white" stroke="black" cx="136.5" cy="-187.97" rx="21.43" ry="21.43"/>
<text text-anchor="middle" x="136.5" y="-185.77" font-family="Times New Roman,serif" font-size="9.00">378</text>
</g>
<!-- life pos y&#45;&gt;378 -->
<g id="edge5" class="edge">
<title>life pos y&#45;&gt;378</title>
<path fill="none" stroke="red" stroke-width="0.19" d="M86.08,-257.24C94.14,-246.33 107.19,-228.66 117.99,-214.03"/>
<polygon fill="red" stroke="red" stroke-width="0.19" points="120.74,-216.2 123.86,-206.08 115.11,-212.04 120.74,-216.2"/>
</g>
<!-- abs y -->
<g id="node2" class="node">
<title>abs y</title>
<polygon fill="lightgray" stroke="black" points="229.5,-279.51 193.5,-279.51 193.5,-257.51 229.5,-257.51 229.5,-279.51"/>
<text text-anchor="middle" x="211.5" y="-266.31" font-family="Times New Roman,serif" font-size="9.00">abs y</text>
</g>
<!-- near wall? -->
<g id="node3" class="node">
<title>near wall?</title>
<polygon fill="lightgray" stroke="black" points="175,-279.51 122,-279.51 122,-257.51 175,-257.51 175,-279.51"/>
<text text-anchor="middle" x="148.5" y="-266.31" font-family="Times New Roman,serif" font-size="9.00">near wall?</text>
</g>
<!-- near wall?&#45;&gt;378 -->
<g id="edge7" class="edge">
<title>near wall?&#45;&gt;378</title>
<path fill="none" stroke="green" stroke-width="0.31" d="M146.93,-257.24C145.48,-247.73 143.24,-233.08 141.21,-219.79"/>
<polygon fill="green" stroke="green" stroke-width="0.31" points="144.68,-219.36 139.71,-210 137.76,-220.41 144.68,-219.36"/>
</g>
<!-- abs x -->
<g id="node4" class="node">
<title>abs x</title>
<polygon fill="lightgray" stroke="black" points="35,-279.51 0,-279.51 0,-257.51 35,-257.51 35,-279.51"/>
<text text-anchor="middle" x="17.5" y="-266.31" font-family="Times New Roman,serif" font-size="9.00">abs x</text>
</g>
<!-- abs x&#45;&gt;left -->
<g id="edge8" class="edge">
<title>abs x&#45;&gt;left</title>
<path fill="none" stroke="red" stroke-width="0.11" d="M18.28,-257.24C19.03,-247.5 20.18,-232.38 21.22,-218.84"/>
<polygon fill="red" stroke="red" stroke-width="0.11" points="24.69,-219.31 21.96,-209.07 17.71,-218.78 24.69,-219.31"/>
</g>
<!-- life pos x -->
<g id="node5" class="node">
<title>life pos x</title>
<polygon fill="lightgray" stroke="black" points="297.5,-279.51 247.5,-279.51 247.5,-257.51 297.5,-257.51 297.5,-279.51"/>
<text text-anchor="middle" x="272.5" y="-266.31" font-family="Times New Roman,serif" font-size="9.00">life pos x</text>
</g>
<!-- stop -->
<g id="node6" class="node">
<title>stop</title>
<ellipse fill="lightblue" stroke="black" cx="338.5" cy="-268.51" rx="23.17" ry="23.17"/>
<text text-anchor="middle" x="338.5" y="-266.31" font-family="Times New Roman,serif" font-size="9.00">stop</text>
</g>
<!-- up -->
<g id="node7" class="node">
<title>up</title>
<ellipse fill="lightblue" stroke="black" cx="398.5" cy="-268.51" rx="18.27" ry="18.27"/>
<text text-anchor="middle" x="398.5" y="-266.31" font-family="Times New Roman,serif" font-size="9.00">up</text>
</g>
<!-- right -->
<g id="node10" class="node">
<title>right</title>
<ellipse fill="lightblue" stroke="black" cx="145.5" cy="-26.16" rx="23.17" ry="23.17"/>
<text text-anchor="middle" x="145.5" y="-23.96" font-family="Times New Roman,serif" font-size="9.00">right</text>
</g>
<!-- 188 -->
<g id="node12" class="node">
<title>188</title>
<ellipse fill="white" stroke="black" cx="136.5" cy="-109.54" rx="21.43" ry="21.43"/>
<text text-anchor="middle" x="136.5" y="-107.34" font-family="Times New Roman,serif" font-size="9.00">188</text>
</g>
<!-- 378&#45;&gt;188 -->
<g id="edge6" class="edge">
<title>378&#45;&gt;188</title>
<path fill="none" stroke="green" stroke-width="0.83" d="M136.5,-166.08C136.5,-158.84 136.5,-150.54 136.5,-142.6"/>
<polygon fill="green" stroke="green" stroke-width="0.83" points="140,-142.65 136.5,-132.65 133,-142.65 140,-142.65"/>
</g>
<!-- 188&#45;&gt;down -->
<g id="edge3" class="edge">
<title>188&#45;&gt;down</title>
<path fill="none" stroke="green" stroke-width="0.15" d="M124.48,-91.68C117.22,-81.49 107.76,-68.22 99.32,-56.37"/>
<polygon fill="green" stroke="green" stroke-width="0.15" points="102.17,-54.35 93.52,-48.24 96.47,-58.41 102.17,-54.35"/>
</g>
<!-- 188&#45;&gt;right -->
<g id="edge4" class="edge">
<title>188&#45;&gt;right</title>
<path fill="none" stroke="green" stroke-width="0.21" d="M138.77,-88C139.72,-79.43 140.84,-69.26 141.9,-59.71"/>
<polygon fill="green" stroke="green" stroke-width="0.21" points="145.35,-60.34 142.97,-50.02 138.39,-59.57 145.35,-60.34"/>
</g>
</g>
</svg>
