<?xml version="1.0" encoding="UTF-8" standalone="no"?>
<!DOCTYPE svg PUBLIC "-//W3C//DTD SVG 1.1//EN"
 "http://www.w3.org/Graphics/SVG/1.1/DTD/svg11.dtd">
<!-- Generated by graphviz version 7.1.0 (20230121.1956)
 -->
<!-- Pages: 1 -->
<svg width="580pt" height="191pt"
 viewBox="0.00 0.00 579.50 191.10" xmlns="http://www.w3.org/2000/svg" xmlns:xlink="http://www.w3.org/1999/xlink">
<g id="graph0" class="graph" transform="scale(1 1) rotate(0) translate(4 187.1)">
<polygon fill="white" stroke="none" points="-4,4 -4,-187.1 575.5,-187.1 575.5,4 -4,4"/>
<!-- life pos y -->
<g id="node1" class="node">
<title>life pos y</title>
<polygon fill="lightgray" stroke="black" points="51,-183.1 0,-183.1 0,-161.1 51,-161.1 51,-183.1"/>
<text text-anchor="middle" x="25.5" y="-169.9" font-family="Times New Roman,serif" font-size="9.00">life pos y</text>
</g>
<!-- right -->
<g id="node13" class="node">
<title>right</title>
<ellipse fill="lightblue" stroke="black" cx="111.5" cy="-98.93" rx="23.17" ry="23.17"/>
<text text-anchor="middle" x="111.5" y="-96.73" font-family="Times New Roman,serif" font-size="9.00">right</text>
</g>
<!-- life pos y&#45;&gt;right -->
<g id="edge2" class="edge">
<title>life pos y&#45;&gt;right</title>
<path fill="none" stroke="red" stroke-width="0.3" d="M37.82,-160.9C50.32,-150.56 70.03,-134.25 85.92,-121.1"/>
<polygon fill="red" stroke="red" stroke-width="0.3" points="88,-123.92 93.48,-114.85 83.54,-118.52 88,-123.92"/>
</g>
<!-- near wall down -->
<g id="node2" class="node">
<title>near wall down</title>
<polygon fill="lightgray" stroke="black" points="227,-183.1 156,-183.1 156,-161.1 227,-161.1 227,-183.1"/>
<text text-anchor="middle" x="191.5" y="-169.9" font-family="Times New Roman,serif" font-size="9.00">near wall down</text>
</g>
<!-- stop -->
<g id="node9" class="node">
<title>stop</title>
<ellipse fill="lightblue" stroke="black" cx="176.5" cy="-98.93" rx="23.17" ry="23.17"/>
<text text-anchor="middle" x="176.5" y="-96.73" font-family="Times New Roman,serif" font-size="9.00">stop</text>
</g>
<!-- near wall down&#45;&gt;stop -->
<g id="edge8" class="edge">
<title>near wall down&#45;&gt;stop</title>
<path fill="none" stroke="red" stroke-width="0.32" d="M189.35,-160.9C187.75,-153.29 185.46,-142.45 183.26,-132.01"/>
<polygon fill="red" stroke="red" stroke-width="0.32" points="186.71,-131.38 181.22,-122.32 179.86,-132.83 186.71,-131.38"/>
</g>
<!-- left -->
<g id="node12" class="node">
<title>left</title>
<ellipse fill="lightblue" stroke="black" cx="312.5" cy="-98.93" rx="20.51" ry="20.51"/>
<text text-anchor="middle" x="312.5" y="-96.73" font-family="Times New Roman,serif" font-size="9.00">left</text>
</g>
<!-- near wall down&#45;&gt;left -->
<g id="edge1" class="edge">
<title>near wall down&#45;&gt;left</title>
<path fill="none" stroke="green" stroke-width="0.28" d="M215.9,-160.62C234.72,-152.11 261.07,-139.23 282.5,-125.1 284.95,-123.48 287.42,-121.7 289.84,-119.85"/>
<polygon fill="green" stroke="green" stroke-width="0.28" points="291.86,-122.72 297.44,-113.71 287.46,-117.27 291.86,-122.72"/>
</g>
<!-- near wall down&#45;&gt;right -->
<g id="edge3" class="edge">
<title>near wall down&#45;&gt;right</title>
<path fill="none" stroke="green" stroke-width="0.13" d="M180.04,-160.9C168.56,-150.69 150.54,-134.66 135.85,-121.6"/>
<polygon fill="green" stroke="green" stroke-width="0.13" points="138.48,-119.25 128.68,-115.22 133.83,-124.48 138.48,-119.25"/>
</g>
<!-- food dist y -->
<g id="node3" class="node">
<title>food dist y</title>
<polygon fill="lightgray" stroke="black" points="273.5,-109.93 217.5,-109.93 217.5,-87.93 273.5,-87.93 273.5,-109.93"/>
<text text-anchor="middle" x="245.5" y="-96.73" font-family="Times New Roman,serif" font-size="9.00">food dist y</text>
</g>
<!-- up -->
<g id="node10" class="node">
<title>up</title>
<ellipse fill="lightblue" stroke="black" cx="380.5" cy="-18.38" rx="18.27" ry="18.27"/>
<text text-anchor="middle" x="380.5" y="-16.18" font-family="Times New Roman,serif" font-size="9.00">up</text>
</g>
<!-- food dist y&#45;&gt;up -->
<g id="edge9" class="edge">
<title>food dist y&#45;&gt;up</title>
<path fill="none" stroke="green" stroke-width="0.6" d="M260.05,-87.55C266.78,-82.88 274.94,-77.38 282.5,-72.77 306.44,-58.16 334.64,-43 354.63,-32.59"/>
<polygon fill="green" stroke="green" stroke-width="0.6" points="356.19,-35.72 363.47,-28.02 352.97,-29.5 356.19,-35.72"/>
</g>
<!-- near wall up -->
<g id="node4" class="node">
<title>near wall up</title>
<polygon fill="lightgray" stroke="black" points="430,-183.1 369,-183.1 369,-161.1 430,-161.1 430,-183.1"/>
<text text-anchor="middle" x="399.5" y="-169.9" font-family="Times New Roman,serif" font-size="9.00">near wall up</text>
</g>
<!-- near wall up&#45;&gt;up -->
<g id="edge11" class="edge">
<title>near wall up&#45;&gt;up</title>
<path fill="none" stroke="green" stroke-width="0.43" stroke-dasharray="1,5" d="M398.19,-160.67C395.3,-137.53 388.25,-81.26 383.97,-47.12"/>
<polygon fill="green" stroke="green" stroke-width="0.43" points="387.49,-47.02 382.77,-37.53 380.54,-47.89 387.49,-47.02"/>
</g>
<!-- near wall up&#45;&gt;left -->
<g id="edge4" class="edge">
<title>near wall up&#45;&gt;left</title>
<path fill="none" stroke="green" stroke-width="0.44" d="M387.04,-160.9C373.83,-150.1 352.67,-132.79 336.26,-119.37"/>
<polygon fill="green" stroke="green" stroke-width="0.44" points="338.65,-116.8 328.69,-113.18 334.22,-122.22 338.65,-116.8"/>
</g>
<!-- 164 -->
<g id="node14" class="node">
<title>164</title>
<ellipse fill="white" stroke="black" cx="448.5" cy="-98.93" rx="21.43" ry="21.43"/>
<text text-anchor="middle" x="448.5" y="-96.73" font-family="Times New Roman,serif" font-size="9.00">164</text>
</g>
<!-- near wall up&#45;&gt;164 -->
<g id="edge12" class="edge">
<title>near wall up&#45;&gt;164</title>
<path fill="none" stroke="green" stroke-width="0.31" d="M406.52,-160.9C412.82,-151.75 422.35,-137.91 430.73,-125.74"/>
<polygon fill="green" stroke="green" stroke-width="0.31" points="433.51,-127.87 436.3,-117.65 427.75,-123.9 433.51,-127.87"/>
</g>
<!-- food dist x -->
<g id="node5" class="node">
<title>food dist x</title>
<polygon fill="lightgray" stroke="black" points="503,-183.1 448,-183.1 448,-161.1 503,-161.1 503,-183.1"/>
<text text-anchor="middle" x="475.5" y="-169.9" font-family="Times New Roman,serif" font-size="9.00">food dist x</text>
</g>
<!-- near wall right -->
<g id="node6" class="node">
<title>near wall right</title>
<polygon fill="lightgray" stroke="black" points="137.5,-183.1 69.5,-183.1 69.5,-161.1 137.5,-161.1 137.5,-183.1"/>
<text text-anchor="middle" x="103.5" y="-169.9" font-family="Times New Roman,serif" font-size="9.00">near wall right</text>
</g>
<!-- near wall right&#45;&gt;stop -->
<g id="edge7" class="edge">
<title>near wall right&#45;&gt;stop</title>
<path fill="none" stroke="green" stroke-width="0.12" d="M113.96,-160.9C124.14,-150.98 139.95,-135.56 153.13,-122.71"/>
<polygon fill="green" stroke="green" stroke-width="0.12" points="155.29,-125.5 160,-116.01 150.4,-120.49 155.29,-125.5"/>
</g>
<!-- down -->
<g id="node11" class="node">
<title>down</title>
<ellipse fill="lightblue" stroke="black" cx="44.5" cy="-98.93" rx="26.33" ry="26.33"/>
<text text-anchor="middle" x="44.5" y="-96.73" font-family="Times New Roman,serif" font-size="9.00">down</text>
</g>
<!-- near wall right&#45;&gt;down -->
<g id="edge6" class="edge">
<title>near wall right&#45;&gt;down</title>
<path fill="none" stroke="red" stroke-width="0.25" d="M95.05,-160.9C87.85,-152.22 77.17,-139.33 67.47,-127.64"/>
<polygon fill="red" stroke="red" stroke-width="0.25" points="70.29,-125.56 61.22,-120.1 64.9,-130.03 70.29,-125.56"/>
</g>
<!-- life pos x -->
<g id="node7" class="node">
<title>life pos x</title>
<polygon fill="lightgray" stroke="black" points="571.5,-183.1 521.5,-183.1 521.5,-161.1 571.5,-161.1 571.5,-183.1"/>
<text text-anchor="middle" x="546.5" y="-169.9" font-family="Times New Roman,serif" font-size="9.00">life pos x</text>
</g>
<!-- near wall left -->
<g id="node8" class="node">
<title>near wall left</title>
<polygon fill="lightgray" stroke="black" points="337,-183.1 274,-183.1 274,-161.1 337,-161.1 337,-183.1"/>
<text text-anchor="middle" x="305.5" y="-169.9" font-family="Times New Roman,serif" font-size="9.00">near wall left</text>
</g>
<!-- near wall left&#45;&gt;stop -->
<g id="edge10" class="edge">
<title>near wall left&#45;&gt;stop</title>
<path fill="none" stroke="red" stroke-width="0.37" d="M279.56,-160.68C259.54,-152.19 231.47,-139.33 208.5,-125.1 206.34,-123.76 204.16,-122.31 202.01,-120.79"/>
<polygon fill="red" stroke="red" stroke-width="0.37" points="204.49,-118.27 194.38,-115.11 200.31,-123.89 204.49,-118.27"/>
</g>
<!-- near wall left&#45;&gt;up -->
<g id="edge5" class="edge">
<title>near wall left&#45;&gt;up</title>
<path fill="none" stroke="red" stroke-width="0.36" d="M315.41,-160.86C323.57,-151.99 334.98,-138.5 342.5,-125.1 356.6,-99.95 367.09,-68.6 373.43,-46.6"/>
<polygon fill="red" stroke="red" stroke-width="0.36" points="376.76,-47.71 376.07,-37.13 370.01,-45.83 376.76,-47.71"/>
</g>
<!-- 164&#45;&gt;up -->
<g id="edge13" class="edge">
<title>164&#45;&gt;up</title>
<path fill="none" stroke="green" stroke-width="0.4" d="M434.74,-82.04C424.49,-70.2 410.38,-53.9 399.12,-40.89"/>
<polygon fill="green" stroke="green" stroke-width="0.4" points="401.79,-38.63 392.6,-33.36 396.5,-43.21 401.79,-38.63"/>
</g>
</g>
</svg>
