<?xml version="1.0" encoding="UTF-8" standalone="no"?>
<!DOCTYPE svg PUBLIC "-//W3C//DTD SVG 1.1//EN"
 "http://www.w3.org/Graphics/SVG/1.1/DTD/svg11.dtd">
<!-- Generated by graphviz version 7.1.0 (20230121.1956)
 -->
<!-- Pages: 1 -->
<svg width="677pt" height="286pt"
 viewBox="0.00 0.00 676.83 285.71" xmlns="http://www.w3.org/2000/svg" xmlns:xlink="http://www.w3.org/1999/xlink">
<g id="graph0" class="graph" transform="scale(1 1) rotate(0) translate(4 281.71)">
<polygon fill="white" stroke="none" points="-4,4 -4,-281.71 672.83,-281.71 672.83,4 -4,4"/>
<!-- life pos y -->
<g id="node1" class="node">
<title>life pos y</title>
<polygon fill="lightgray" stroke="black" points="51,-265.37 0,-265.37 0,-243.37 51,-243.37 51,-265.37"/>
<text text-anchor="middle" x="25.5" y="-252.17" font-family="Times New Roman,serif" font-size="9.00">life pos y</text>
</g>
<!-- up -->
<g id="node10" class="node">
<title>up</title>
<ellipse fill="lightblue" stroke="black" cx="28.5" cy="-168.87" rx="18.27" ry="18.27"/>
<text text-anchor="middle" x="28.5" y="-166.67" font-family="Times New Roman,serif" font-size="9.00">up</text>
</g>
<!-- life pos y&#45;&gt;up -->
<g id="edge8" class="edge">
<title>life pos y&#45;&gt;up</title>
<path fill="none" stroke="green" stroke-width="0.43" d="M25.87,-243.13C26.27,-231.88 26.94,-213.33 27.5,-197.71"/>
<polygon fill="green" stroke="green" stroke-width="0.43" points="30.98,-198.26 27.84,-188.14 23.99,-198.01 30.98,-198.26"/>
</g>
<!-- near wall down -->
<g id="node2" class="node">
<title>near wall down</title>
<polygon fill="lightgray" stroke="black" points="209,-265.37 138,-265.37 138,-243.37 209,-243.37 209,-265.37"/>
<text text-anchor="middle" x="173.5" y="-252.17" font-family="Times New Roman,serif" font-size="9.00">near wall down</text>
</g>
<!-- food dist y -->
<g id="node3" class="node">
<title>food dist y</title>
<polygon fill="lightgray" stroke="black" points="283.5,-265.37 227.5,-265.37 227.5,-243.37 283.5,-243.37 283.5,-265.37"/>
<text text-anchor="middle" x="255.5" y="-252.17" font-family="Times New Roman,serif" font-size="9.00">food dist y</text>
</g>
<!-- near wall up -->
<g id="node4" class="node">
<title>near wall up</title>
<polygon fill="lightgray" stroke="black" points="363,-265.37 302,-265.37 302,-243.37 363,-243.37 363,-265.37"/>
<text text-anchor="middle" x="332.5" y="-252.17" font-family="Times New Roman,serif" font-size="9.00">near wall up</text>
</g>
<!-- right -->
<g id="node13" class="node">
<title>right</title>
<ellipse fill="lightblue" stroke="black" cx="281.5" cy="-168.87" rx="23.17" ry="23.17"/>
<text text-anchor="middle" x="281.5" y="-166.67" font-family="Times New Roman,serif" font-size="9.00">right</text>
</g>
<!-- near wall up&#45;&gt;right -->
<g id="edge3" class="edge">
<title>near wall up&#45;&gt;right</title>
<path fill="none" stroke="red" stroke-width="0.14" d="M326.25,-243.13C319.33,-231.82 307.91,-213.11 298.34,-197.44"/>
<polygon fill="red" stroke="red" stroke-width="0.14" points="301.56,-195.99 293.36,-189.28 295.58,-199.64 301.56,-195.99"/>
</g>
<!-- 5 -->
<g id="node14" class="node">
<title>5</title>
<ellipse fill="white" stroke="black" cx="356.5" cy="-91.86" rx="14.7" ry="14.7"/>
<text text-anchor="middle" x="356.5" y="-89.66" font-family="Times New Roman,serif" font-size="9.00">5</text>
</g>
<!-- near wall up&#45;&gt;5 -->
<g id="edge4" class="edge">
<title>near wall up&#45;&gt;5</title>
<path fill="none" stroke="red" stroke-width="0.28" stroke-dasharray="1,5" d="M334,-243.33C337.74,-218.33 347.55,-152.72 352.9,-116.96"/>
<polygon fill="red" stroke="red" stroke-width="0.28" points="356.32,-117.72 354.34,-107.31 349.4,-116.68 356.32,-117.72"/>
</g>
<!-- 428 -->
<g id="node15" class="node">
<title>428</title>
<ellipse fill="white" stroke="black" cx="381.5" cy="-168.87" rx="21.43" ry="21.43"/>
<text text-anchor="middle" x="381.5" y="-166.67" font-family="Times New Roman,serif" font-size="9.00">428</text>
</g>
<!-- near wall up&#45;&gt;428 -->
<g id="edge6" class="edge">
<title>near wall up&#45;&gt;428</title>
<path fill="none" stroke="green" stroke-width="0.24" d="M338.51,-243.13C345.26,-231.63 356.49,-212.5 365.78,-196.67"/>
<polygon fill="green" stroke="green" stroke-width="0.24" points="368.75,-198.52 370.79,-188.12 362.71,-194.98 368.75,-198.52"/>
</g>
<!-- food dist x -->
<g id="node5" class="node">
<title>food dist x</title>
<polygon fill="lightgray" stroke="black" points="436,-265.37 381,-265.37 381,-243.37 436,-243.37 436,-265.37"/>
<text text-anchor="middle" x="408.5" y="-252.17" font-family="Times New Roman,serif" font-size="9.00">food dist x</text>
</g>
<!-- near wall right -->
<g id="node6" class="node">
<title>near wall right</title>
<polygon fill="lightgray" stroke="black" points="522.5,-265.37 454.5,-265.37 454.5,-243.37 522.5,-243.37 522.5,-265.37"/>
<text text-anchor="middle" x="488.5" y="-252.17" font-family="Times New Roman,serif" font-size="9.00">near wall right</text>
</g>
<!-- life pos x -->
<g id="node7" class="node">
<title>life pos x</title>
<polygon fill="lightgray" stroke="black" points="119.5,-265.37 69.5,-265.37 69.5,-243.37 119.5,-243.37 119.5,-265.37"/>
<text text-anchor="middle" x="94.5" y="-252.17" font-family="Times New Roman,serif" font-size="9.00">life pos x</text>
</g>
<!-- life pos x&#45;&gt;up -->
<g id="edge2" class="edge">
<title>life pos x&#45;&gt;up</title>
<path fill="none" stroke="green" stroke-width="0.13" d="M86.41,-243.13C76.29,-230.33 58.71,-208.09 45.56,-191.46"/>
<polygon fill="green" stroke="green" stroke-width="0.13" points="48.59,-189.64 39.64,-183.97 43.1,-193.98 48.59,-189.64"/>
</g>
<!-- down -->
<g id="node11" class="node">
<title>down</title>
<ellipse fill="lightblue" stroke="black" cx="94.5" cy="-168.87" rx="26.33" ry="26.33"/>
<text text-anchor="middle" x="94.5" y="-166.67" font-family="Times New Roman,serif" font-size="9.00">down</text>
</g>
<!-- life pos x&#45;&gt;down -->
<g id="edge1" class="edge">
<title>life pos x&#45;&gt;down</title>
<path fill="none" stroke="red" stroke-width="0.24" stroke-dasharray="1,5" d="M94.5,-243.13C94.5,-233.76 94.5,-219.33 94.5,-205.75"/>
<polygon fill="red" stroke="red" stroke-width="0.24" points="98,-205.99 94.5,-195.99 91,-205.99 98,-205.99"/>
</g>
<!-- near wall left -->
<g id="node8" class="node">
<title>near wall left</title>
<polygon fill="lightgray" stroke="black" points="604,-265.37 541,-265.37 541,-243.37 604,-243.37 604,-265.37"/>
<text text-anchor="middle" x="572.5" y="-252.17" font-family="Times New Roman,serif" font-size="9.00">near wall left</text>
</g>
<!-- stop -->
<g id="node9" class="node">
<title>stop</title>
<ellipse fill="lightblue" stroke="black" cx="645.5" cy="-254.37" rx="23.17" ry="23.17"/>
<text text-anchor="middle" x="645.5" y="-252.17" font-family="Times New Roman,serif" font-size="9.00">stop</text>
</g>
<!-- left -->
<g id="node12" class="node">
<title>left</title>
<ellipse fill="lightblue" stroke="black" cx="356.5" cy="-20.51" rx="20.51" ry="20.51"/>
<text text-anchor="middle" x="356.5" y="-18.31" font-family="Times New Roman,serif" font-size="9.00">left</text>
</g>
<!-- 5&#45;&gt;left -->
<g id="edge5" class="edge">
<title>5&#45;&gt;left</title>
<path fill="none" stroke="green" stroke-width="0.39" d="M356.5,-76.83C356.5,-69.57 356.5,-60.41 356.5,-51.64"/>
<polygon fill="green" stroke="green" stroke-width="0.39" points="360,-51.89 356.5,-41.89 353,-51.89 360,-51.89"/>
</g>
<!-- 428&#45;&gt;5 -->
<g id="edge7" class="edge">
<title>428&#45;&gt;5</title>
<path fill="none" stroke="red" stroke-width="0.27" d="M374.93,-148.17C371.63,-138.27 367.62,-126.22 364.18,-115.9"/>
<polygon fill="red" stroke="red" stroke-width="0.27" points="367.59,-115.07 361.11,-106.69 360.95,-117.28 367.59,-115.07"/>
</g>
</g>
</svg>
