<?xml version="1.0" encoding="UTF-8" standalone="no"?>
<!DOCTYPE svg PUBLIC "-//W3C//DTD SVG 1.1//EN"
 "http://www.w3.org/Graphics/SVG/1.1/DTD/svg11.dtd">
<!-- Generated by graphviz version 7.1.0 (20230121.1956)
 -->
<!-- Pages: 1 -->
<svg width="676pt" height="143pt"
 viewBox="0.00 0.00 675.83 142.99" xmlns="http://www.w3.org/2000/svg" xmlns:xlink="http://www.w3.org/1999/xlink">
<g id="graph0" class="graph" transform="scale(1 1) rotate(0) translate(4 138.99)">
<polygon fill="white" stroke="none" points="-4,4 -4,-138.99 671.83,-138.99 671.83,4 -4,4"/>
<!-- life pos y -->
<g id="node1" class="node">
<title>life pos y</title>
<polygon fill="lightgray" stroke="black" points="130,-122.66 79,-122.66 79,-100.66 130,-100.66 130,-122.66"/>
<text text-anchor="middle" x="104.5" y="-109.46" font-family="Times New Roman,serif" font-size="9.00">life pos y</text>
</g>
<!-- down -->
<g id="node11" class="node">
<title>down</title>
<ellipse fill="lightblue" stroke="black" cx="67.5" cy="-26.16" rx="26.33" ry="26.33"/>
<text text-anchor="middle" x="67.5" y="-23.96" font-family="Times New Roman,serif" font-size="9.00">down</text>
</g>
<!-- life pos y&#45;&gt;down -->
<g id="edge2" class="edge">
<title>life pos y&#45;&gt;down</title>
<path fill="none" stroke="green" stroke-width="0.26" d="M99.96,-100.42C95.5,-90.35 88.44,-74.42 82.05,-59.99"/>
<polygon fill="green" stroke="green" stroke-width="0.26" points="85.38,-58.88 78.13,-51.15 78.98,-61.71 85.38,-58.88"/>
</g>
<!-- left -->
<g id="node12" class="node">
<title>left</title>
<ellipse fill="lightblue" stroke="black" cx="179.5" cy="-26.16" rx="20.51" ry="20.51"/>
<text text-anchor="middle" x="179.5" y="-23.96" font-family="Times New Roman,serif" font-size="9.00">left</text>
</g>
<!-- life pos y&#45;&gt;left -->
<g id="edge4" class="edge">
<title>life pos y&#45;&gt;left</title>
<path fill="none" stroke="green" stroke-width="0.35" d="M113.7,-100.42C124.99,-87.85 144.48,-66.16 159.32,-49.63"/>
<polygon fill="green" stroke="green" stroke-width="0.35" points="161.75,-52.16 165.83,-42.38 156.54,-47.48 161.75,-52.16"/>
</g>
<!-- near wall down -->
<g id="node2" class="node">
<title>near wall down</title>
<polygon fill="lightgray" stroke="black" points="455,-122.66 384,-122.66 384,-100.66 455,-100.66 455,-122.66"/>
<text text-anchor="middle" x="419.5" y="-109.46" font-family="Times New Roman,serif" font-size="9.00">near wall down</text>
</g>
<!-- food dist y -->
<g id="node3" class="node">
<title>food dist y</title>
<polygon fill="lightgray" stroke="black" points="529.5,-122.66 473.5,-122.66 473.5,-100.66 529.5,-100.66 529.5,-122.66"/>
<text text-anchor="middle" x="501.5" y="-109.46" font-family="Times New Roman,serif" font-size="9.00">food dist y</text>
</g>
<!-- right -->
<g id="node13" class="node">
<title>right</title>
<ellipse fill="lightblue" stroke="black" cx="501.5" cy="-26.16" rx="23.17" ry="23.17"/>
<text text-anchor="middle" x="501.5" y="-23.96" font-family="Times New Roman,serif" font-size="9.00">right</text>
</g>
<!-- food dist y&#45;&gt;right -->
<g id="edge8" class="edge">
<title>food dist y&#45;&gt;right</title>
<path fill="none" stroke="green" stroke-width="0.24" d="M501.5,-100.42C501.5,-90.33 501.5,-74.36 501.5,-59.91"/>
<polygon fill="green" stroke="green" stroke-width="0.24" points="505,-60.12 501.5,-50.12 498,-60.12 505,-60.12"/>
</g>
<!-- near wall up -->
<g id="node4" class="node">
<title>near wall up</title>
<polygon fill="lightgray" stroke="black" points="61,-122.66 0,-122.66 0,-100.66 61,-100.66 61,-122.66"/>
<text text-anchor="middle" x="30.5" y="-109.46" font-family="Times New Roman,serif" font-size="9.00">near wall up</text>
</g>
<!-- near wall up&#45;&gt;down -->
<g id="edge5" class="edge">
<title>near wall up&#45;&gt;down</title>
<path fill="none" stroke="green" stroke-width="0.2" d="M35.04,-100.42C39.5,-90.35 46.56,-74.42 52.95,-59.99"/>
<polygon fill="green" stroke="green" stroke-width="0.2" points="56.06,-61.63 56.91,-51.07 49.66,-58.79 56.06,-61.63"/>
</g>
<!-- food dist x -->
<g id="node5" class="node">
<title>food dist x</title>
<polygon fill="lightgray" stroke="black" points="603,-122.66 548,-122.66 548,-100.66 603,-100.66 603,-122.66"/>
<text text-anchor="middle" x="575.5" y="-109.46" font-family="Times New Roman,serif" font-size="9.00">food dist x</text>
</g>
<!-- near wall right -->
<g id="node6" class="node">
<title>near wall right</title>
<polygon fill="lightgray" stroke="black" points="297.5,-122.66 229.5,-122.66 229.5,-100.66 297.5,-100.66 297.5,-122.66"/>
<text text-anchor="middle" x="263.5" y="-109.46" font-family="Times New Roman,serif" font-size="9.00">near wall right</text>
</g>
<!-- up -->
<g id="node10" class="node">
<title>up</title>
<ellipse fill="lightblue" stroke="black" cx="301.5" cy="-26.16" rx="18.27" ry="18.27"/>
<text text-anchor="middle" x="301.5" y="-23.96" font-family="Times New Roman,serif" font-size="9.00">up</text>
</g>
<!-- near wall right&#45;&gt;up -->
<g id="edge1" class="edge">
<title>near wall right&#45;&gt;up</title>
<path fill="none" stroke="green" stroke-width="0.35" d="M268.16,-100.42C273.54,-88.59 282.6,-68.7 289.91,-52.62"/>
<polygon fill="green" stroke="green" stroke-width="0.35" points="293.02,-54.25 293.97,-43.7 286.65,-51.35 293.02,-54.25"/>
</g>
<!-- near wall right&#45;&gt;left -->
<g id="edge6" class="edge">
<title>near wall right&#45;&gt;left</title>
<path fill="none" stroke="red" stroke-width="0.21" d="M253.2,-100.42C240.28,-87.58 217.8,-65.24 201.06,-48.59"/>
<polygon fill="red" stroke="red" stroke-width="0.21" points="203.61,-46.19 194.05,-41.62 198.67,-51.15 203.61,-46.19"/>
</g>
<!-- life pos x -->
<g id="node7" class="node">
<title>life pos x</title>
<polygon fill="lightgray" stroke="black" points="365.5,-122.66 315.5,-122.66 315.5,-100.66 365.5,-100.66 365.5,-122.66"/>
<text text-anchor="middle" x="340.5" y="-109.46" font-family="Times New Roman,serif" font-size="9.00">life pos x</text>
</g>
<!-- life pos x&#45;&gt;up -->
<g id="edge3" class="edge">
<title>life pos x&#45;&gt;up</title>
<path fill="none" stroke="red" stroke-width="0.44" d="M335.72,-100.42C330.19,-88.59 320.9,-68.7 313.39,-52.62"/>
<polygon fill="red" stroke="red" stroke-width="0.44" points="316.68,-51.4 309.28,-43.82 310.34,-54.36 316.68,-51.4"/>
</g>
<!-- near wall left -->
<g id="node8" class="node">
<title>near wall left</title>
<polygon fill="lightgray" stroke="black" points="211,-122.66 148,-122.66 148,-100.66 211,-100.66 211,-122.66"/>
<text text-anchor="middle" x="179.5" y="-109.46" font-family="Times New Roman,serif" font-size="9.00">near wall left</text>
</g>
<!-- near wall left&#45;&gt;left -->
<g id="edge7" class="edge">
<title>near wall left&#45;&gt;left</title>
<path fill="none" stroke="green" stroke-width="0.23" d="M179.5,-100.42C179.5,-89.67 179.5,-72.24 179.5,-57.08"/>
<polygon fill="green" stroke="green" stroke-width="0.23" points="183,-57.4 179.5,-47.4 176,-57.4 183,-57.4"/>
</g>
<!-- stop -->
<g id="node9" class="node">
<title>stop</title>
<ellipse fill="lightblue" stroke="black" cx="644.5" cy="-111.66" rx="23.17" ry="23.17"/>
<text text-anchor="middle" x="644.5" y="-109.46" font-family="Times New Roman,serif" font-size="9.00">stop</text>
</g>
</g>
</svg>
