<?xml version="1.0" encoding="UTF-8" standalone="no"?>
<!DOCTYPE svg PUBLIC "-//W3C//DTD SVG 1.1//EN"
 "http://www.w3.org/Graphics/SVG/1.1/DTD/svg11.dtd">
<!-- Generated by graphviz version 7.1.0 (20230121.1956)
 -->
<!-- Pages: 1 -->
<svg width="345pt" height="304pt"
 viewBox="0.00 0.00 344.55 304.09" xmlns="http://www.w3.org/2000/svg" xmlns:xlink="http://www.w3.org/1999/xlink">
<g id="graph0" class="graph" transform="scale(1 1) rotate(0) translate(4 300.09)">
<polygon fill="white" stroke="none" points="-4,4 -4,-300.09 340.55,-300.09 340.55,4 -4,4"/>
<!-- life pos y -->
<g id="node1" class="node">
<title>life pos y</title>
<polygon fill="lightgray" stroke="black" points="200.71,-283.76 149.71,-283.76 149.71,-261.76 200.71,-261.76 200.71,-283.76"/>
<text text-anchor="middle" x="175.21" y="-270.56" font-family="Times New Roman,serif" font-size="9.00">life pos y</text>
</g>
<!-- abs y -->
<g id="node2" class="node">
<title>abs y</title>
<polygon fill="lightgray" stroke="black" points="152.21,-203.21 116.21,-203.21 116.21,-181.21 152.21,-181.21 152.21,-203.21"/>
<text text-anchor="middle" x="134.21" y="-190.01" font-family="Times New Roman,serif" font-size="9.00">abs y</text>
</g>
<!-- right -->
<g id="node10" class="node">
<title>right</title>
<ellipse fill="lightblue" stroke="black" cx="139.21" cy="-111.66" rx="23.17" ry="23.17"/>
<text text-anchor="middle" x="139.21" y="-109.46" font-family="Times New Roman,serif" font-size="9.00">right</text>
</g>
<!-- abs y&#45;&gt;right -->
<g id="edge2" class="edge">
<title>abs y&#45;&gt;right</title>
<path fill="none" stroke="red" stroke-width="0.24" d="M134.87,-180.94C135.45,-171.82 136.33,-157.98 137.15,-145.14"/>
<polygon fill="red" stroke="red" stroke-width="0.24" points="140.62,-145.73 137.76,-135.52 133.63,-145.28 140.62,-145.73"/>
</g>
<!-- near wall? -->
<g id="node3" class="node">
<title>near wall?</title>
<polygon fill="lightgray" stroke="black" points="271.71,-283.76 218.71,-283.76 218.71,-261.76 271.71,-261.76 271.71,-283.76"/>
<text text-anchor="middle" x="245.21" y="-270.56" font-family="Times New Roman,serif" font-size="9.00">near wall?</text>
</g>
<!-- 111 -->
<g id="node11" class="node">
<title>111</title>
<ellipse fill="white" stroke="black" cx="245.21" cy="-192.21" rx="21.43" ry="21.43"/>
<text text-anchor="middle" x="245.21" y="-190.01" font-family="Times New Roman,serif" font-size="9.00">111</text>
</g>
<!-- near wall?&#45;&gt;111 -->
<g id="edge6" class="edge">
<title>near wall?&#45;&gt;111</title>
<path fill="none" stroke="red" stroke-width="0.4" d="M245.21,-261.49C245.21,-252.13 245.21,-237.81 245.21,-224.7"/>
<polygon fill="red" stroke="red" stroke-width="0.4" points="248.71,-224.7 245.21,-214.7 241.71,-224.7 248.71,-224.7"/>
</g>
<!-- abs x -->
<g id="node4" class="node">
<title>abs x</title>
<polygon fill="lightgray" stroke="black" points="205.71,-203.21 170.71,-203.21 170.71,-181.21 205.71,-181.21 205.71,-203.21"/>
<text text-anchor="middle" x="188.21" y="-190.01" font-family="Times New Roman,serif" font-size="9.00">abs x</text>
</g>
<!-- up -->
<g id="node7" class="node">
<title>up</title>
<ellipse fill="lightblue" stroke="black" cx="79.21" cy="-111.66" rx="18.27" ry="18.27"/>
<text text-anchor="middle" x="79.21" y="-109.46" font-family="Times New Roman,serif" font-size="9.00">up</text>
</g>
<!-- abs x&#45;&gt;up -->
<g id="edge5" class="edge">
<title>abs x&#45;&gt;up</title>
<path fill="none" stroke="green" stroke-width="0.1" d="M174.58,-180.78C170.34,-177.59 165.61,-174.1 161.21,-170.99 137.66,-154.35 130.51,-152 107.21,-134.99 105.15,-133.49 103.02,-131.89 100.91,-130.26"/>
<polygon fill="green" stroke="green" stroke-width="0.1" points="103.14,-127.56 93.11,-124.13 98.81,-133.06 103.14,-127.56"/>
</g>
<!-- down -->
<g id="node8" class="node">
<title>down</title>
<ellipse fill="lightblue" stroke="black" cx="105.21" cy="-26.16" rx="26.33" ry="26.33"/>
<text text-anchor="middle" x="105.21" y="-23.96" font-family="Times New Roman,serif" font-size="9.00">down</text>
</g>
<!-- abs x&#45;&gt;down -->
<g id="edge4" class="edge">
<title>abs x&#45;&gt;down</title>
<path fill="none" stroke="red" stroke-width="0.14" d="M188.64,-180.87C189.01,-161.5 187.68,-118.94 171.21,-88.33 162.57,-72.26 148.08,-58.13 134.88,-47.5"/>
<polygon fill="red" stroke="red" stroke-width="0.14" points="137.11,-44.81 127.05,-41.48 132.84,-50.35 137.11,-44.81"/>
</g>
<!-- left -->
<g id="node9" class="node">
<title>left</title>
<ellipse fill="lightblue" stroke="black" cx="243.21" cy="-111.66" rx="20.51" ry="20.51"/>
<text text-anchor="middle" x="243.21" y="-109.46" font-family="Times New Roman,serif" font-size="9.00">left</text>
</g>
<!-- abs x&#45;&gt;left -->
<g id="edge1" class="edge">
<title>abs x&#45;&gt;left</title>
<path fill="none" stroke="green" stroke-width="0.46" stroke-dasharray="1,5" d="M195.4,-180.94C203.07,-169.99 215.5,-152.24 225.76,-137.58"/>
<polygon fill="green" stroke="green" stroke-width="0.46" points="228.54,-139.71 231.41,-129.51 222.81,-135.7 228.54,-139.71"/>
</g>
<!-- abs x&#45;&gt;right -->
<g id="edge10" class="edge">
<title>abs x&#45;&gt;right</title>
<path fill="none" stroke="red" stroke-width="0.13" d="M181.81,-180.94C175.41,-170.68 165.28,-154.45 156.51,-140.38"/>
<polygon fill="red" stroke="red" stroke-width="0.13" points="159.63,-138.78 151.37,-132.14 153.69,-142.48 159.63,-138.78"/>
</g>
<!-- life pos x -->
<g id="node5" class="node">
<title>life pos x</title>
<polygon fill="lightgray" stroke="black" points="75.21,-203.21 25.21,-203.21 25.21,-181.21 75.21,-181.21 75.21,-203.21"/>
<text text-anchor="middle" x="50.21" y="-190.01" font-family="Times New Roman,serif" font-size="9.00">life pos x</text>
</g>
<!-- life pos x&#45;&gt;up -->
<g id="edge3" class="edge">
<title>life pos x&#45;&gt;up</title>
<path fill="none" stroke="green" stroke-width="0.74" stroke-dasharray="1,5" d="M54,-180.94C57.87,-170.47 64.03,-153.78 69.29,-139.52"/>
<polygon fill="green" stroke="green" stroke-width="0.74" points="72.52,-140.88 72.7,-130.29 65.96,-138.46 72.52,-140.88"/>
</g>
<!-- 178 -->
<g id="node12" class="node">
<title>178</title>
<ellipse fill="white" stroke="black" cx="21.21" cy="-111.66" rx="21.43" ry="21.43"/>
<text text-anchor="middle" x="21.21" y="-109.46" font-family="Times New Roman,serif" font-size="9.00">178</text>
</g>
<!-- life pos x&#45;&gt;178 -->
<g id="edge8" class="edge">
<title>life pos x&#45;&gt;178</title>
<path fill="none" stroke="red" stroke-width="0.13" d="M46.42,-180.94C42.77,-171.03 37.05,-155.57 31.99,-141.86"/>
<polygon fill="red" stroke="red" stroke-width="0.13" points="35.28,-140.65 28.53,-132.48 28.71,-143.07 35.28,-140.65"/>
</g>
<!-- stop -->
<g id="node6" class="node">
<title>stop</title>
<ellipse fill="lightblue" stroke="black" cx="313.21" cy="-272.76" rx="23.17" ry="23.17"/>
<text text-anchor="middle" x="313.21" y="-270.56" font-family="Times New Roman,serif" font-size="9.00">stop</text>
</g>
<!-- 111&#45;&gt;left -->
<g id="edge7" class="edge">
<title>111&#45;&gt;left</title>
<path fill="none" stroke="green" stroke-width="0.29" d="M244.69,-170.57C244.47,-162.14 244.22,-152.22 243.99,-143"/>
<polygon fill="green" stroke="green" stroke-width="0.29" points="247.49,-142.97 243.73,-133.06 240.49,-143.14 247.49,-142.97"/>
</g>
<!-- 178&#45;&gt;down -->
<g id="edge9" class="edge">
<title>178&#45;&gt;down</title>
<path fill="none" stroke="green" stroke-width="0.18" d="M36.23,-95.73C48.29,-83.75 65.49,-66.65 79.69,-52.53"/>
<polygon fill="green" stroke="green" stroke-width="0.18" points="82,-55.18 86.62,-45.64 77.06,-50.21 82,-55.18"/>
</g>
</g>
</svg>
