<?xml version="1.0" encoding="UTF-8" standalone="no"?>
<!DOCTYPE svg PUBLIC "-//W3C//DTD SVG 1.1//EN"
 "http://www.w3.org/Graphics/SVG/1.1/DTD/svg11.dtd">
<!-- Generated by graphviz version 7.1.0 (20230121.1956)
 -->
<!-- Pages: 1 -->
<svg width="441pt" height="143pt"
 viewBox="0.00 0.00 440.66 142.99" xmlns="http://www.w3.org/2000/svg" xmlns:xlink="http://www.w3.org/1999/xlink">
<g id="graph0" class="graph" transform="scale(1 1) rotate(0) translate(4 138.99)">
<polygon fill="white" stroke="none" points="-4,4 -4,-138.99 436.66,-138.99 436.66,4 -4,4"/>
<!-- life pos y -->
<g id="node1" class="node">
<title>life pos y</title>
<polygon fill="lightgray" stroke="black" points="51,-119.83 0,-119.83 0,-97.83 51,-97.83 51,-119.83"/>
<text text-anchor="middle" x="25.5" y="-106.63" font-family="Times New Roman,serif" font-size="9.00">life pos y</text>
</g>
<!-- abs y -->
<g id="node2" class="node">
<title>abs y</title>
<polygon fill="lightgray" stroke="black" points="105.5,-119.83 69.5,-119.83 69.5,-97.83 105.5,-97.83 105.5,-119.83"/>
<text text-anchor="middle" x="87.5" y="-106.63" font-family="Times New Roman,serif" font-size="9.00">abs y</text>
</g>
<!-- left -->
<g id="node9" class="node">
<title>left</title>
<ellipse fill="lightblue" stroke="black" cx="87.5" cy="-23.33" rx="20.51" ry="20.51"/>
<text text-anchor="middle" x="87.5" y="-21.13" font-family="Times New Roman,serif" font-size="9.00">left</text>
</g>
<!-- abs y&#45;&gt;left -->
<g id="edge2" class="edge">
<title>abs y&#45;&gt;left</title>
<path fill="none" stroke="green" stroke-width="0.47" d="M87.5,-97.59C87.5,-86.94 87.5,-69.74 87.5,-54.69"/>
<polygon fill="green" stroke="green" stroke-width="0.47" points="91,-54.95 87.5,-44.95 84,-54.95 91,-54.95"/>
</g>
<!-- near wall? -->
<g id="node3" class="node">
<title>near wall?</title>
<polygon fill="lightgray" stroke="black" points="177,-119.83 124,-119.83 124,-97.83 177,-97.83 177,-119.83"/>
<text text-anchor="middle" x="150.5" y="-106.63" font-family="Times New Roman,serif" font-size="9.00">near wall?</text>
</g>
<!-- right -->
<g id="node10" class="node">
<title>right</title>
<ellipse fill="lightblue" stroke="black" cx="150.5" cy="-23.33" rx="23.17" ry="23.17"/>
<text text-anchor="middle" x="150.5" y="-21.13" font-family="Times New Roman,serif" font-size="9.00">right</text>
</g>
<!-- near wall?&#45;&gt;right -->
<g id="edge1" class="edge">
<title>near wall?&#45;&gt;right</title>
<path fill="none" stroke="green" stroke-width="0.72" d="M150.5,-97.59C150.5,-87.7 150.5,-72.15 150.5,-57.93"/>
<polygon fill="green" stroke="green" stroke-width="0.72" points="154,-58.03 150.5,-48.03 147,-58.03 154,-58.03"/>
</g>
<!-- abs x -->
<g id="node4" class="node">
<title>abs x</title>
<polygon fill="lightgray" stroke="black" points="230,-119.83 195,-119.83 195,-97.83 230,-97.83 230,-119.83"/>
<text text-anchor="middle" x="212.5" y="-106.63" font-family="Times New Roman,serif" font-size="9.00">abs x</text>
</g>
<!-- life pos x -->
<g id="node5" class="node">
<title>life pos x</title>
<polygon fill="lightgray" stroke="black" points="298.5,-119.83 248.5,-119.83 248.5,-97.83 298.5,-97.83 298.5,-119.83"/>
<text text-anchor="middle" x="273.5" y="-106.63" font-family="Times New Roman,serif" font-size="9.00">life pos x</text>
</g>
<!-- up -->
<g id="node7" class="node">
<title>up</title>
<ellipse fill="lightblue" stroke="black" cx="273.5" cy="-23.33" rx="18.27" ry="18.27"/>
<text text-anchor="middle" x="273.5" y="-21.13" font-family="Times New Roman,serif" font-size="9.00">up</text>
</g>
<!-- life pos x&#45;&gt;up -->
<g id="edge3" class="edge">
<title>life pos x&#45;&gt;up</title>
<path fill="none" stroke="red" stroke-width="0.45" d="M273.5,-97.59C273.5,-86.45 273.5,-68.15 273.5,-52.62"/>
<polygon fill="red" stroke="red" stroke-width="0.45" points="277,-52.63 273.5,-42.63 270,-52.63 277,-52.63"/>
</g>
<!-- stop -->
<g id="node6" class="node">
<title>stop</title>
<ellipse fill="lightblue" stroke="black" cx="339.5" cy="-108.83" rx="23.17" ry="23.17"/>
<text text-anchor="middle" x="339.5" y="-106.63" font-family="Times New Roman,serif" font-size="9.00">stop</text>
</g>
<!-- down -->
<g id="node8" class="node">
<title>down</title>
<ellipse fill="lightblue" stroke="black" cx="406.5" cy="-108.83" rx="26.33" ry="26.33"/>
<text text-anchor="middle" x="406.5" y="-106.63" font-family="Times New Roman,serif" font-size="9.00">down</text>
</g>
</g>
</svg>
