<?xml version="1.0" encoding="UTF-8" standalone="no"?>
<!DOCTYPE svg PUBLIC "-//W3C//DTD SVG 1.1//EN"
 "http://www.w3.org/Graphics/SVG/1.1/DTD/svg11.dtd">
<!-- Generated by graphviz version 7.1.0 (20230121.1956)
 -->
<!-- Pages: 1 -->
<svg width="746pt" height="143pt"
 viewBox="0.00 0.00 745.66 142.99" xmlns="http://www.w3.org/2000/svg" xmlns:xlink="http://www.w3.org/1999/xlink">
<g id="graph0" class="graph" transform="scale(1 1) rotate(0) translate(4 138.99)">
<polygon fill="white" stroke="none" points="-4,4 -4,-138.99 741.66,-138.99 741.66,4 -4,4"/>
<!-- life pos y -->
<g id="node1" class="node">
<title>life pos y</title>
<polygon fill="lightgray" stroke="black" points="51,-119.83 0,-119.83 0,-97.83 51,-97.83 51,-119.83"/>
<text text-anchor="middle" x="25.5" y="-106.63" font-family="Times New Roman,serif" font-size="9.00">life pos y</text>
</g>
<!-- right -->
<g id="node13" class="node">
<title>right</title>
<ellipse fill="lightblue" stroke="black" cx="230.5" cy="-23.33" rx="23.17" ry="23.17"/>
<text text-anchor="middle" x="230.5" y="-21.13" font-family="Times New Roman,serif" font-size="9.00">right</text>
</g>
<!-- life pos y&#45;&gt;right -->
<g id="edge2" class="edge">
<title>life pos y&#45;&gt;right</title>
<path fill="none" stroke="red" stroke-width="0.34" d="M37.48,-97.54C43.74,-92.55 51.7,-86.76 59.5,-82.67 105.14,-58.74 162.62,-41.5 197.95,-32.22"/>
<polygon fill="red" stroke="red" stroke-width="0.34" points="198.43,-35.71 207.24,-29.83 196.69,-28.93 198.43,-35.71"/>
</g>
<!-- near wall down -->
<g id="node2" class="node">
<title>near wall down</title>
<polygon fill="lightgray" stroke="black" points="140,-119.83 69,-119.83 69,-97.83 140,-97.83 140,-119.83"/>
<text text-anchor="middle" x="104.5" y="-106.63" font-family="Times New Roman,serif" font-size="9.00">near wall down</text>
</g>
<!-- near wall down&#45;&gt;right -->
<g id="edge6" class="edge">
<title>near wall down&#45;&gt;right</title>
<path fill="none" stroke="green" stroke-width="0.18" d="M120.2,-97.43C140.86,-83.74 177.49,-59.46 202.84,-42.66"/>
<polygon fill="green" stroke="green" stroke-width="0.18" points="204.67,-45.65 211.07,-37.21 200.8,-39.82 204.67,-45.65"/>
</g>
<!-- food dist y -->
<g id="node3" class="node">
<title>food dist y</title>
<polygon fill="lightgray" stroke="black" points="461.5,-119.83 405.5,-119.83 405.5,-97.83 461.5,-97.83 461.5,-119.83"/>
<text text-anchor="middle" x="433.5" y="-106.63" font-family="Times New Roman,serif" font-size="9.00">food dist y</text>
</g>
<!-- left -->
<g id="node12" class="node">
<title>left</title>
<ellipse fill="lightblue" stroke="black" cx="433.5" cy="-23.33" rx="20.51" ry="20.51"/>
<text text-anchor="middle" x="433.5" y="-21.13" font-family="Times New Roman,serif" font-size="9.00">left</text>
</g>
<!-- food dist y&#45;&gt;left -->
<g id="edge4" class="edge">
<title>food dist y&#45;&gt;left</title>
<path fill="none" stroke="red" stroke-width="0.59" d="M433.5,-97.59C433.5,-86.94 433.5,-69.74 433.5,-54.69"/>
<polygon fill="red" stroke="red" stroke-width="0.59" points="437,-55.12 433.5,-45.12 430,-55.12 437,-55.12"/>
</g>
<!-- food dist y&#45;&gt;right -->
<g id="edge5" class="edge">
<title>food dist y&#45;&gt;right</title>
<path fill="none" stroke="red" stroke-width="0.2" d="M419.97,-97.38C413.18,-92.47 404.68,-86.8 396.5,-82.67 351.95,-60.18 296.66,-42.63 262.47,-32.88"/>
<polygon fill="red" stroke="red" stroke-width="0.2" points="263.86,-29.64 253.29,-30.31 261.97,-36.38 263.86,-29.64"/>
</g>
<!-- near wall up -->
<g id="node4" class="node">
<title>near wall up</title>
<polygon fill="lightgray" stroke="black" points="219,-119.83 158,-119.83 158,-97.83 219,-97.83 219,-119.83"/>
<text text-anchor="middle" x="188.5" y="-106.63" font-family="Times New Roman,serif" font-size="9.00">near wall up</text>
</g>
<!-- near wall up&#45;&gt;right -->
<g id="edge1" class="edge">
<title>near wall up&#45;&gt;right</title>
<path fill="none" stroke="green" stroke-width="0.3" d="M193.65,-97.59C199.13,-86.7 208.05,-68.97 215.74,-53.68"/>
<polygon fill="green" stroke="green" stroke-width="0.3" points="218.75,-55.47 220.12,-44.97 212.5,-52.33 218.75,-55.47"/>
</g>
<!-- food dist x -->
<g id="node5" class="node">
<title>food dist x</title>
<polygon fill="lightgray" stroke="black" points="535,-119.83 480,-119.83 480,-97.83 535,-97.83 535,-119.83"/>
<text text-anchor="middle" x="507.5" y="-106.63" font-family="Times New Roman,serif" font-size="9.00">food dist x</text>
</g>
<!-- up -->
<g id="node10" class="node">
<title>up</title>
<ellipse fill="lightblue" stroke="black" cx="507.5" cy="-23.33" rx="18.27" ry="18.27"/>
<text text-anchor="middle" x="507.5" y="-21.13" font-family="Times New Roman,serif" font-size="9.00">up</text>
</g>
<!-- food dist x&#45;&gt;up -->
<g id="edge7" class="edge">
<title>food dist x&#45;&gt;up</title>
<path fill="none" stroke="red" stroke-width="0.32" d="M507.5,-97.59C507.5,-86.34 507.5,-67.79 507.5,-52.17"/>
<polygon fill="red" stroke="red" stroke-width="0.32" points="511,-52.43 507.5,-42.43 504,-52.43 511,-52.43"/>
</g>
<!-- near wall right -->
<g id="node6" class="node">
<title>near wall right</title>
<polygon fill="lightgray" stroke="black" points="305.5,-119.83 237.5,-119.83 237.5,-97.83 305.5,-97.83 305.5,-119.83"/>
<text text-anchor="middle" x="271.5" y="-106.63" font-family="Times New Roman,serif" font-size="9.00">near wall right</text>
</g>
<!-- near wall right&#45;&gt;right -->
<g id="edge8" class="edge">
<title>near wall right&#45;&gt;right</title>
<path fill="none" stroke="green" stroke-width="0.47" d="M266.47,-97.59C261.18,-86.81 252.58,-69.31 245.12,-54.12"/>
<polygon fill="green" stroke="green" stroke-width="0.47" points="248.3,-52.63 240.75,-45.2 242.01,-55.72 248.3,-52.63"/>
</g>
<!-- life pos x -->
<g id="node7" class="node">
<title>life pos x</title>
<polygon fill="lightgray" stroke="black" points="603.5,-119.83 553.5,-119.83 553.5,-97.83 603.5,-97.83 603.5,-119.83"/>
<text text-anchor="middle" x="578.5" y="-106.63" font-family="Times New Roman,serif" font-size="9.00">life pos x</text>
</g>
<!-- near wall left -->
<g id="node8" class="node">
<title>near wall left</title>
<polygon fill="lightgray" stroke="black" points="387,-119.83 324,-119.83 324,-97.83 387,-97.83 387,-119.83"/>
<text text-anchor="middle" x="355.5" y="-106.63" font-family="Times New Roman,serif" font-size="9.00">near wall left</text>
</g>
<!-- near wall left&#45;&gt;right -->
<g id="edge3" class="edge">
<title>near wall left&#45;&gt;right</title>
<path fill="none" stroke="red" stroke-width="0.29" d="M339.92,-97.43C319.43,-83.74 283.08,-59.46 257.94,-42.66"/>
<polygon fill="red" stroke="red" stroke-width="0.29" points="260.18,-39.95 249.92,-37.3 256.29,-45.77 260.18,-39.95"/>
</g>
<!-- stop -->
<g id="node9" class="node">
<title>stop</title>
<ellipse fill="lightblue" stroke="black" cx="644.5" cy="-108.83" rx="23.17" ry="23.17"/>
<text text-anchor="middle" x="644.5" y="-106.63" font-family="Times New Roman,serif" font-size="9.00">stop</text>
</g>
<!-- down -->
<g id="node11" class="node">
<title>down</title>
<ellipse fill="lightblue" stroke="black" cx="711.5" cy="-108.83" rx="26.33" ry="26.33"/>
<text text-anchor="middle" x="711.5" y="-106.63" font-family="Times New Roman,serif" font-size="9.00">down</text>
</g>
</g>
</svg>
