<?xml version="1.0" encoding="UTF-8" standalone="no"?>
<!DOCTYPE svg PUBLIC "-//W3C//DTD SVG 1.1//EN"
 "http://www.w3.org/Graphics/SVG/1.1/DTD/svg11.dtd">
<!-- Generated by graphviz version 7.1.0 (20230121.1956)
 -->
<!-- Pages: 1 -->
<svg width="556pt" height="143pt"
 viewBox="0.00 0.00 555.83 142.99" xmlns="http://www.w3.org/2000/svg" xmlns:xlink="http://www.w3.org/1999/xlink">
<g id="graph0" class="graph" transform="scale(1 1) rotate(0) translate(4 138.99)">
<polygon fill="white" stroke="none" points="-4,4 -4,-138.99 551.83,-138.99 551.83,4 -4,4"/>
<!-- life pos y -->
<g id="node1" class="node">
<title>life pos y</title>
<polygon fill="lightgray" stroke="black" points="51,-119.83 0,-119.83 0,-97.83 51,-97.83 51,-119.83"/>
<text text-anchor="middle" x="25.5" y="-106.63" font-family="Times New Roman,serif" font-size="9.00">life pos y</text>
</g>
<!-- stop -->
<g id="node6" class="node">
<title>stop</title>
<ellipse fill="lightblue" stroke="black" cx="25.5" cy="-23.33" rx="23.17" ry="23.17"/>
<text text-anchor="middle" x="25.5" y="-21.13" font-family="Times New Roman,serif" font-size="9.00">stop</text>
</g>
<!-- life pos y&#45;&gt;stop -->
<g id="edge1" class="edge">
<title>life pos y&#45;&gt;stop</title>
<path fill="none" stroke="green" stroke-width="0.22" d="M25.5,-97.59C25.5,-87.5 25.5,-71.54 25.5,-57.08"/>
<polygon fill="green" stroke="green" stroke-width="0.22" points="29,-57.26 25.5,-47.26 22,-57.26 29,-57.26"/>
</g>
<!-- abs y -->
<g id="node2" class="node">
<title>abs y</title>
<polygon fill="lightgray" stroke="black" points="105.5,-119.83 69.5,-119.83 69.5,-97.83 105.5,-97.83 105.5,-119.83"/>
<text text-anchor="middle" x="87.5" y="-106.63" font-family="Times New Roman,serif" font-size="9.00">abs y</text>
</g>
<!-- near wall? -->
<g id="node3" class="node">
<title>near wall?</title>
<polygon fill="lightgray" stroke="black" points="177,-119.83 124,-119.83 124,-97.83 177,-97.83 177,-119.83"/>
<text text-anchor="middle" x="150.5" y="-106.63" font-family="Times New Roman,serif" font-size="9.00">near wall?</text>
</g>
<!-- abs x -->
<g id="node4" class="node">
<title>abs x</title>
<polygon fill="lightgray" stroke="black" points="230,-119.83 195,-119.83 195,-97.83 230,-97.83 230,-119.83"/>
<text text-anchor="middle" x="212.5" y="-106.63" font-family="Times New Roman,serif" font-size="9.00">abs x</text>
</g>
<!-- life pos x -->
<g id="node5" class="node">
<title>life pos x</title>
<polygon fill="lightgray" stroke="black" points="298.5,-119.83 248.5,-119.83 248.5,-97.83 298.5,-97.83 298.5,-119.83"/>
<text text-anchor="middle" x="273.5" y="-106.63" font-family="Times New Roman,serif" font-size="9.00">life pos x</text>
</g>
<!-- up -->
<g id="node7" class="node">
<title>up</title>
<ellipse fill="lightblue" stroke="black" cx="334.5" cy="-108.83" rx="18.27" ry="18.27"/>
<text text-anchor="middle" x="334.5" y="-106.63" font-family="Times New Roman,serif" font-size="9.00">up</text>
</g>
<!-- down -->
<g id="node8" class="node">
<title>down</title>
<ellipse fill="lightblue" stroke="black" cx="397.5" cy="-108.83" rx="26.33" ry="26.33"/>
<text text-anchor="middle" x="397.5" y="-106.63" font-family="Times New Roman,serif" font-size="9.00">down</text>
</g>
<!-- left -->
<g id="node9" class="node">
<title>left</title>
<ellipse fill="lightblue" stroke="black" cx="462.5" cy="-108.83" rx="20.51" ry="20.51"/>
<text text-anchor="middle" x="462.5" y="-106.63" font-family="Times New Roman,serif" font-size="9.00">left</text>
</g>
<!-- right -->
<g id="node10" class="node">
<title>right</title>
<ellipse fill="lightblue" stroke="black" cx="524.5" cy="-108.83" rx="23.17" ry="23.17"/>
<text text-anchor="middle" x="524.5" y="-106.63" font-family="Times New Roman,serif" font-size="9.00">right</text>
</g>
</g>
</svg>
