<?xml version="1.0" encoding="UTF-8" standalone="no"?>
<!DOCTYPE svg PUBLIC "-//W3C//DTD SVG 1.1//EN"
 "http://www.w3.org/Graphics/SVG/1.1/DTD/svg11.dtd">
<!-- Generated by graphviz version 7.1.0 (20230121.1956)
 -->
<!-- Pages: 1 -->
<svg width="493pt" height="143pt"
 viewBox="0.00 0.00 492.66 142.99" xmlns="http://www.w3.org/2000/svg" xmlns:xlink="http://www.w3.org/1999/xlink">
<g id="graph0" class="graph" transform="scale(1 1) rotate(0) translate(4 138.99)">
<polygon fill="white" stroke="none" points="-4,4 -4,-138.99 488.66,-138.99 488.66,4 -4,4"/>
<!-- life pos y -->
<g id="node1" class="node">
<title>life pos y</title>
<polygon fill="lightgray" stroke="black" points="51,-119.83 0,-119.83 0,-97.83 51,-97.83 51,-119.83"/>
<text text-anchor="middle" x="25.5" y="-106.63" font-family="Times New Roman,serif" font-size="9.00">life pos y</text>
</g>
<!-- near wall down -->
<g id="node2" class="node">
<title>near wall down</title>
<polygon fill="lightgray" stroke="black" points="140,-119.83 69,-119.83 69,-97.83 140,-97.83 140,-119.83"/>
<text text-anchor="middle" x="104.5" y="-106.63" font-family="Times New Roman,serif" font-size="9.00">near wall down</text>
</g>
<!-- left -->
<g id="node8" class="node">
<title>left</title>
<ellipse fill="lightblue" stroke="black" cx="104.5" cy="-23.33" rx="20.51" ry="20.51"/>
<text text-anchor="middle" x="104.5" y="-21.13" font-family="Times New Roman,serif" font-size="9.00">left</text>
</g>
<!-- near wall down&#45;&gt;left -->
<g id="edge1" class="edge">
<title>near wall down&#45;&gt;left</title>
<path fill="none" stroke="green" stroke-width="0.34" d="M104.5,-97.59C104.5,-86.94 104.5,-69.74 104.5,-54.69"/>
<polygon fill="green" stroke="green" stroke-width="0.34" points="108,-54.75 104.5,-44.75 101,-54.75 108,-54.75"/>
</g>
<!-- food dist y -->
<g id="node3" class="node">
<title>food dist y</title>
<polygon fill="lightgray" stroke="black" points="214.5,-119.83 158.5,-119.83 158.5,-97.83 214.5,-97.83 214.5,-119.83"/>
<text text-anchor="middle" x="186.5" y="-106.63" font-family="Times New Roman,serif" font-size="9.00">food dist y</text>
</g>
<!-- right -->
<g id="node9" class="node">
<title>right</title>
<ellipse fill="lightblue" stroke="black" cx="186.5" cy="-23.33" rx="23.17" ry="23.17"/>
<text text-anchor="middle" x="186.5" y="-21.13" font-family="Times New Roman,serif" font-size="9.00">right</text>
</g>
<!-- food dist y&#45;&gt;right -->
<g id="edge3" class="edge">
<title>food dist y&#45;&gt;right</title>
<path fill="none" stroke="red" stroke-width="0.36" d="M186.5,-97.59C186.5,-87.5 186.5,-71.54 186.5,-57.08"/>
<polygon fill="red" stroke="red" stroke-width="0.36" points="190,-57.47 186.5,-47.47 183,-57.47 190,-57.47"/>
</g>
<!-- near wall up -->
<g id="node4" class="node">
<title>near wall up</title>
<polygon fill="lightgray" stroke="black" points="294,-119.83 233,-119.83 233,-97.83 294,-97.83 294,-119.83"/>
<text text-anchor="middle" x="263.5" y="-106.63" font-family="Times New Roman,serif" font-size="9.00">near wall up</text>
</g>
<!-- stop -->
<g id="node5" class="node">
<title>stop</title>
<ellipse fill="lightblue" stroke="black" cx="335.5" cy="-108.83" rx="23.17" ry="23.17"/>
<text text-anchor="middle" x="335.5" y="-106.63" font-family="Times New Roman,serif" font-size="9.00">stop</text>
</g>
<!-- up -->
<g id="node6" class="node">
<title>up</title>
<ellipse fill="lightblue" stroke="black" cx="395.5" cy="-108.83" rx="18.27" ry="18.27"/>
<text text-anchor="middle" x="395.5" y="-106.63" font-family="Times New Roman,serif" font-size="9.00">up</text>
</g>
<!-- 18 -->
<g id="node10" class="node">
<title>18</title>
<ellipse fill="white" stroke="black" cx="395.5" cy="-23.33" rx="18.27" ry="18.27"/>
<text text-anchor="middle" x="395.5" y="-21.13" font-family="Times New Roman,serif" font-size="9.00">18</text>
</g>
<!-- up&#45;&gt;18 -->
<g id="edge2" class="edge">
<title>up&#45;&gt;18</title>
<path fill="none" stroke="green" stroke-width="0.12" d="M395.5,-90.12C395.5,-79.05 395.5,-64.56 395.5,-52"/>
<polygon fill="green" stroke="green" stroke-width="0.12" points="399,-52.2 395.5,-42.2 392,-52.2 399,-52.2"/>
</g>
<!-- down -->
<g id="node7" class="node">
<title>down</title>
<ellipse fill="lightblue" stroke="black" cx="458.5" cy="-108.83" rx="26.33" ry="26.33"/>
<text text-anchor="middle" x="458.5" y="-106.63" font-family="Times New Roman,serif" font-size="9.00">down</text>
</g>
</g>
</svg>
