<?xml version="1.0" encoding="UTF-8" standalone="no"?>
<!DOCTYPE svg PUBLIC "-//W3C//DTD SVG 1.1//EN"
 "http://www.w3.org/Graphics/SVG/1.1/DTD/svg11.dtd">
<!-- Generated by graphviz version 7.1.0 (20230121.1956)
 -->
<!-- Pages: 1 -->
<svg width="561pt" height="137pt"
 viewBox="0.00 0.00 560.83 137.34" xmlns="http://www.w3.org/2000/svg" xmlns:xlink="http://www.w3.org/1999/xlink">
<g id="graph0" class="graph" transform="scale(1 1) rotate(0) translate(4 133.34)">
<polygon fill="white" stroke="none" points="-4,4 -4,-133.34 556.83,-133.34 556.83,4 -4,4"/>
<!-- life pos y -->
<g id="node1" class="node">
<title>life pos y</title>
<polygon fill="lightgray" stroke="black" points="51,-114.18 0,-114.18 0,-92.18 51,-92.18 51,-114.18"/>
<text text-anchor="middle" x="25.5" y="-100.98" font-family="Times New Roman,serif" font-size="9.00">life pos y</text>
</g>
<!-- left -->
<g id="node9" class="node">
<title>left</title>
<ellipse fill="lightblue" stroke="black" cx="25.5" cy="-20.51" rx="20.51" ry="20.51"/>
<text text-anchor="middle" x="25.5" y="-18.31" font-family="Times New Roman,serif" font-size="9.00">left</text>
</g>
<!-- life pos y&#45;&gt;left -->
<g id="edge1" class="edge">
<title>life pos y&#45;&gt;left</title>
<path fill="none" stroke="green" stroke-width="0.17" d="M25.5,-91.96C25.5,-81.72 25.5,-65.48 25.5,-51.16"/>
<polygon fill="green" stroke="green" stroke-width="0.17" points="29,-51.46 25.5,-41.46 22,-51.46 29,-51.46"/>
</g>
<!-- abs y -->
<g id="node2" class="node">
<title>abs y</title>
<polygon fill="lightgray" stroke="black" points="105.5,-114.18 69.5,-114.18 69.5,-92.18 105.5,-92.18 105.5,-114.18"/>
<text text-anchor="middle" x="87.5" y="-100.98" font-family="Times New Roman,serif" font-size="9.00">abs y</text>
</g>
<!-- near wall? -->
<g id="node3" class="node">
<title>near wall?</title>
<polygon fill="lightgray" stroke="black" points="177,-114.18 124,-114.18 124,-92.18 177,-92.18 177,-114.18"/>
<text text-anchor="middle" x="150.5" y="-100.98" font-family="Times New Roman,serif" font-size="9.00">near wall?</text>
</g>
<!-- abs x -->
<g id="node4" class="node">
<title>abs x</title>
<polygon fill="lightgray" stroke="black" points="230,-114.18 195,-114.18 195,-92.18 230,-92.18 230,-114.18"/>
<text text-anchor="middle" x="212.5" y="-100.98" font-family="Times New Roman,serif" font-size="9.00">abs x</text>
</g>
<!-- life pos x -->
<g id="node5" class="node">
<title>life pos x</title>
<polygon fill="lightgray" stroke="black" points="298.5,-114.18 248.5,-114.18 248.5,-92.18 298.5,-92.18 298.5,-114.18"/>
<text text-anchor="middle" x="273.5" y="-100.98" font-family="Times New Roman,serif" font-size="9.00">life pos x</text>
</g>
<!-- stop -->
<g id="node6" class="node">
<title>stop</title>
<ellipse fill="lightblue" stroke="black" cx="339.5" cy="-103.18" rx="23.17" ry="23.17"/>
<text text-anchor="middle" x="339.5" y="-100.98" font-family="Times New Roman,serif" font-size="9.00">stop</text>
</g>
<!-- up -->
<g id="node7" class="node">
<title>up</title>
<ellipse fill="lightblue" stroke="black" cx="399.5" cy="-103.18" rx="18.27" ry="18.27"/>
<text text-anchor="middle" x="399.5" y="-100.98" font-family="Times New Roman,serif" font-size="9.00">up</text>
</g>
<!-- down -->
<g id="node8" class="node">
<title>down</title>
<ellipse fill="lightblue" stroke="black" cx="462.5" cy="-103.18" rx="26.33" ry="26.33"/>
<text text-anchor="middle" x="462.5" y="-100.98" font-family="Times New Roman,serif" font-size="9.00">down</text>
</g>
<!-- right -->
<g id="node10" class="node">
<title>right</title>
<ellipse fill="lightblue" stroke="black" cx="529.5" cy="-103.18" rx="23.17" ry="23.17"/>
<text text-anchor="middle" x="529.5" y="-100.98" font-family="Times New Roman,serif" font-size="9.00">right</text>
</g>
</g>
</svg>
