<?xml version="1.0" encoding="UTF-8" standalone="no"?>
<!DOCTYPE svg PUBLIC "-//W3C//DTD SVG 1.1//EN"
 "http://www.w3.org/Graphics/SVG/1.1/DTD/svg11.dtd">
<!-- Generated by graphviz version 7.1.0 (20230121.1956)
 -->
<!-- Pages: 1 -->
<svg width="575pt" height="279pt"
 viewBox="0.00 0.00 575.00 279.42" xmlns="http://www.w3.org/2000/svg" xmlns:xlink="http://www.w3.org/1999/xlink">
<g id="graph0" class="graph" transform="scale(1 1) rotate(0) translate(4 275.42)">
<polygon fill="white" stroke="none" points="-4,4 -4,-275.42 571,-275.42 571,4 -4,4"/>
<!-- life pos y -->
<g id="node1" class="node">
<title>life pos y</title>
<polygon fill="lightgray" stroke="black" points="51,-271.42 0,-271.42 0,-249.42 51,-249.42 51,-271.42"/>
<text text-anchor="middle" x="25.5" y="-258.22" font-family="Times New Roman,serif" font-size="9.00">life pos y</text>
</g>
<!-- near wall down -->
<g id="node2" class="node">
<title>near wall down</title>
<polygon fill="lightgray" stroke="black" points="140,-271.42 69,-271.42 69,-249.42 140,-249.42 140,-271.42"/>
<text text-anchor="middle" x="104.5" y="-258.22" font-family="Times New Roman,serif" font-size="9.00">near wall down</text>
</g>
<!-- down -->
<g id="node11" class="node">
<title>down</title>
<ellipse fill="lightblue" stroke="black" cx="110.5" cy="-187.26" rx="26.33" ry="26.33"/>
<text text-anchor="middle" x="110.5" y="-185.06" font-family="Times New Roman,serif" font-size="9.00">down</text>
</g>
<!-- near wall down&#45;&gt;down -->
<g id="edge3" class="edge">
<title>near wall down&#45;&gt;down</title>
<path fill="none" stroke="red" stroke-width="0.19" d="M105.36,-249.23C105.93,-242.45 106.72,-233.12 107.5,-223.79"/>
<polygon fill="red" stroke="red" stroke-width="0.19" points="110.97,-224.33 108.32,-214.07 104,-223.74 110.97,-224.33"/>
</g>
<!-- food dist y -->
<g id="node3" class="node">
<title>food dist y</title>
<polygon fill="lightgray" stroke="black" points="338.5,-271.42 282.5,-271.42 282.5,-249.42 338.5,-249.42 338.5,-271.42"/>
<text text-anchor="middle" x="310.5" y="-258.22" font-family="Times New Roman,serif" font-size="9.00">food dist y</text>
</g>
<!-- stop -->
<g id="node9" class="node">
<title>stop</title>
<ellipse fill="lightblue" stroke="black" cx="183.5" cy="-187.26" rx="23.17" ry="23.17"/>
<text text-anchor="middle" x="183.5" y="-185.06" font-family="Times New Roman,serif" font-size="9.00">stop</text>
</g>
<!-- food dist y&#45;&gt;stop -->
<g id="edge9" class="edge">
<title>food dist y&#45;&gt;stop</title>
<path fill="none" stroke="red" stroke-width="0.21" stroke-dasharray="1,5" d="M288.26,-249.02C269.79,-240.15 242.99,-226.75 220.5,-213.42 217.23,-211.49 213.87,-209.37 210.55,-207.22"/>
<polygon fill="red" stroke="red" stroke-width="0.21" points="212.56,-204.35 202.3,-201.7 208.67,-210.17 212.56,-204.35"/>
</g>
<!-- up -->
<g id="node10" class="node">
<title>up</title>
<ellipse fill="lightblue" stroke="black" cx="218.5" cy="-103.88" rx="18.27" ry="18.27"/>
<text text-anchor="middle" x="218.5" y="-101.68" font-family="Times New Roman,serif" font-size="9.00">up</text>
</g>
<!-- food dist y&#45;&gt;up -->
<g id="edge1" class="edge">
<title>food dist y&#45;&gt;up</title>
<path fill="none" stroke="green" stroke-width="0.66" d="M292.74,-249.03C280.14,-240.83 263.72,-228.31 253.5,-213.42 236.74,-189.02 227.62,-156.09 222.93,-132.92"/>
<polygon fill="green" stroke="green" stroke-width="0.66" points="226.43,-132.59 221.15,-123.4 219.55,-133.88 226.43,-132.59"/>
</g>
<!-- 72 -->
<g id="node14" class="node">
<title>72</title>
<ellipse fill="white" stroke="black" cx="419.5" cy="-103.88" rx="18.27" ry="18.27"/>
<text text-anchor="middle" x="419.5" y="-101.68" font-family="Times New Roman,serif" font-size="9.00">72</text>
</g>
<!-- food dist y&#45;&gt;72 -->
<g id="edge10" class="edge">
<title>food dist y&#45;&gt;72</title>
<path fill="none" stroke="red" stroke-width="0.43" stroke-dasharray="1,5" d="M338.73,-251.05C357.6,-244 381.46,-232.04 395.5,-213.42 413.06,-190.14 418.25,-156.54 419.56,-132.91"/>
<polygon fill="red" stroke="red" stroke-width="0.43" points="423.05,-133.27 419.9,-123.15 416.05,-133.02 423.05,-133.27"/>
</g>
<!-- 316 -->
<g id="node16" class="node">
<title>316</title>
<ellipse fill="white" stroke="black" cx="365.5" cy="-187.26" rx="21.43" ry="21.43"/>
<text text-anchor="middle" x="365.5" y="-185.06" font-family="Times New Roman,serif" font-size="9.00">316</text>
</g>
<!-- food dist y&#45;&gt;316 -->
<g id="edge11" class="edge">
<title>food dist y&#45;&gt;316</title>
<path fill="none" stroke="green" stroke-width="0.51" d="M318.38,-249.23C325.67,-239.8 336.79,-225.4 346.4,-212.97"/>
<polygon fill="green" stroke="green" stroke-width="0.51" points="348.93,-215.42 352.27,-205.37 343.39,-211.14 348.93,-215.42"/>
</g>
<!-- near wall up -->
<g id="node4" class="node">
<title>near wall up</title>
<polygon fill="lightgray" stroke="black" points="494,-271.42 433,-271.42 433,-249.42 494,-249.42 494,-271.42"/>
<text text-anchor="middle" x="463.5" y="-258.22" font-family="Times New Roman,serif" font-size="9.00">near wall up</text>
</g>
<!-- left -->
<g id="node12" class="node">
<title>left</title>
<ellipse fill="lightblue" stroke="black" cx="463.5" cy="-187.26" rx="20.51" ry="20.51"/>
<text text-anchor="middle" x="463.5" y="-185.06" font-family="Times New Roman,serif" font-size="9.00">left</text>
</g>
<!-- near wall up&#45;&gt;left -->
<g id="edge2" class="edge">
<title>near wall up&#45;&gt;left</title>
<path fill="none" stroke="green" stroke-width="1.26" d="M463.5,-249.23C463.5,-241.46 463.5,-230.34 463.5,-219.71"/>
<polygon fill="green" stroke="green" stroke-width="1.26" points="467,-220.04 463.5,-210.04 460,-220.04 467,-220.04"/>
</g>
<!-- food dist x -->
<g id="node5" class="node">
<title>food dist x</title>
<polygon fill="lightgray" stroke="black" points="567,-271.42 512,-271.42 512,-249.42 567,-249.42 567,-271.42"/>
<text text-anchor="middle" x="539.5" y="-258.22" font-family="Times New Roman,serif" font-size="9.00">food dist x</text>
</g>
<!-- near wall right -->
<g id="node6" class="node">
<title>near wall right</title>
<polygon fill="lightgray" stroke="black" points="322.5,-114.88 254.5,-114.88 254.5,-92.88 322.5,-92.88 322.5,-114.88"/>
<text text-anchor="middle" x="288.5" y="-101.68" font-family="Times New Roman,serif" font-size="9.00">near wall right</text>
</g>
<!-- right -->
<g id="node13" class="node">
<title>right</title>
<ellipse fill="lightblue" stroke="black" cx="353.5" cy="-23.33" rx="23.17" ry="23.17"/>
<text text-anchor="middle" x="353.5" y="-21.13" font-family="Times New Roman,serif" font-size="9.00">right</text>
</g>
<!-- near wall right&#45;&gt;right -->
<g id="edge5" class="edge">
<title>near wall right&#45;&gt;right</title>
<path fill="none" stroke="red" stroke-width="0.69" stroke-dasharray="1,5" d="M297,-92.61C305.92,-81.84 320.28,-64.48 332.29,-49.96"/>
<polygon fill="red" stroke="red" stroke-width="0.69" points="334.69,-52.55 338.37,-42.62 329.3,-48.09 334.69,-52.55"/>
</g>
<!-- life pos x -->
<g id="node7" class="node">
<title>life pos x</title>
<polygon fill="lightgray" stroke="black" points="208.5,-271.42 158.5,-271.42 158.5,-249.42 208.5,-249.42 208.5,-271.42"/>
<text text-anchor="middle" x="183.5" y="-258.22" font-family="Times New Roman,serif" font-size="9.00">life pos x</text>
</g>
<!-- life pos x&#45;&gt;stop -->
<g id="edge8" class="edge">
<title>life pos x&#45;&gt;stop</title>
<path fill="none" stroke="green" stroke-width="0.29" d="M183.5,-249.23C183.5,-241.81 183.5,-231.32 183.5,-221.13"/>
<polygon fill="green" stroke="green" stroke-width="0.29" points="187,-221.21 183.5,-211.21 180,-221.21 187,-221.21"/>
</g>
<!-- life pos x&#45;&gt;down -->
<g id="edge6" class="edge">
<title>life pos x&#45;&gt;down</title>
<path fill="none" stroke="green" stroke-width="0.37" stroke-dasharray="1,5" d="M173.04,-249.23C163.57,-240 149.23,-226.01 136.66,-213.76"/>
<polygon fill="green" stroke="green" stroke-width="0.37" points="139.13,-211.28 129.53,-206.81 134.24,-216.29 139.13,-211.28"/>
</g>
<!-- near wall left -->
<g id="node8" class="node">
<title>near wall left</title>
<polygon fill="lightgray" stroke="black" points="326,-198.26 263,-198.26 263,-176.26 326,-176.26 326,-198.26"/>
<text text-anchor="middle" x="294.5" y="-185.06" font-family="Times New Roman,serif" font-size="9.00">near wall left</text>
</g>
<!-- near wall left&#45;&gt;up -->
<g id="edge4" class="edge">
<title>near wall left&#45;&gt;up</title>
<path fill="none" stroke="red" stroke-width="0.45" stroke-dasharray="1,5" d="M284.87,-175.95C273,-163.24 252.53,-141.32 237.45,-125.18"/>
<polygon fill="red" stroke="red" stroke-width="0.45" points="240.39,-123.2 231.01,-118.28 235.28,-127.97 240.39,-123.2"/>
</g>
<!-- near wall left&#45;&gt;72 -->
<g id="edge16" class="edge">
<title>near wall left&#45;&gt;72</title>
<path fill="none" stroke="green" stroke-width="0.43" d="M311.14,-175.94C334.73,-161.29 376.65,-135.12 391.5,-125.1 393.18,-123.96 394.9,-122.78 396.62,-121.57"/>
<polygon fill="green" stroke="green" stroke-width="0.43" points="398.45,-124.57 404.57,-115.92 394.39,-118.87 398.45,-124.57"/>
</g>
<!-- 367 -->
<g id="node15" class="node">
<title>367</title>
<ellipse fill="white" stroke="black" cx="361.5" cy="-103.88" rx="21.43" ry="21.43"/>
<text text-anchor="middle" x="361.5" y="-101.68" font-family="Times New Roman,serif" font-size="9.00">367</text>
</g>
<!-- near wall left&#45;&gt;367 -->
<g id="edge15" class="edge">
<title>near wall left&#45;&gt;367</title>
<path fill="none" stroke="green" stroke-width="0.19" d="M302.99,-175.95C312.7,-164.15 328.94,-144.43 341.85,-128.75"/>
<polygon fill="green" stroke="green" stroke-width="0.19" points="344.41,-131.15 348.06,-121.21 339,-126.7 344.41,-131.15"/>
</g>
<!-- left&#45;&gt;72 -->
<g id="edge13" class="edge">
<title>left&#45;&gt;72</title>
<path fill="none" stroke="red" stroke-width="0.11" d="M453.95,-168.6C447.73,-157.09 439.52,-141.91 432.68,-129.26"/>
<polygon fill="red" stroke="red" stroke-width="0.11" points="435.9,-127.86 428.07,-120.73 429.75,-131.19 435.9,-127.86"/>
</g>
<!-- 72&#45;&gt;right -->
<g id="edge7" class="edge">
<title>72&#45;&gt;right</title>
<path fill="none" stroke="green" stroke-width="0.19" d="M408,-89.2C398.83,-78.28 385.72,-62.69 374.66,-49.52"/>
<polygon fill="green" stroke="green" stroke-width="0.19" points="377.4,-47.33 368.28,-41.93 372.04,-51.84 377.4,-47.33"/>
</g>
<!-- 316&#45;&gt;72 -->
<g id="edge12" class="edge">
<title>316&#45;&gt;72</title>
<path fill="none" stroke="green" stroke-width="0.2" d="M376.95,-169C384.85,-157.1 395.44,-141.14 404.08,-128.12"/>
<polygon fill="green" stroke="green" stroke-width="0.2" points="406.91,-130.18 409.53,-119.91 401.08,-126.31 406.91,-130.18"/>
</g>
<!-- 316&#45;&gt;367 -->
<g id="edge14" class="edge">
<title>316&#45;&gt;367</title>
<path fill="none" stroke="green" stroke-width="0.39" d="M364.49,-165.72C364.05,-156.73 363.52,-145.99 363.03,-136.05"/>
<polygon fill="green" stroke="green" stroke-width="0.39" points="366.54,-136.1 362.55,-126.28 359.55,-136.44 366.54,-136.1"/>
</g>
</g>
</svg>
