<?xml version="1.0" encoding="UTF-8" standalone="no"?>
<!DOCTYPE svg PUBLIC "-//W3C//DTD SVG 1.1//EN"
 "http://www.w3.org/Graphics/SVG/1.1/DTD/svg11.dtd">
<!-- Generated by graphviz version 7.1.0 (20230121.1956)
 -->
<!-- Pages: 1 -->
<svg width="681pt" height="143pt"
 viewBox="0.00 0.00 681.16 142.99" xmlns="http://www.w3.org/2000/svg" xmlns:xlink="http://www.w3.org/1999/xlink">
<g id="graph0" class="graph" transform="scale(1 1) rotate(0) translate(4 138.99)">
<polygon fill="white" stroke="none" points="-4,4 -4,-138.99 677.16,-138.99 677.16,4 -4,4"/>
<!-- life pos y -->
<g id="node1" class="node">
<title>life pos y</title>
<polygon fill="lightgray" stroke="black" points="218.5,-119.83 167.5,-119.83 167.5,-97.83 218.5,-97.83 218.5,-119.83"/>
<text text-anchor="middle" x="193" y="-106.63" font-family="Times New Roman,serif" font-size="9.00">life pos y</text>
</g>
<!-- right -->
<g id="node13" class="node">
<title>right</title>
<ellipse fill="lightblue" stroke="black" cx="230" cy="-23.33" rx="23.17" ry="23.17"/>
<text text-anchor="middle" x="230" y="-21.13" font-family="Times New Roman,serif" font-size="9.00">right</text>
</g>
<!-- life pos y&#45;&gt;right -->
<g id="edge2" class="edge">
<title>life pos y&#45;&gt;right</title>
<path fill="none" stroke="green" stroke-width="0.23" d="M197.54,-97.59C202.33,-86.77 210.12,-69.21 216.86,-53.99"/>
<polygon fill="green" stroke="green" stroke-width="0.23" points="219.9,-55.77 220.75,-45.21 213.5,-52.93 219.9,-55.77"/>
</g>
<!-- near wall down -->
<g id="node2" class="node">
<title>near wall down</title>
<polygon fill="lightgray" stroke="black" points="386.5,-119.83 315.5,-119.83 315.5,-97.83 386.5,-97.83 386.5,-119.83"/>
<text text-anchor="middle" x="351" y="-106.63" font-family="Times New Roman,serif" font-size="9.00">near wall down</text>
</g>
<!-- left -->
<g id="node12" class="node">
<title>left</title>
<ellipse fill="lightblue" stroke="black" cx="361" cy="-23.33" rx="20.51" ry="20.51"/>
<text text-anchor="middle" x="361" y="-21.13" font-family="Times New Roman,serif" font-size="9.00">left</text>
</g>
<!-- near wall down&#45;&gt;left -->
<g id="edge10" class="edge">
<title>near wall down&#45;&gt;left</title>
<path fill="none" stroke="red" stroke-width="0.36" d="M352.23,-97.59C353.52,-86.77 355.63,-69.18 357.45,-53.95"/>
<polygon fill="red" stroke="red" stroke-width="0.36" points="360.88,-54.78 358.59,-44.44 353.93,-53.95 360.88,-54.78"/>
</g>
<!-- near wall down&#45;&gt;right -->
<g id="edge6" class="edge">
<title>near wall down&#45;&gt;right</title>
<path fill="none" stroke="red" stroke-width="0.28" d="M336.16,-97.59C316.6,-84.1 281.82,-60.09 257.41,-43.25"/>
<polygon fill="red" stroke="red" stroke-width="0.28" points="259.5,-40.44 249.28,-37.64 255.53,-46.2 259.5,-40.44"/>
</g>
<!-- food dist y -->
<g id="node3" class="node">
<title>food dist y</title>
<polygon fill="lightgray" stroke="black" points="461,-119.83 405,-119.83 405,-97.83 461,-97.83 461,-119.83"/>
<text text-anchor="middle" x="433" y="-106.63" font-family="Times New Roman,serif" font-size="9.00">food dist y</text>
</g>
<!-- stop -->
<g id="node9" class="node">
<title>stop</title>
<ellipse fill="lightblue" stroke="black" cx="433" cy="-23.33" rx="23.17" ry="23.17"/>
<text text-anchor="middle" x="433" y="-21.13" font-family="Times New Roman,serif" font-size="9.00">stop</text>
</g>
<!-- food dist y&#45;&gt;stop -->
<g id="edge9" class="edge">
<title>food dist y&#45;&gt;stop</title>
<path fill="none" stroke="green" stroke-width="0.11" d="M433,-97.59C433,-87.5 433,-71.54 433,-57.08"/>
<polygon fill="green" stroke="green" stroke-width="0.11" points="436.5,-57.1 433,-47.1 429.5,-57.1 436.5,-57.1"/>
</g>
<!-- food dist y&#45;&gt;left -->
<g id="edge4" class="edge">
<title>food dist y&#45;&gt;left</title>
<path fill="none" stroke="red" stroke-width="0.5" d="M424.17,-97.59C413.49,-85.21 395.18,-63.98 381.02,-47.55"/>
<polygon fill="red" stroke="red" stroke-width="0.5" points="383.73,-45.33 374.55,-40.04 378.43,-49.9 383.73,-45.33"/>
</g>
<!-- food dist y&#45;&gt;right -->
<g id="edge5" class="edge">
<title>food dist y&#45;&gt;right</title>
<path fill="none" stroke="red" stroke-width="0.14" d="M419.47,-97.38C412.68,-92.47 404.18,-86.8 396,-82.67 351.45,-60.18 296.16,-42.63 261.97,-32.88"/>
<polygon fill="red" stroke="red" stroke-width="0.14" points="263.27,-29.61 252.7,-30.28 261.38,-36.35 263.27,-29.61"/>
</g>
<!-- near wall up -->
<g id="node4" class="node">
<title>near wall up</title>
<polygon fill="lightgray" stroke="black" points="297.5,-119.83 236.5,-119.83 236.5,-97.83 297.5,-97.83 297.5,-119.83"/>
<text text-anchor="middle" x="267" y="-106.63" font-family="Times New Roman,serif" font-size="9.00">near wall up</text>
</g>
<!-- near wall up&#45;&gt;right -->
<g id="edge1" class="edge">
<title>near wall up&#45;&gt;right</title>
<path fill="none" stroke="green" stroke-width="0.16" stroke-dasharray="1,5" d="M262.46,-97.59C257.67,-86.77 249.88,-69.21 243.14,-53.99"/>
<polygon fill="green" stroke="green" stroke-width="0.16" points="246.46,-52.83 239.21,-45.11 240.06,-55.67 246.46,-52.83"/>
</g>
<!-- food dist x -->
<g id="node5" class="node">
<title>food dist x</title>
<polygon fill="lightgray" stroke="black" points="534.5,-119.83 479.5,-119.83 479.5,-97.83 534.5,-97.83 534.5,-119.83"/>
<text text-anchor="middle" x="507" y="-106.63" font-family="Times New Roman,serif" font-size="9.00">food dist x</text>
</g>
<!-- up -->
<g id="node10" class="node">
<title>up</title>
<ellipse fill="lightblue" stroke="black" cx="507" cy="-23.33" rx="18.27" ry="18.27"/>
<text text-anchor="middle" x="507" y="-21.13" font-family="Times New Roman,serif" font-size="9.00">up</text>
</g>
<!-- food dist x&#45;&gt;up -->
<g id="edge7" class="edge">
<title>food dist x&#45;&gt;up</title>
<path fill="none" stroke="red" stroke-width="0.13" d="M507,-97.59C507,-86.23 507,-67.43 507,-51.72"/>
<polygon fill="red" stroke="red" stroke-width="0.13" points="510.5,-52.15 507,-42.15 503.5,-52.15 510.5,-52.15"/>
</g>
<!-- near wall right -->
<g id="node6" class="node">
<title>near wall right</title>
<polygon fill="lightgray" stroke="black" points="68,-119.83 0,-119.83 0,-97.83 68,-97.83 68,-119.83"/>
<text text-anchor="middle" x="34" y="-106.63" font-family="Times New Roman,serif" font-size="9.00">near wall right</text>
</g>
<!-- near wall right&#45;&gt;right -->
<g id="edge8" class="edge">
<title>near wall right&#45;&gt;right</title>
<path fill="none" stroke="green" stroke-width="0.33" d="M50.4,-97.38C58.27,-92.58 67.95,-87 77,-82.67 117.65,-63.19 166.65,-45.46 198.05,-34.79"/>
<polygon fill="green" stroke="green" stroke-width="0.33" points="199.15,-38.11 207.52,-31.6 196.92,-31.47 199.15,-38.11"/>
</g>
<!-- life pos x -->
<g id="node7" class="node">
<title>life pos x</title>
<polygon fill="lightgray" stroke="black" points="603,-119.83 553,-119.83 553,-97.83 603,-97.83 603,-119.83"/>
<text text-anchor="middle" x="578" y="-106.63" font-family="Times New Roman,serif" font-size="9.00">life pos x</text>
</g>
<!-- near wall left -->
<g id="node8" class="node">
<title>near wall left</title>
<polygon fill="lightgray" stroke="black" points="149.5,-119.83 86.5,-119.83 86.5,-97.83 149.5,-97.83 149.5,-119.83"/>
<text text-anchor="middle" x="118" y="-106.63" font-family="Times New Roman,serif" font-size="9.00">near wall left</text>
</g>
<!-- near wall left&#45;&gt;right -->
<g id="edge3" class="edge">
<title>near wall left&#45;&gt;right</title>
<path fill="none" stroke="red" stroke-width="0.15" d="M131.73,-97.59C149.55,-84.31 181.02,-60.85 203.54,-44.06"/>
<polygon fill="red" stroke="red" stroke-width="0.15" points="205.58,-46.9 211.51,-38.12 201.4,-41.29 205.58,-46.9"/>
</g>
<!-- down -->
<g id="node11" class="node">
<title>down</title>
<ellipse fill="lightblue" stroke="black" cx="647" cy="-108.83" rx="26.33" ry="26.33"/>
<text text-anchor="middle" x="647" y="-106.63" font-family="Times New Roman,serif" font-size="9.00">down</text>
</g>
</g>
</svg>
