<?xml version="1.0" encoding="UTF-8" standalone="no"?>
<!DOCTYPE svg PUBLIC "-//W3C//DTD SVG 1.1//EN"
 "http://www.w3.org/Graphics/SVG/1.1/DTD/svg11.dtd">
<!-- Generated by graphviz version 7.1.0 (20230121.1956)
 -->
<!-- Pages: 1 -->
<svg width="745pt" height="114pt"
 viewBox="0.00 0.00 745.00 114.33" xmlns="http://www.w3.org/2000/svg" xmlns:xlink="http://www.w3.org/1999/xlink">
<g id="graph0" class="graph" transform="scale(1 1) rotate(0) translate(4 110.33)">
<polygon fill="white" stroke="none" points="-4,4 -4,-110.33 741,-110.33 741,4 -4,4"/>
<!-- is food up -->
<g id="node1" class="node">
<title>is food up</title>
<polygon fill="lightgray" stroke="black" points="204.5,-106.33 151.5,-106.33 151.5,-88.33 204.5,-88.33 204.5,-106.33"/>
<text text-anchor="middle" x="178" y="-95.13" font-family="Times New Roman,serif" font-size="9.00">is food up</text>
</g>
<!-- up -->
<g id="node12" class="node">
<title>up</title>
<ellipse fill="lightblue" stroke="black" cx="339" cy="-26.16" rx="18.27" ry="18.27"/>
<text text-anchor="middle" x="339" y="-23.96" font-family="Times New Roman,serif" font-size="9.00">up</text>
</g>
<!-- is food up&#45;&gt;up -->
<g id="edge10" class="edge">
<title>is food up&#45;&gt;up</title>
<path fill="none" stroke="green" stroke-width="0.17" d="M197.74,-87.85C226.81,-75.36 281.15,-52.01 313.3,-38.2"/>
<polygon fill="green" stroke="green" stroke-width="0.17" points="314.47,-41.51 322.27,-34.35 311.7,-35.08 314.47,-41.51"/>
</g>
<!-- down -->
<g id="node13" class="node">
<title>down</title>
<ellipse fill="lightblue" stroke="black" cx="216" cy="-26.16" rx="26.33" ry="26.33"/>
<text text-anchor="middle" x="216" y="-23.96" font-family="Times New Roman,serif" font-size="9.00">down</text>
</g>
<!-- is food up&#45;&gt;down -->
<g id="edge20" class="edge">
<title>is food up&#45;&gt;down</title>
<path fill="none" stroke="green" stroke-width="0.5" d="M182.66,-87.85C186.68,-80.54 192.74,-69.51 198.59,-58.85"/>
<polygon fill="green" stroke="green" stroke-width="0.5" points="201.52,-60.79 203.27,-50.34 195.38,-57.42 201.52,-60.79"/>
</g>
<!-- right -->
<g id="node15" class="node">
<title>right</title>
<ellipse fill="lightblue" stroke="black" cx="407" cy="-26.16" rx="23.17" ry="23.17"/>
<text text-anchor="middle" x="407" y="-23.96" font-family="Times New Roman,serif" font-size="9.00">right</text>
</g>
<!-- is food up&#45;&gt;right -->
<g id="edge25" class="edge">
<title>is food up&#45;&gt;right</title>
<path fill="none" stroke="green" stroke-width="0.24" d="M204.8,-90.29C254.93,-78.97 358.5,-55.41 366,-52.33 370.59,-50.44 375.25,-48.07 379.71,-45.56"/>
<polygon fill="green" stroke="green" stroke-width="0.24" points="381.42,-48.61 388.18,-40.45 377.81,-42.61 381.42,-48.61"/>
</g>
<!-- life pos y -->
<g id="node2" class="node">
<title>life pos y</title>
<polygon fill="lightgray" stroke="black" points="654.5,-106.33 603.5,-106.33 603.5,-88.33 654.5,-88.33 654.5,-106.33"/>
<text text-anchor="middle" x="629" y="-95.13" font-family="Times New Roman,serif" font-size="9.00">life pos y</text>
</g>
<!-- stop -->
<g id="node11" class="node">
<title>stop</title>
<ellipse fill="lightblue" stroke="black" cx="560" cy="-26.16" rx="23.17" ry="23.17"/>
<text text-anchor="middle" x="560" y="-23.96" font-family="Times New Roman,serif" font-size="9.00">stop</text>
</g>
<!-- life pos y&#45;&gt;stop -->
<g id="edge21" class="edge">
<title>life pos y&#45;&gt;stop</title>
<path fill="none" stroke="green" stroke-width="0.19" d="M620.54,-87.85C611.33,-78.62 596.22,-63.46 583.39,-50.61"/>
<polygon fill="green" stroke="green" stroke-width="0.19" points="585.91,-48.18 576.37,-43.57 580.95,-53.12 585.91,-48.18"/>
</g>
<!-- life pos y&#45;&gt;up -->
<g id="edge12" class="edge">
<title>life pos y&#45;&gt;up</title>
<path fill="none" stroke="red" stroke-width="0.34" d="M603.04,-90.21C600,-89.54 596.94,-88.9 594,-88.33 497.21,-69.33 466.36,-89.51 375,-52.33 370.22,-50.38 365.45,-47.7 361.02,-44.82"/>
<polygon fill="red" stroke="red" stroke-width="0.34" points="363.11,-42.01 352.93,-39.08 359.06,-47.72 363.11,-42.01"/>
</g>
<!-- left -->
<g id="node14" class="node">
<title>left</title>
<ellipse fill="lightblue" stroke="black" cx="485" cy="-26.16" rx="20.51" ry="20.51"/>
<text text-anchor="middle" x="485" y="-23.96" font-family="Times New Roman,serif" font-size="9.00">left</text>
</g>
<!-- life pos y&#45;&gt;left -->
<g id="edge2" class="edge">
<title>life pos y&#45;&gt;left</title>
<path fill="none" stroke="green" stroke-width="0.58" d="M607.77,-87.94C587.1,-79.57 554.94,-66.02 528,-52.33 522.6,-49.58 516.94,-46.46 511.56,-43.37"/>
<polygon fill="green" stroke="green" stroke-width="0.58" points="513.46,-40.42 503.06,-38.37 509.91,-46.45 513.46,-40.42"/>
</g>
<!-- near bottom -->
<g id="node3" class="node">
<title>near bottom</title>
<polygon fill="lightgray" stroke="black" points="361,-106.33 301,-106.33 301,-88.33 361,-88.33 361,-106.33"/>
<text text-anchor="middle" x="331" y="-95.13" font-family="Times New Roman,serif" font-size="9.00">near bottom</text>
</g>
<!-- near bottom&#45;&gt;up -->
<g id="edge13" class="edge">
<title>near bottom&#45;&gt;up</title>
<path fill="none" stroke="green" stroke-width="0.35" d="M331.98,-87.85C332.93,-79.67 334.41,-66.84 335.77,-55.08"/>
<polygon fill="green" stroke="green" stroke-width="0.35" points="339.23,-55.61 336.9,-45.28 332.28,-54.81 339.23,-55.61"/>
</g>
<!-- near bottom&#45;&gt;down -->
<g id="edge3" class="edge">
<title>near bottom&#45;&gt;down</title>
<path fill="none" stroke="red" stroke-width="0.67" d="M316.9,-87.85C299.79,-77.56 270.43,-59.9 247.77,-46.27"/>
<polygon fill="red" stroke="red" stroke-width="0.67" points="249.77,-43.39 239.39,-41.23 246.16,-49.39 249.77,-43.39"/>
</g>
<!-- near bottom&#45;&gt;left -->
<g id="edge22" class="edge">
<title>near bottom&#45;&gt;left</title>
<path fill="none" stroke="green" stroke-width="0.19" d="M353.66,-87.96C375.74,-79.6 410.11,-66.06 439,-52.33 445.41,-49.28 452.18,-45.76 458.49,-42.33"/>
<polygon fill="green" stroke="green" stroke-width="0.19" points="460.03,-45.48 467.08,-37.58 456.64,-39.36 460.03,-45.48"/>
</g>
<!-- is food down -->
<g id="node4" class="node">
<title>is food down</title>
<polygon fill="lightgray" stroke="black" points="517,-106.33 453,-106.33 453,-88.33 517,-88.33 517,-106.33"/>
<text text-anchor="middle" x="485" y="-95.13" font-family="Times New Roman,serif" font-size="9.00">is food down</text>
</g>
<!-- is food down&#45;&gt;up -->
<g id="edge6" class="edge">
<title>is food down&#45;&gt;up</title>
<path fill="none" stroke="green" stroke-width="0.29" d="M459.35,-87.95C436.57,-80.08 402.69,-67.28 375,-52.33 370.54,-49.92 365.97,-47.06 361.64,-44.15"/>
<polygon fill="green" stroke="green" stroke-width="0.29" points="363.78,-41.38 353.59,-38.49 359.75,-47.11 363.78,-41.38"/>
</g>
<!-- is food down&#45;&gt;left -->
<g id="edge16" class="edge">
<title>is food down&#45;&gt;left</title>
<path fill="none" stroke="red" stroke-width="0.27" d="M485,-87.85C485,-80.19 485,-68.46 485,-57.34"/>
<polygon fill="red" stroke="red" stroke-width="0.27" points="488.5,-57.44 485,-47.44 481.5,-57.44 488.5,-57.44"/>
</g>
<!-- near top -->
<g id="node5" class="node">
<title>near top</title>
<polygon fill="lightgray" stroke="black" points="133.5,-106.33 86.5,-106.33 86.5,-88.33 133.5,-88.33 133.5,-106.33"/>
<text text-anchor="middle" x="110" y="-95.13" font-family="Times New Roman,serif" font-size="9.00">near top</text>
</g>
<!-- near top&#45;&gt;up -->
<g id="edge5" class="edge">
<title>near top&#45;&gt;up</title>
<path fill="none" stroke="red" stroke-width="0.18" d="M133.64,-89.18C176.48,-76.25 266.65,-49.02 311.89,-35.35"/>
<polygon fill="red" stroke="red" stroke-width="0.18" points="312.79,-38.74 321.35,-32.49 310.76,-32.04 312.79,-38.74"/>
</g>
<!-- near top&#45;&gt;down -->
<g id="edge17" class="edge">
<title>near top&#45;&gt;down</title>
<path fill="none" stroke="green" stroke-width="0.27" d="M123,-87.85C138.48,-77.75 164.84,-60.54 185.55,-47.03"/>
<polygon fill="green" stroke="green" stroke-width="0.27" points="187.24,-50.11 193.7,-41.71 183.41,-44.25 187.24,-50.11"/>
</g>
<!-- is food right -->
<g id="node6" class="node">
<title>is food right</title>
<polygon fill="lightgray" stroke="black" points="283,-106.33 223,-106.33 223,-88.33 283,-88.33 283,-106.33"/>
<text text-anchor="middle" x="253" y="-95.13" font-family="Times New Roman,serif" font-size="9.00">is food right</text>
</g>
<!-- is food right&#45;&gt;up -->
<g id="edge11" class="edge">
<title>is food right&#45;&gt;up</title>
<path fill="none" stroke="red" stroke-width="0.18" d="M263.55,-87.85C276.8,-77.18 299.91,-58.6 317.07,-44.8"/>
<polygon fill="red" stroke="red" stroke-width="0.18" points="319.13,-47.64 324.73,-38.64 314.74,-42.18 319.13,-47.64"/>
</g>
<!-- is food right&#45;&gt;down -->
<g id="edge24" class="edge">
<title>is food right&#45;&gt;down</title>
<path fill="none" stroke="green" stroke-width="0.15" d="M248.46,-87.85C244.54,-80.52 238.62,-69.45 232.91,-58.77"/>
<polygon fill="green" stroke="green" stroke-width="0.15" points="236.12,-57.34 228.31,-50.18 229.94,-60.65 236.12,-57.34"/>
</g>
<!-- is food right&#45;&gt;left -->
<g id="edge8" class="edge">
<title>is food right&#45;&gt;left</title>
<path fill="none" stroke="red" stroke-width="0.16" d="M283.49,-89.58C332.44,-78.69 424.56,-57.87 439,-52.33 445.74,-49.74 452.71,-46.34 459.14,-42.88"/>
<polygon fill="red" stroke="red" stroke-width="0.16" points="460.84,-45.94 467.84,-37.98 457.41,-39.84 460.84,-45.94"/>
</g>
<!-- near edge right -->
<g id="node7" class="node">
<title>near edge right</title>
<polygon fill="lightgray" stroke="black" points="68,-106.33 0,-106.33 0,-88.33 68,-88.33 68,-106.33"/>
<text text-anchor="middle" x="34" y="-95.13" font-family="Times New Roman,serif" font-size="9.00">near edge right</text>
</g>
<!-- near edge right&#45;&gt;down -->
<g id="edge1" class="edge">
<title>near edge right&#45;&gt;down</title>
<path fill="none" stroke="green" stroke-width="0.15" d="M56.32,-87.85C87.77,-75.89 145.4,-53.99 182.15,-40.03"/>
<polygon fill="green" stroke="green" stroke-width="0.15" points="183.16,-43.39 191.26,-36.56 180.67,-36.85 183.16,-43.39"/>
</g>
<!-- life pos x -->
<g id="node8" class="node">
<title>life pos x</title>
<polygon fill="lightgray" stroke="black" points="585,-106.33 535,-106.33 535,-88.33 585,-88.33 585,-106.33"/>
<text text-anchor="middle" x="560" y="-95.13" font-family="Times New Roman,serif" font-size="9.00">life pos x</text>
</g>
<!-- life pos x&#45;&gt;stop -->
<g id="edge18" class="edge">
<title>life pos x&#45;&gt;stop</title>
<path fill="none" stroke="green" stroke-width="0.17" d="M560,-87.85C560,-80.76 560,-70.17 560,-59.82"/>
<polygon fill="green" stroke="green" stroke-width="0.17" points="563.5,-59.93 560,-49.93 556.5,-59.93 563.5,-59.93"/>
</g>
<!-- life pos x&#45;&gt;up -->
<g id="edge4" class="edge">
<title>life pos x&#45;&gt;up</title>
<path fill="none" stroke="red" stroke-width="0.17" d="M534.58,-90.34C484.31,-78.51 376.84,-53.15 375,-52.33 370.17,-50.16 365.31,-47.31 360.79,-44.32"/>
<polygon fill="red" stroke="red" stroke-width="0.17" points="363.01,-41.6 352.83,-38.67 358.96,-47.31 363.01,-41.6"/>
</g>
<!-- life pos x&#45;&gt;left -->
<g id="edge14" class="edge">
<title>life pos x&#45;&gt;left</title>
<path fill="none" stroke="red" stroke-width="0.18" d="M550.8,-87.85C539.94,-77.83 521.52,-60.84 506.92,-47.38"/>
<polygon fill="red" stroke="red" stroke-width="0.18" points="509.62,-45.1 499.89,-40.9 504.87,-50.25 509.62,-45.1"/>
</g>
<!-- life pos x&#45;&gt;right -->
<g id="edge9" class="edge">
<title>life pos x&#45;&gt;right</title>
<path fill="none" stroke="red" stroke-width="0.21" d="M538.45,-87.93C517.05,-79.44 483.44,-65.71 455,-52.33 448.71,-49.37 442.05,-46.02 435.76,-42.75"/>
<polygon fill="red" stroke="red" stroke-width="0.21" points="437.65,-39.79 427.17,-38.23 434.39,-45.99 437.65,-39.79"/>
</g>
<!-- near edge left -->
<g id="node9" class="node">
<title>near edge left</title>
<polygon fill="lightgray" stroke="black" points="737,-106.33 673,-106.33 673,-88.33 737,-88.33 737,-106.33"/>
<text text-anchor="middle" x="705" y="-95.13" font-family="Times New Roman,serif" font-size="9.00">near edge left</text>
</g>
<!-- is food left -->
<g id="node10" class="node">
<title>is food left</title>
<polygon fill="lightgray" stroke="black" points="435,-106.33 379,-106.33 379,-88.33 435,-88.33 435,-106.33"/>
<text text-anchor="middle" x="407" y="-95.13" font-family="Times New Roman,serif" font-size="9.00">is food left</text>
</g>
<!-- is food left&#45;&gt;stop -->
<g id="edge23" class="edge">
<title>is food left&#45;&gt;stop</title>
<path fill="none" stroke="green" stroke-width="0.39" d="M430.11,-87.86C452.22,-79.53 486.36,-66.11 515,-52.33 520.24,-49.8 525.72,-46.94 530.99,-44.07"/>
<polygon fill="green" stroke="green" stroke-width="0.39" points="532.58,-47.19 539.6,-39.26 529.17,-41.08 532.58,-47.19"/>
</g>
<!-- is food left&#45;&gt;up -->
<g id="edge7" class="edge">
<title>is food left&#45;&gt;up</title>
<path fill="none" stroke="green" stroke-width="0.29" d="M398.66,-87.85C388.82,-77.83 372.12,-60.85 358.88,-47.39"/>
<polygon fill="green" stroke="green" stroke-width="0.29" points="361.39,-44.94 351.88,-40.26 356.4,-49.85 361.39,-44.94"/>
</g>
<!-- is food left&#45;&gt;down -->
<g id="edge15" class="edge">
<title>is food left&#45;&gt;down</title>
<path fill="none" stroke="green" stroke-width="0.4" d="M383.58,-87.85C350.29,-75.79 289.08,-53.63 250.57,-39.68"/>
<polygon fill="green" stroke="green" stroke-width="0.4" points="251.99,-36.47 241.39,-36.36 249.6,-43.05 251.99,-36.47"/>
</g>
<!-- is food left&#45;&gt;right -->
<g id="edge19" class="edge">
<title>is food left&#45;&gt;right</title>
<path fill="none" stroke="red" stroke-width="0.26" d="M407,-87.85C407,-80.76 407,-70.17 407,-59.82"/>
<polygon fill="red" stroke="red" stroke-width="0.26" points="410.5,-60.08 407,-50.08 403.5,-60.08 410.5,-60.08"/>
</g>
</g>
</svg>
