<?xml version="1.0" encoding="UTF-8" standalone="no"?>
<!DOCTYPE svg PUBLIC "-//W3C//DTD SVG 1.1//EN"
 "http://www.w3.org/Graphics/SVG/1.1/DTD/svg11.dtd">
<!-- Generated by graphviz version 7.1.0 (20230121.1956)
 -->
<!-- Pages: 1 -->
<svg width="380pt" height="221pt"
 viewBox="0.00 0.00 379.89 221.42" xmlns="http://www.w3.org/2000/svg" xmlns:xlink="http://www.w3.org/1999/xlink">
<g id="graph0" class="graph" transform="scale(1 1) rotate(0) translate(4 217.42)">
<polygon fill="white" stroke="none" points="-4,4 -4,-217.42 375.89,-217.42 375.89,4 -4,4"/>
<!-- life pos y -->
<g id="node1" class="node">
<title>life pos y</title>
<polygon fill="lightgray" stroke="black" points="76.01,-201.09 25.01,-201.09 25.01,-179.09 76.01,-179.09 76.01,-201.09"/>
<text text-anchor="middle" x="50.51" y="-187.89" font-family="Times New Roman,serif" font-size="9.00">life pos y</text>
</g>
<!-- left -->
<g id="node9" class="node">
<title>left</title>
<ellipse fill="lightblue" stroke="black" cx="20.51" cy="-109.54" rx="20.51" ry="20.51"/>
<text text-anchor="middle" x="20.51" y="-107.34" font-family="Times New Roman,serif" font-size="9.00">left</text>
</g>
<!-- life pos y&#45;&gt;left -->
<g id="edge2" class="edge">
<title>life pos y&#45;&gt;left</title>
<path fill="none" stroke="green" d="M46.58,-178.82C42.8,-168.91 36.89,-153.43 31.65,-139.72"/>
<polygon fill="green" stroke="green" points="35.03,-138.75 28.19,-130.66 28.49,-141.25 35.03,-138.75"/>
</g>
<!-- 319 -->
<g id="node11" class="node">
<title>319</title>
<ellipse fill="white" stroke="black" cx="80.51" cy="-109.54" rx="21.43" ry="21.43"/>
<text text-anchor="middle" x="80.51" y="-107.34" font-family="Times New Roman,serif" font-size="9.00">319</text>
</g>
<!-- life pos y&#45;&gt;319 -->
<g id="edge5" class="edge">
<title>life pos y&#45;&gt;319</title>
<path fill="none" stroke="red" stroke-width="0.33" d="M54.43,-178.82C58.24,-168.85 64.2,-153.24 69.46,-139.46"/>
<polygon fill="red" stroke="red" stroke-width="0.33" points="72.65,-140.92 72.95,-130.33 66.11,-138.42 72.65,-140.92"/>
</g>
<!-- abs y -->
<g id="node2" class="node">
<title>abs y</title>
<polygon fill="lightgray" stroke="black" points="130.51,-201.09 94.51,-201.09 94.51,-179.09 130.51,-179.09 130.51,-201.09"/>
<text text-anchor="middle" x="112.51" y="-187.89" font-family="Times New Roman,serif" font-size="9.00">abs y</text>
</g>
<!-- near wall? -->
<g id="node3" class="node">
<title>near wall?</title>
<polygon fill="lightgray" stroke="black" points="174.01,-120.54 121.01,-120.54 121.01,-98.54 174.01,-98.54 174.01,-120.54"/>
<text text-anchor="middle" x="147.51" y="-107.34" font-family="Times New Roman,serif" font-size="9.00">near wall?</text>
</g>
<!-- down -->
<g id="node8" class="node">
<title>down</title>
<ellipse fill="lightblue" stroke="black" cx="80.51" cy="-26.16" rx="26.33" ry="26.33"/>
<text text-anchor="middle" x="80.51" y="-23.96" font-family="Times New Roman,serif" font-size="9.00">down</text>
</g>
<!-- near wall?&#45;&gt;down -->
<g id="edge1" class="edge">
<title>near wall?&#45;&gt;down</title>
<path fill="none" stroke="red" stroke-width="0.19" stroke-dasharray="1,5" d="M139.02,-98.23C130.02,-87.31 115.44,-69.59 103.08,-54.58"/>
<polygon fill="red" stroke="red" stroke-width="0.19" points="106.1,-52.74 97.04,-47.24 100.69,-57.19 106.1,-52.74"/>
</g>
<!-- right -->
<g id="node10" class="node">
<title>right</title>
<ellipse fill="lightblue" stroke="black" cx="147.51" cy="-26.16" rx="23.17" ry="23.17"/>
<text text-anchor="middle" x="147.51" y="-23.96" font-family="Times New Roman,serif" font-size="9.00">right</text>
</g>
<!-- near wall?&#45;&gt;right -->
<g id="edge4" class="edge">
<title>near wall?&#45;&gt;right</title>
<path fill="none" stroke="green" stroke-width="0.14" d="M147.51,-98.23C147.51,-88.55 147.51,-73.55 147.51,-59.81"/>
<polygon fill="green" stroke="green" stroke-width="0.14" points="151.01,-59.88 147.51,-49.88 144.01,-59.88 151.01,-59.88"/>
</g>
<!-- abs x -->
<g id="node4" class="node">
<title>abs x</title>
<polygon fill="lightgray" stroke="black" points="184.01,-201.09 149.01,-201.09 149.01,-179.09 184.01,-179.09 184.01,-201.09"/>
<text text-anchor="middle" x="166.51" y="-187.89" font-family="Times New Roman,serif" font-size="9.00">abs x</text>
</g>
<!-- life pos x -->
<g id="node5" class="node">
<title>life pos x</title>
<polygon fill="lightgray" stroke="black" points="252.51,-201.09 202.51,-201.09 202.51,-179.09 252.51,-179.09 252.51,-201.09"/>
<text text-anchor="middle" x="227.51" y="-187.89" font-family="Times New Roman,serif" font-size="9.00">life pos x</text>
</g>
<!-- stop -->
<g id="node6" class="node">
<title>stop</title>
<ellipse fill="lightblue" stroke="black" cx="293.51" cy="-190.09" rx="23.17" ry="23.17"/>
<text text-anchor="middle" x="293.51" y="-187.89" font-family="Times New Roman,serif" font-size="9.00">stop</text>
</g>
<!-- up -->
<g id="node7" class="node">
<title>up</title>
<ellipse fill="lightblue" stroke="black" cx="353.51" cy="-190.09" rx="18.27" ry="18.27"/>
<text text-anchor="middle" x="353.51" y="-187.89" font-family="Times New Roman,serif" font-size="9.00">up</text>
</g>
<!-- 319&#45;&gt;down -->
<g id="edge3" class="edge">
<title>319&#45;&gt;down</title>
<path fill="none" stroke="red" stroke-width="0.26" d="M80.51,-88C80.51,-80.44 80.51,-71.63 80.51,-63.1"/>
<polygon fill="red" stroke="red" stroke-width="0.26" points="84.01,-63.35 80.51,-53.35 77.01,-63.35 84.01,-63.35"/>
</g>
</g>
</svg>
