<?xml version="1.0" encoding="UTF-8" standalone="no"?>
<!DOCTYPE svg PUBLIC "-//W3C//DTD SVG 1.1//EN"
 "http://www.w3.org/Graphics/SVG/1.1/DTD/svg11.dtd">
<!-- Generated by graphviz version 7.1.0 (20230121.1956)
 -->
<!-- Pages: 1 -->
<svg width="411pt" height="304pt"
 viewBox="0.00 0.00 410.83 304.09" xmlns="http://www.w3.org/2000/svg" xmlns:xlink="http://www.w3.org/1999/xlink">
<g id="graph0" class="graph" transform="scale(1 1) rotate(0) translate(4 300.09)">
<polygon fill="white" stroke="none" points="-4,4 -4,-300.09 406.83,-300.09 406.83,4 -4,4"/>
<!-- life pos y -->
<g id="node1" class="node">
<title>life pos y</title>
<polygon fill="lightgray" stroke="black" points="51,-283.76 0,-283.76 0,-261.76 51,-261.76 51,-283.76"/>
<text text-anchor="middle" x="25.5" y="-270.56" font-family="Times New Roman,serif" font-size="9.00">life pos y</text>
</g>
<!-- near wall down -->
<g id="node2" class="node">
<title>near wall down</title>
<polygon fill="lightgray" stroke="black" points="140,-283.76 69,-283.76 69,-261.76 140,-261.76 140,-283.76"/>
<text text-anchor="middle" x="104.5" y="-270.56" font-family="Times New Roman,serif" font-size="9.00">near wall down</text>
</g>
<!-- right -->
<g id="node9" class="node">
<title>right</title>
<ellipse fill="lightblue" stroke="black" cx="104.5" cy="-190.09" rx="23.17" ry="23.17"/>
<text text-anchor="middle" x="104.5" y="-187.89" font-family="Times New Roman,serif" font-size="9.00">right</text>
</g>
<!-- near wall down&#45;&gt;right -->
<g id="edge1" class="edge">
<title>near wall down&#45;&gt;right</title>
<path fill="none" stroke="red" stroke-width="0.42" d="M104.5,-261.54C104.5,-252.11 104.5,-237.56 104.5,-224.14"/>
<polygon fill="red" stroke="red" stroke-width="0.42" points="108,-224.37 104.5,-214.37 101,-224.37 108,-224.37"/>
</g>
<!-- food dist y -->
<g id="node3" class="node">
<title>food dist y</title>
<polygon fill="lightgray" stroke="black" points="258.5,-283.76 202.5,-283.76 202.5,-261.76 258.5,-261.76 258.5,-283.76"/>
<text text-anchor="middle" x="230.5" y="-270.56" font-family="Times New Roman,serif" font-size="9.00">food dist y</text>
</g>
<!-- down -->
<g id="node7" class="node">
<title>down</title>
<ellipse fill="lightblue" stroke="black" cx="214.5" cy="-26.16" rx="26.33" ry="26.33"/>
<text text-anchor="middle" x="214.5" y="-23.96" font-family="Times New Roman,serif" font-size="9.00">down</text>
</g>
<!-- food dist y&#45;&gt;down -->
<g id="edge2" class="edge">
<title>food dist y&#45;&gt;down</title>
<path fill="none" stroke="red" stroke-width="0.14" d="M225.14,-261.45C211.32,-233.63 176.48,-154.61 189.5,-88.33 191.42,-78.55 194.91,-68.37 198.69,-59.18"/>
<polygon fill="red" stroke="red" stroke-width="0.14" points="201.81,-60.79 202.59,-50.23 195.39,-58 201.81,-60.79"/>
</g>
<!-- 64 -->
<g id="node10" class="node">
<title>64</title>
<ellipse fill="white" stroke="black" cx="252.5" cy="-190.09" rx="18.27" ry="18.27"/>
<text text-anchor="middle" x="252.5" y="-187.89" font-family="Times New Roman,serif" font-size="9.00">64</text>
</g>
<!-- food dist y&#45;&gt;64 -->
<g id="edge3" class="edge">
<title>food dist y&#45;&gt;64</title>
<path fill="none" stroke="green" stroke-width="0.15" d="M233.29,-261.54C236.27,-250.58 241.14,-232.75 245.23,-217.76"/>
<polygon fill="green" stroke="green" stroke-width="0.15" points="248.59,-218.74 247.84,-208.17 241.83,-216.9 248.59,-218.74"/>
</g>
<!-- near wall up -->
<g id="node4" class="node">
<title>near wall up</title>
<polygon fill="lightgray" stroke="black" points="338,-283.76 277,-283.76 277,-261.76 338,-261.76 338,-283.76"/>
<text text-anchor="middle" x="307.5" y="-270.56" font-family="Times New Roman,serif" font-size="9.00">near wall up</text>
</g>
<!-- stop -->
<g id="node5" class="node">
<title>stop</title>
<ellipse fill="lightblue" stroke="black" cx="379.5" cy="-272.76" rx="23.17" ry="23.17"/>
<text text-anchor="middle" x="379.5" y="-270.56" font-family="Times New Roman,serif" font-size="9.00">stop</text>
</g>
<!-- up -->
<g id="node6" class="node">
<title>up</title>
<ellipse fill="lightblue" stroke="black" cx="216.5" cy="-109.54" rx="18.27" ry="18.27"/>
<text text-anchor="middle" x="216.5" y="-107.34" font-family="Times New Roman,serif" font-size="9.00">up</text>
</g>
<!-- left -->
<g id="node8" class="node">
<title>left</title>
<ellipse fill="lightblue" stroke="black" cx="298.5" cy="-26.16" rx="20.51" ry="20.51"/>
<text text-anchor="middle" x="298.5" y="-23.96" font-family="Times New Roman,serif" font-size="9.00">left</text>
</g>
<!-- 64&#45;&gt;up -->
<g id="edge7" class="edge">
<title>64&#45;&gt;up</title>
<path fill="none" stroke="green" stroke-width="0.13" d="M245.21,-173.19C240.27,-162.4 233.63,-147.92 227.98,-135.59"/>
<polygon fill="green" stroke="green" stroke-width="0.13" points="231.33,-134.49 223.98,-126.86 224.96,-137.41 231.33,-134.49"/>
</g>
<!-- 64&#45;&gt;left -->
<g id="edge4" class="edge">
<title>64&#45;&gt;left</title>
<path fill="none" stroke="green" stroke-width="0.21" d="M266.66,-178.39C279.3,-167.87 296.96,-150.53 304.5,-130.75 313.65,-106.74 310.74,-77.32 306.37,-55.98"/>
<polygon fill="green" stroke="green" stroke-width="0.21" points="309.85,-55.49 304.22,-46.51 303.02,-57.04 309.85,-55.49"/>
</g>
<!-- 129 -->
<g id="node11" class="node">
<title>129</title>
<ellipse fill="white" stroke="black" cx="274.5" cy="-109.54" rx="21.43" ry="21.43"/>
<text text-anchor="middle" x="274.5" y="-107.34" font-family="Times New Roman,serif" font-size="9.00">129</text>
</g>
<!-- 64&#45;&gt;129 -->
<g id="edge5" class="edge">
<title>64&#45;&gt;129</title>
<path fill="none" stroke="green" stroke-width="0.39" d="M257.27,-172.04C259.83,-162.91 263.06,-151.38 266.03,-140.77"/>
<polygon fill="green" stroke="green" stroke-width="0.39" points="269.39,-141.74 268.72,-131.17 262.65,-139.86 269.39,-141.74"/>
</g>
<!-- 129&#45;&gt;down -->
<g id="edge8" class="edge">
<title>129&#45;&gt;down</title>
<path fill="none" stroke="red" stroke-width="0.75" d="M262.07,-91.68C254.63,-81.59 244.96,-68.48 236.29,-56.71"/>
<polygon fill="red" stroke="red" stroke-width="0.75" points="239.33,-54.94 230.58,-48.97 233.7,-59.1 239.33,-54.94"/>
</g>
<!-- 129&#45;&gt;left -->
<g id="edge6" class="edge">
<title>129&#45;&gt;left</title>
<path fill="none" stroke="red" stroke-width="0.37" d="M280.43,-88.42C283.29,-78.75 286.76,-66.97 289.89,-56.34"/>
<polygon fill="red" stroke="red" stroke-width="0.37" points="293.25,-57.33 292.72,-46.75 286.54,-55.35 293.25,-57.33"/>
</g>
</g>
</svg>
