<?xml version="1.0" encoding="UTF-8" standalone="no"?>
<!DOCTYPE svg PUBLIC "-//W3C//DTD SVG 1.1//EN"
 "http://www.w3.org/Graphics/SVG/1.1/DTD/svg11.dtd">
<!-- Generated by graphviz version 7.1.0 (20230121.1956)
 -->
<!-- Pages: 1 -->
<svg width="369pt" height="347pt"
 viewBox="0.00 0.00 369.00 346.53" xmlns="http://www.w3.org/2000/svg" xmlns:xlink="http://www.w3.org/1999/xlink">
<g id="graph0" class="graph" transform="scale(1 1) rotate(0) translate(4 342.53)">
<polygon fill="white" stroke="none" points="-4,4 -4,-342.53 365,-342.53 365,4 -4,4"/>
<!-- life pos y -->
<g id="node1" class="node">
<title>life pos y</title>
<polygon fill="lightgray" stroke="black" points="51,-338.53 0,-338.53 0,-316.53 51,-316.53 51,-338.53"/>
<text text-anchor="middle" x="25.5" y="-325.33" font-family="Times New Roman,serif" font-size="9.00">life pos y</text>
</g>
<!-- near wall down -->
<g id="node2" class="node">
<title>near wall down</title>
<polygon fill="lightgray" stroke="black" points="140,-338.53 69,-338.53 69,-316.53 140,-316.53 140,-338.53"/>
<text text-anchor="middle" x="104.5" y="-325.33" font-family="Times New Roman,serif" font-size="9.00">near wall down</text>
</g>
<!-- down -->
<g id="node11" class="node">
<title>down</title>
<ellipse fill="lightblue" stroke="black" cx="110.5" cy="-254.37" rx="26.33" ry="26.33"/>
<text text-anchor="middle" x="110.5" y="-252.17" font-family="Times New Roman,serif" font-size="9.00">down</text>
</g>
<!-- near wall down&#45;&gt;down -->
<g id="edge3" class="edge">
<title>near wall down&#45;&gt;down</title>
<path fill="none" stroke="red" stroke-width="1.02" d="M105.36,-316.34C105.9,-309.92 106.63,-301.22 107.38,-292.39"/>
<polygon fill="red" stroke="red" stroke-width="1.02" points="110.87,-292.69 108.22,-282.43 103.89,-292.1 110.87,-292.69"/>
</g>
<!-- food dist y -->
<g id="node3" class="node">
<title>food dist y</title>
<polygon fill="lightgray" stroke="black" points="205.5,-107.1 149.5,-107.1 149.5,-85.1 205.5,-85.1 205.5,-107.1"/>
<text text-anchor="middle" x="177.5" y="-93.9" font-family="Times New Roman,serif" font-size="9.00">food dist y</text>
</g>
<!-- up -->
<g id="node10" class="node">
<title>up</title>
<ellipse fill="lightblue" stroke="black" cx="177.5" cy="-18.38" rx="18.27" ry="18.27"/>
<text text-anchor="middle" x="177.5" y="-16.18" font-family="Times New Roman,serif" font-size="9.00">up</text>
</g>
<!-- food dist y&#45;&gt;up -->
<g id="edge1" class="edge">
<title>food dist y&#45;&gt;up</title>
<path fill="none" stroke="green" stroke-width="0.7" d="M177.5,-84.89C177.5,-75.4 177.5,-60.81 177.5,-47.81"/>
<polygon fill="green" stroke="green" stroke-width="0.7" points="181,-48.02 177.5,-38.02 174,-48.02 181,-48.02"/>
</g>
<!-- near wall up -->
<g id="node4" class="node">
<title>near wall up</title>
<polygon fill="lightgray" stroke="black" points="288,-338.53 227,-338.53 227,-316.53 288,-316.53 288,-338.53"/>
<text text-anchor="middle" x="257.5" y="-325.33" font-family="Times New Roman,serif" font-size="9.00">near wall up</text>
</g>
<!-- left -->
<g id="node12" class="node">
<title>left</title>
<ellipse fill="lightblue" stroke="black" cx="257.5" cy="-254.37" rx="20.51" ry="20.51"/>
<text text-anchor="middle" x="257.5" y="-252.17" font-family="Times New Roman,serif" font-size="9.00">left</text>
</g>
<!-- near wall up&#45;&gt;left -->
<g id="edge2" class="edge">
<title>near wall up&#45;&gt;left</title>
<path fill="none" stroke="green" stroke-width="0.73" d="M257.5,-316.34C257.5,-308.41 257.5,-296.97 257.5,-286.14"/>
<polygon fill="green" stroke="green" stroke-width="0.73" points="261,-286.34 257.5,-276.34 254,-286.34 261,-286.34"/>
</g>
<!-- food dist x -->
<g id="node5" class="node">
<title>food dist x</title>
<polygon fill="lightgray" stroke="black" points="361,-338.53 306,-338.53 306,-316.53 361,-316.53 361,-338.53"/>
<text text-anchor="middle" x="333.5" y="-325.33" font-family="Times New Roman,serif" font-size="9.00">food dist x</text>
</g>
<!-- near wall right -->
<g id="node6" class="node">
<title>near wall right</title>
<polygon fill="lightgray" stroke="black" points="74.5,-184.82 6.5,-184.82 6.5,-162.82 74.5,-162.82 74.5,-184.82"/>
<text text-anchor="middle" x="40.5" y="-171.62" font-family="Times New Roman,serif" font-size="9.00">near wall right</text>
</g>
<!-- right -->
<g id="node13" class="node">
<title>right</title>
<ellipse fill="lightblue" stroke="black" cx="44.5" cy="-96.1" rx="23.17" ry="23.17"/>
<text text-anchor="middle" x="44.5" y="-93.9" font-family="Times New Roman,serif" font-size="9.00">right</text>
</g>
<!-- near wall right&#45;&gt;right -->
<g id="edge5" class="edge">
<title>near wall right&#45;&gt;right</title>
<path fill="none" stroke="green" stroke-width="0.23" stroke-dasharray="1,5" d="M41.04,-162.61C41.49,-154.12 42.15,-141.55 42.78,-129.68"/>
<polygon fill="green" stroke="green" stroke-width="0.23" points="46.26,-130.07 43.3,-119.9 39.27,-129.7 46.26,-130.07"/>
</g>
<!-- life pos x -->
<g id="node7" class="node">
<title>life pos x</title>
<polygon fill="lightgray" stroke="black" points="208.5,-338.53 158.5,-338.53 158.5,-316.53 208.5,-316.53 208.5,-338.53"/>
<text text-anchor="middle" x="183.5" y="-325.33" font-family="Times New Roman,serif" font-size="9.00">life pos x</text>
</g>
<!-- stop -->
<g id="node9" class="node">
<title>stop</title>
<ellipse fill="lightblue" stroke="black" cx="183.5" cy="-254.37" rx="23.17" ry="23.17"/>
<text text-anchor="middle" x="183.5" y="-252.17" font-family="Times New Roman,serif" font-size="9.00">stop</text>
</g>
<!-- life pos x&#45;&gt;stop -->
<g id="edge9" class="edge">
<title>life pos x&#45;&gt;stop</title>
<path fill="none" stroke="green" stroke-width="0.26" d="M183.5,-316.34C183.5,-308.92 183.5,-298.44 183.5,-288.25"/>
<polygon fill="green" stroke="green" stroke-width="0.26" points="187,-288.27 183.5,-278.27 180,-288.27 187,-288.27"/>
</g>
<!-- life pos x&#45;&gt;down -->
<g id="edge6" class="edge">
<title>life pos x&#45;&gt;down</title>
<path fill="none" stroke="red" stroke-width="0.37" stroke-dasharray="1,5" d="M173.04,-316.34C163.57,-307.11 149.23,-293.12 136.66,-280.88"/>
<polygon fill="red" stroke="red" stroke-width="0.37" points="139.14,-278.4 129.53,-273.93 134.25,-283.41 139.14,-278.4"/>
</g>
<!-- near wall left -->
<g id="node8" class="node">
<title>near wall left</title>
<polygon fill="lightgray" stroke="black" points="287,-107.1 224,-107.1 224,-85.1 287,-85.1 287,-107.1"/>
<text text-anchor="middle" x="255.5" y="-93.9" font-family="Times New Roman,serif" font-size="9.00">near wall left</text>
</g>
<!-- near wall left&#45;&gt;up -->
<g id="edge4" class="edge">
<title>near wall left&#45;&gt;up</title>
<path fill="none" stroke="red" stroke-width="1.02" d="M244.98,-84.89C233.16,-73.42 213.67,-54.5 198.67,-39.93"/>
<polygon fill="red" stroke="red" stroke-width="1.02" points="201.16,-37.48 191.55,-33.02 196.29,-42.5 201.16,-37.48"/>
</g>
<!-- 72 -->
<g id="node14" class="node">
<title>72</title>
<ellipse fill="white" stroke="black" cx="110.5" cy="-173.82" rx="18.27" ry="18.27"/>
<text text-anchor="middle" x="110.5" y="-171.62" font-family="Times New Roman,serif" font-size="9.00">72</text>
</g>
<!-- down&#45;&gt;72 -->
<g id="edge8" class="edge">
<title>down&#45;&gt;72</title>
<path fill="none" stroke="red" stroke-width="0.41" d="M110.5,-227.65C110.5,-219.65 110.5,-210.8 110.5,-202.67"/>
<polygon fill="red" stroke="red" stroke-width="0.41" points="114,-202.79 110.5,-192.79 107,-202.79 114,-202.79"/>
</g>
<!-- 72&#45;&gt;right -->
<g id="edge7" class="edge">
<title>72&#45;&gt;right</title>
<path fill="none" stroke="red" stroke-width="0.33" d="M98.7,-159.29C89.7,-148.96 77.04,-134.44 66.23,-122.03"/>
<polygon fill="red" stroke="red" stroke-width="0.33" points="68.97,-119.86 59.76,-114.62 63.7,-124.45 68.97,-119.86"/>
</g>
<!-- 236 -->
<g id="node15" class="node">
<title>236</title>
<ellipse fill="white" stroke="black" cx="110.5" cy="-96.1" rx="21.43" ry="21.43"/>
<text text-anchor="middle" x="110.5" y="-93.9" font-family="Times New Roman,serif" font-size="9.00">236</text>
</g>
<!-- 72&#45;&gt;236 -->
<g id="edge10" class="edge">
<title>72&#45;&gt;236</title>
<path fill="none" stroke="red" stroke-width="0.2" d="M110.5,-155.26C110.5,-147.14 110.5,-137.24 110.5,-127.93"/>
<polygon fill="red" stroke="red" stroke-width="0.2" points="114,-128.09 110.5,-118.09 107,-128.09 114,-128.09"/>
</g>
<!-- 236&#45;&gt;up -->
<g id="edge11" class="edge">
<title>236&#45;&gt;up</title>
<path fill="none" stroke="green" stroke-width="0.26" d="M124.38,-79.41C134.44,-68.04 148.15,-52.55 159.12,-40.16"/>
<polygon fill="green" stroke="green" stroke-width="0.26" points="161.6,-42.64 165.6,-32.83 156.35,-38 161.6,-42.64"/>
</g>
</g>
</svg>
