<?xml version="1.0" encoding="UTF-8" standalone="no"?>
<!DOCTYPE svg PUBLIC "-//W3C//DTD SVG 1.1//EN"
 "http://www.w3.org/Graphics/SVG/1.1/DTD/svg11.dtd">
<!-- Generated by graphviz version 7.1.0 (20230121.1956)
 -->
<!-- Pages: 1 -->
<svg width="670pt" height="137pt"
 viewBox="0.00 0.00 670.01 137.34" xmlns="http://www.w3.org/2000/svg" xmlns:xlink="http://www.w3.org/1999/xlink">
<g id="graph0" class="graph" transform="scale(1 1) rotate(0) translate(4 133.34)">
<polygon fill="white" stroke="none" points="-4,4 -4,-133.34 666.01,-133.34 666.01,4 -4,4"/>
<!-- life pos y -->
<g id="node1" class="node">
<title>life pos y</title>
<polygon fill="lightgray" stroke="black" points="51,-119.83 0,-119.83 0,-97.83 51,-97.83 51,-119.83"/>
<text text-anchor="middle" x="25.5" y="-106.63" font-family="Times New Roman,serif" font-size="9.00">life pos y</text>
</g>
<!-- right -->
<g id="node13" class="node">
<title>right</title>
<ellipse fill="lightblue" stroke="black" cx="42.5" cy="-26.16" rx="23.17" ry="23.17"/>
<text text-anchor="middle" x="42.5" y="-23.96" font-family="Times New Roman,serif" font-size="9.00">right</text>
</g>
<!-- life pos y&#45;&gt;right -->
<g id="edge6" class="edge">
<title>life pos y&#45;&gt;right</title>
<path fill="none" stroke="green" stroke-width="0.27" d="M27.65,-97.62C29.69,-87.95 32.85,-72.93 35.74,-59.24"/>
<polygon fill="green" stroke="green" stroke-width="0.27" points="39.15,-60.05 37.78,-49.54 32.3,-58.6 39.15,-60.05"/>
</g>
<!-- near wall down -->
<g id="node2" class="node">
<title>near wall down</title>
<polygon fill="lightgray" stroke="black" points="453,-119.83 382,-119.83 382,-97.83 453,-97.83 453,-119.83"/>
<text text-anchor="middle" x="417.5" y="-106.63" font-family="Times New Roman,serif" font-size="9.00">near wall down</text>
</g>
<!-- food dist y -->
<g id="node3" class="node">
<title>food dist y</title>
<polygon fill="lightgray" stroke="black" points="204.5,-119.83 148.5,-119.83 148.5,-97.83 204.5,-97.83 204.5,-119.83"/>
<text text-anchor="middle" x="176.5" y="-106.63" font-family="Times New Roman,serif" font-size="9.00">food dist y</text>
</g>
<!-- stop -->
<g id="node9" class="node">
<title>stop</title>
<ellipse fill="lightblue" stroke="black" cx="111.5" cy="-26.16" rx="23.17" ry="23.17"/>
<text text-anchor="middle" x="111.5" y="-23.96" font-family="Times New Roman,serif" font-size="9.00">stop</text>
</g>
<!-- food dist y&#45;&gt;stop -->
<g id="edge7" class="edge">
<title>food dist y&#45;&gt;stop</title>
<path fill="none" stroke="red" stroke-width="0.46" d="M168.27,-97.62C159.27,-86.45 144.52,-68.15 132.31,-52.99"/>
<polygon fill="red" stroke="red" stroke-width="0.46" points="135.28,-51.09 126.28,-45.5 129.83,-55.49 135.28,-51.09"/>
</g>
<!-- up -->
<g id="node10" class="node">
<title>up</title>
<ellipse fill="lightblue" stroke="black" cx="184.5" cy="-26.16" rx="18.27" ry="18.27"/>
<text text-anchor="middle" x="184.5" y="-23.96" font-family="Times New Roman,serif" font-size="9.00">up</text>
</g>
<!-- food dist y&#45;&gt;up -->
<g id="edge5" class="edge">
<title>food dist y&#45;&gt;up</title>
<path fill="none" stroke="red" stroke-width="0.17" d="M177.51,-97.62C178.58,-86.9 180.29,-69.61 181.76,-54.83"/>
<polygon fill="red" stroke="red" stroke-width="0.17" points="185.24,-55.2 182.74,-44.9 178.27,-54.51 185.24,-55.2"/>
</g>
<!-- food dist y&#45;&gt;right -->
<g id="edge4" class="edge">
<title>food dist y&#45;&gt;right</title>
<path fill="none" stroke="red" stroke-width="0.54" d="M157.28,-97.41C137.53,-86.57 105.99,-68.88 79.5,-52.33 76.37,-50.37 73.14,-48.28 69.94,-46.17"/>
<polygon fill="red" stroke="red" stroke-width="0.54" points="72.07,-43.38 61.82,-40.71 68.16,-49.19 72.07,-43.38"/>
</g>
<!-- near wall up -->
<g id="node4" class="node">
<title>near wall up</title>
<polygon fill="lightgray" stroke="black" points="130,-119.83 69,-119.83 69,-97.83 130,-97.83 130,-119.83"/>
<text text-anchor="middle" x="99.5" y="-106.63" font-family="Times New Roman,serif" font-size="9.00">near wall up</text>
</g>
<!-- near wall up&#45;&gt;stop -->
<g id="edge8" class="edge">
<title>near wall up&#45;&gt;stop</title>
<path fill="none" stroke="green" stroke-width="0.28" d="M101.02,-97.62C102.45,-88.02 104.66,-73.14 106.69,-59.53"/>
<polygon fill="green" stroke="green" stroke-width="0.28" points="110.11,-60.29 108.12,-49.88 103.19,-59.26 110.11,-60.29"/>
</g>
<!-- food dist x -->
<g id="node5" class="node">
<title>food dist x</title>
<polygon fill="lightgray" stroke="black" points="364,-119.83 309,-119.83 309,-97.83 364,-97.83 364,-119.83"/>
<text text-anchor="middle" x="336.5" y="-106.63" font-family="Times New Roman,serif" font-size="9.00">food dist x</text>
</g>
<!-- down -->
<g id="node11" class="node">
<title>down</title>
<ellipse fill="lightblue" stroke="black" cx="296.5" cy="-26.16" rx="26.33" ry="26.33"/>
<text text-anchor="middle" x="296.5" y="-23.96" font-family="Times New Roman,serif" font-size="9.00">down</text>
</g>
<!-- food dist x&#45;&gt;down -->
<g id="edge1" class="edge">
<title>food dist x&#45;&gt;down</title>
<path fill="none" stroke="green" stroke-width="0.24" d="M331.43,-97.62C326.65,-87.97 319.22,-72.99 312.44,-59.31"/>
<polygon fill="green" stroke="green" stroke-width="0.24" points="315.63,-57.87 308.05,-50.46 309.36,-60.98 315.63,-57.87"/>
</g>
<!-- near wall right -->
<g id="node6" class="node">
<title>near wall right</title>
<polygon fill="lightgray" stroke="black" points="290.5,-119.83 222.5,-119.83 222.5,-97.83 290.5,-97.83 290.5,-119.83"/>
<text text-anchor="middle" x="256.5" y="-106.63" font-family="Times New Roman,serif" font-size="9.00">near wall right</text>
</g>
<!-- near wall right&#45;&gt;up -->
<g id="edge3" class="edge">
<title>near wall right&#45;&gt;up</title>
<path fill="none" stroke="green" stroke-width="0.11" d="M247.38,-97.62C236.26,-85.15 217.19,-63.78 202.95,-47.84"/>
<polygon fill="green" stroke="green" stroke-width="0.11" points="205.79,-45.76 196.52,-40.63 200.57,-50.42 205.79,-45.76"/>
</g>
<!-- near wall right&#45;&gt;down -->
<g id="edge2" class="edge">
<title>near wall right&#45;&gt;down</title>
<path fill="none" stroke="red" stroke-width="0.16" d="M261.57,-97.62C266.39,-87.88 273.92,-72.7 280.75,-58.92"/>
<polygon fill="red" stroke="red" stroke-width="0.16" points="283.69,-60.87 285,-50.35 277.42,-57.76 283.69,-60.87"/>
</g>
<!-- life pos x -->
<g id="node7" class="node">
<title>life pos x</title>
<polygon fill="lightgray" stroke="black" points="521.5,-119.83 471.5,-119.83 471.5,-97.83 521.5,-97.83 521.5,-119.83"/>
<text text-anchor="middle" x="496.5" y="-106.63" font-family="Times New Roman,serif" font-size="9.00">life pos x</text>
</g>
<!-- near wall left -->
<g id="node8" class="node">
<title>near wall left</title>
<polygon fill="lightgray" stroke="black" points="603,-119.83 540,-119.83 540,-97.83 603,-97.83 603,-119.83"/>
<text text-anchor="middle" x="571.5" y="-106.63" font-family="Times New Roman,serif" font-size="9.00">near wall left</text>
</g>
<!-- left -->
<g id="node12" class="node">
<title>left</title>
<ellipse fill="lightblue" stroke="black" cx="641.5" cy="-108.83" rx="20.51" ry="20.51"/>
<text text-anchor="middle" x="641.5" y="-106.63" font-family="Times New Roman,serif" font-size="9.00">left</text>
</g>
</g>
</svg>
