<?xml version="1.0" encoding="UTF-8" standalone="no"?>
<!DOCTYPE svg PUBLIC "-//W3C//DTD SVG 1.1//EN"
 "http://www.w3.org/Graphics/SVG/1.1/DTD/svg11.dtd">
<!-- Generated by graphviz version 7.1.0 (20230121.1956)
 -->
<!-- Pages: 1 -->
<svg width="450pt" height="352pt"
 viewBox="0.00 0.00 450.00 352.19" xmlns="http://www.w3.org/2000/svg" xmlns:xlink="http://www.w3.org/1999/xlink">
<g id="graph0" class="graph" transform="scale(1 1) rotate(0) translate(4 348.19)">
<polygon fill="white" stroke="none" points="-4,4 -4,-348.19 446,-348.19 446,4 -4,4"/>
<!-- life pos y -->
<g id="node1" class="node">
<title>life pos y</title>
<polygon fill="lightgray" stroke="black" points="51,-344.19 0,-344.19 0,-322.19 51,-322.19 51,-344.19"/>
<text text-anchor="middle" x="25.5" y="-330.99" font-family="Times New Roman,serif" font-size="9.00">life pos y</text>
</g>
<!-- near wall down -->
<g id="node2" class="node">
<title>near wall down</title>
<polygon fill="lightgray" stroke="black" points="140,-344.19 69,-344.19 69,-322.19 140,-322.19 140,-344.19"/>
<text text-anchor="middle" x="104.5" y="-330.99" font-family="Times New Roman,serif" font-size="9.00">near wall down</text>
</g>
<!-- down -->
<g id="node11" class="node">
<title>down</title>
<ellipse fill="lightblue" stroke="black" cx="110.5" cy="-260.03" rx="26.33" ry="26.33"/>
<text text-anchor="middle" x="110.5" y="-257.83" font-family="Times New Roman,serif" font-size="9.00">down</text>
</g>
<!-- near wall down&#45;&gt;down -->
<g id="edge3" class="edge">
<title>near wall down&#45;&gt;down</title>
<path fill="none" stroke="red" stroke-width="1.06" d="M105.36,-321.99C105.9,-315.58 106.63,-306.87 107.38,-298.05"/>
<polygon fill="red" stroke="red" stroke-width="1.06" points="110.86,-298.42 108.21,-288.16 103.88,-297.83 110.86,-298.42"/>
</g>
<!-- food dist y -->
<g id="node3" class="node">
<title>food dist y</title>
<polygon fill="lightgray" stroke="black" points="74.5,-190.48 18.5,-190.48 18.5,-168.48 74.5,-168.48 74.5,-190.48"/>
<text text-anchor="middle" x="46.5" y="-177.28" font-family="Times New Roman,serif" font-size="9.00">food dist y</text>
</g>
<!-- up -->
<g id="node10" class="node">
<title>up</title>
<ellipse fill="lightblue" stroke="black" cx="55.5" cy="-103.88" rx="18.27" ry="18.27"/>
<text text-anchor="middle" x="55.5" y="-101.68" font-family="Times New Roman,serif" font-size="9.00">up</text>
</g>
<!-- food dist y&#45;&gt;up -->
<g id="edge1" class="edge">
<title>food dist y&#45;&gt;up</title>
<path fill="none" stroke="red" stroke-width="0.26" d="M47.75,-168.25C48.88,-158.99 50.6,-144.93 52.13,-132.4"/>
<polygon fill="red" stroke="red" stroke-width="0.26" points="55.57,-133.13 53.31,-122.78 48.62,-132.28 55.57,-133.13"/>
</g>
<!-- near wall up -->
<g id="node4" class="node">
<title>near wall up</title>
<polygon fill="lightgray" stroke="black" points="288,-344.19 227,-344.19 227,-322.19 288,-322.19 288,-344.19"/>
<text text-anchor="middle" x="257.5" y="-330.99" font-family="Times New Roman,serif" font-size="9.00">near wall up</text>
</g>
<!-- left -->
<g id="node12" class="node">
<title>left</title>
<ellipse fill="lightblue" stroke="black" cx="257.5" cy="-260.03" rx="20.51" ry="20.51"/>
<text text-anchor="middle" x="257.5" y="-257.83" font-family="Times New Roman,serif" font-size="9.00">left</text>
</g>
<!-- near wall up&#45;&gt;left -->
<g id="edge2" class="edge">
<title>near wall up&#45;&gt;left</title>
<path fill="none" stroke="green" stroke-width="0.81" d="M257.5,-321.99C257.5,-314.07 257.5,-302.63 257.5,-291.79"/>
<polygon fill="green" stroke="green" stroke-width="0.81" points="261,-292.12 257.5,-282.12 254,-292.12 261,-292.12"/>
</g>
<!-- food dist x -->
<g id="node5" class="node">
<title>food dist x</title>
<polygon fill="lightgray" stroke="black" points="361,-344.19 306,-344.19 306,-322.19 361,-322.19 361,-344.19"/>
<text text-anchor="middle" x="333.5" y="-330.99" font-family="Times New Roman,serif" font-size="9.00">food dist x</text>
</g>
<!-- near wall right -->
<g id="node6" class="node">
<title>near wall right</title>
<polygon fill="lightgray" stroke="black" points="261.5,-114.88 193.5,-114.88 193.5,-92.88 261.5,-92.88 261.5,-114.88"/>
<text text-anchor="middle" x="227.5" y="-101.68" font-family="Times New Roman,serif" font-size="9.00">near wall right</text>
</g>
<!-- right -->
<g id="node13" class="node">
<title>right</title>
<ellipse fill="lightblue" stroke="black" cx="154.5" cy="-23.33" rx="23.17" ry="23.17"/>
<text text-anchor="middle" x="154.5" y="-21.13" font-family="Times New Roman,serif" font-size="9.00">right</text>
</g>
<!-- near wall right&#45;&gt;right -->
<g id="edge4" class="edge">
<title>near wall right&#45;&gt;right</title>
<path fill="none" stroke="red" stroke-width="0.21" stroke-dasharray="1,5" d="M217.96,-92.61C207.56,-81.42 190.56,-63.14 176.77,-48.3"/>
<polygon fill="red" stroke="red" stroke-width="0.21" points="179.5,-46.09 170.13,-41.15 174.37,-50.86 179.5,-46.09"/>
</g>
<!-- life pos x -->
<g id="node7" class="node">
<title>life pos x</title>
<polygon fill="lightgray" stroke="black" points="208.5,-344.19 158.5,-344.19 158.5,-322.19 208.5,-322.19 208.5,-344.19"/>
<text text-anchor="middle" x="183.5" y="-330.99" font-family="Times New Roman,serif" font-size="9.00">life pos x</text>
</g>
<!-- stop -->
<g id="node9" class="node">
<title>stop</title>
<ellipse fill="lightblue" stroke="black" cx="183.5" cy="-260.03" rx="23.17" ry="23.17"/>
<text text-anchor="middle" x="183.5" y="-257.83" font-family="Times New Roman,serif" font-size="9.00">stop</text>
</g>
<!-- life pos x&#45;&gt;stop -->
<g id="edge11" class="edge">
<title>life pos x&#45;&gt;stop</title>
<path fill="none" stroke="green" stroke-width="0.13" d="M183.5,-321.99C183.5,-314.5 183.5,-303.87 183.5,-293.58"/>
<polygon fill="green" stroke="green" stroke-width="0.13" points="187,-293.73 183.5,-283.73 180,-293.73 187,-293.73"/>
</g>
<!-- life pos x&#45;&gt;down -->
<g id="edge5" class="edge">
<title>life pos x&#45;&gt;down</title>
<path fill="none" stroke="red" stroke-width="0.73" stroke-dasharray="1,5" d="M173.04,-321.99C163.66,-312.85 149.5,-299.04 137.02,-286.88"/>
<polygon fill="red" stroke="red" stroke-width="0.73" points="139.52,-284.43 129.92,-279.96 134.64,-289.45 139.52,-284.43"/>
</g>
<!-- near wall left -->
<g id="node8" class="node">
<title>near wall left</title>
<polygon fill="lightgray" stroke="black" points="442,-344.19 379,-344.19 379,-322.19 442,-322.19 442,-344.19"/>
<text text-anchor="middle" x="410.5" y="-330.99" font-family="Times New Roman,serif" font-size="9.00">near wall left</text>
</g>
<!-- 72 -->
<g id="node14" class="node">
<title>72</title>
<ellipse fill="white" stroke="black" cx="110.5" cy="-179.48" rx="18.27" ry="18.27"/>
<text text-anchor="middle" x="110.5" y="-177.28" font-family="Times New Roman,serif" font-size="9.00">72</text>
</g>
<!-- down&#45;&gt;72 -->
<g id="edge10" class="edge">
<title>down&#45;&gt;72</title>
<path fill="none" stroke="red" stroke-width="0.25" d="M110.5,-233.31C110.5,-225.22 110.5,-216.26 110.5,-208.05"/>
<polygon fill="red" stroke="red" stroke-width="0.25" points="114,-208.2 110.5,-198.2 107,-208.2 114,-208.2"/>
</g>
<!-- 72&#45;&gt;up -->
<g id="edge7" class="edge">
<title>72&#45;&gt;up</title>
<path fill="none" stroke="red" stroke-width="0.42" d="M99.9,-164.29C92.06,-153.8 81.23,-139.32 72.23,-127.27"/>
<polygon fill="red" stroke="red" stroke-width="0.42" points="75.24,-125.45 66.45,-119.54 69.64,-129.64 75.24,-125.45"/>
</g>
<!-- 72&#45;&gt;right -->
<g id="edge6" class="edge">
<title>72&#45;&gt;right</title>
<path fill="none" stroke="green" stroke-width="0.12" d="M111.34,-160.78C112.67,-141.25 116.04,-109.08 124.5,-82.67 127.78,-72.42 132.73,-61.79 137.67,-52.45"/>
<polygon fill="green" stroke="green" stroke-width="0.12" points="140.69,-54.22 142.45,-43.77 134.56,-50.84 140.69,-54.22"/>
</g>
<!-- 138 -->
<g id="node15" class="node">
<title>138</title>
<ellipse fill="white" stroke="black" cx="154.5" cy="-103.88" rx="21.43" ry="21.43"/>
<text text-anchor="middle" x="154.5" y="-101.68" font-family="Times New Roman,serif" font-size="9.00">138</text>
</g>
<!-- 72&#45;&gt;138 -->
<g id="edge8" class="edge">
<title>72&#45;&gt;138</title>
<path fill="none" stroke="red" stroke-width="0.28" d="M119.62,-163.23C125.07,-154.11 132.15,-142.27 138.51,-131.64"/>
<polygon fill="red" stroke="red" stroke-width="0.28" points="141.5,-133.45 143.63,-123.07 135.49,-129.86 141.5,-133.45"/>
</g>
<!-- 138&#45;&gt;right -->
<g id="edge9" class="edge">
<title>138&#45;&gt;right</title>
<path fill="none" stroke="green" stroke-width="0.44" stroke-dasharray="1,5" d="M154.5,-82.24C154.5,-74.57 154.5,-65.67 154.5,-57.18"/>
<polygon fill="green" stroke="green" stroke-width="0.44" points="158,-57.43 154.5,-47.43 151,-57.43 158,-57.43"/>
</g>
</g>
</svg>
