<?xml version="1.0" encoding="UTF-8" standalone="no"?>
<!DOCTYPE svg PUBLIC "-//W3C//DTD SVG 1.1//EN"
 "http://www.w3.org/Graphics/SVG/1.1/DTD/svg11.dtd">
<!-- Generated by graphviz version 7.1.0 (20230121.1956)
 -->
<!-- Pages: 1 -->
<svg width="705pt" height="143pt"
 viewBox="0.00 0.00 704.72 142.99" xmlns="http://www.w3.org/2000/svg" xmlns:xlink="http://www.w3.org/1999/xlink">
<g id="graph0" class="graph" transform="scale(1 1) rotate(0) translate(4 138.99)">
<polygon fill="white" stroke="none" points="-4,4 -4,-138.99 700.72,-138.99 700.72,4 -4,4"/>
<!-- life pos y -->
<g id="node1" class="node">
<title>life pos y</title>
<polygon fill="lightgray" stroke="black" points="67.88,-122.66 16.88,-122.66 16.88,-100.66 67.88,-100.66 67.88,-122.66"/>
<text text-anchor="middle" x="42.38" y="-109.46" font-family="Times New Roman,serif" font-size="9.00">life pos y</text>
</g>
<!-- up -->
<g id="node10" class="node">
<title>up</title>
<ellipse fill="lightblue" stroke="black" cx="18.38" cy="-26.16" rx="18.27" ry="18.27"/>
<text text-anchor="middle" x="18.38" y="-23.96" font-family="Times New Roman,serif" font-size="9.00">up</text>
</g>
<!-- life pos y&#45;&gt;up -->
<g id="edge1" class="edge">
<title>life pos y&#45;&gt;up</title>
<path fill="none" stroke="red" stroke-width="0.29" d="M39.44,-100.42C36.14,-88.92 30.64,-69.79 26.09,-53.96"/>
<polygon fill="red" stroke="red" stroke-width="0.29" points="29.51,-53.21 23.39,-44.57 22.79,-55.14 29.51,-53.21"/>
</g>
<!-- right -->
<g id="node13" class="node">
<title>right</title>
<ellipse fill="lightblue" stroke="black" cx="78.38" cy="-26.16" rx="23.17" ry="23.17"/>
<text text-anchor="middle" x="78.38" y="-23.96" font-family="Times New Roman,serif" font-size="9.00">right</text>
</g>
<!-- life pos y&#45;&gt;right -->
<g id="edge6" class="edge">
<title>life pos y&#45;&gt;right</title>
<path fill="none" stroke="red" stroke-width="0.33" d="M46.8,-100.42C51.42,-89.71 58.9,-72.37 65.41,-57.25"/>
<polygon fill="red" stroke="red" stroke-width="0.33" points="68.58,-58.74 69.33,-48.18 62.15,-55.97 68.58,-58.74"/>
</g>
<!-- near wall down -->
<g id="node2" class="node">
<title>near wall down</title>
<polygon fill="lightgray" stroke="black" points="247.88,-122.66 176.88,-122.66 176.88,-100.66 247.88,-100.66 247.88,-122.66"/>
<text text-anchor="middle" x="212.38" y="-109.46" font-family="Times New Roman,serif" font-size="9.00">near wall down</text>
</g>
<!-- food dist y -->
<g id="node3" class="node">
<title>food dist y</title>
<polygon fill="lightgray" stroke="black" points="322.38,-122.66 266.38,-122.66 266.38,-100.66 322.38,-100.66 322.38,-122.66"/>
<text text-anchor="middle" x="294.38" y="-109.46" font-family="Times New Roman,serif" font-size="9.00">food dist y</text>
</g>
<!-- near wall up -->
<g id="node4" class="node">
<title>near wall up</title>
<polygon fill="lightgray" stroke="black" points="158.88,-122.66 97.88,-122.66 97.88,-100.66 158.88,-100.66 158.88,-122.66"/>
<text text-anchor="middle" x="128.38" y="-109.46" font-family="Times New Roman,serif" font-size="9.00">near wall up</text>
</g>
<!-- left -->
<g id="node12" class="node">
<title>left</title>
<ellipse fill="lightblue" stroke="black" cx="140.38" cy="-26.16" rx="20.51" ry="20.51"/>
<text text-anchor="middle" x="140.38" y="-23.96" font-family="Times New Roman,serif" font-size="9.00">left</text>
</g>
<!-- near wall up&#45;&gt;left -->
<g id="edge4" class="edge">
<title>near wall up&#45;&gt;left</title>
<path fill="none" stroke="green" stroke-width="0.32" d="M129.86,-100.42C131.41,-89.6 133.94,-72.01 136.13,-56.78"/>
<polygon fill="green" stroke="green" stroke-width="0.32" points="139.55,-57.6 137.5,-47.21 132.62,-56.61 139.55,-57.6"/>
</g>
<!-- near wall up&#45;&gt;right -->
<g id="edge5" class="edge">
<title>near wall up&#45;&gt;right</title>
<path fill="none" stroke="red" stroke-width="0.22" d="M122.25,-100.42C115.58,-89.28 104.63,-70.99 95.33,-55.47"/>
<polygon fill="red" stroke="red" stroke-width="0.22" points="98.41,-53.79 90.27,-47.01 92.4,-57.39 98.41,-53.79"/>
</g>
<!-- food dist x -->
<g id="node5" class="node">
<title>food dist x</title>
<polygon fill="lightgray" stroke="black" points="395.88,-122.66 340.88,-122.66 340.88,-100.66 395.88,-100.66 395.88,-122.66"/>
<text text-anchor="middle" x="368.38" y="-109.46" font-family="Times New Roman,serif" font-size="9.00">food dist x</text>
</g>
<!-- near wall right -->
<g id="node6" class="node">
<title>near wall right</title>
<polygon fill="lightgray" stroke="black" points="482.38,-122.66 414.38,-122.66 414.38,-100.66 482.38,-100.66 482.38,-122.66"/>
<text text-anchor="middle" x="448.38" y="-109.46" font-family="Times New Roman,serif" font-size="9.00">near wall right</text>
</g>
<!-- down -->
<g id="node11" class="node">
<title>down</title>
<ellipse fill="lightblue" stroke="black" cx="486.38" cy="-26.16" rx="26.33" ry="26.33"/>
<text text-anchor="middle" x="486.38" y="-23.96" font-family="Times New Roman,serif" font-size="9.00">down</text>
</g>
<!-- near wall right&#45;&gt;down -->
<g id="edge2" class="edge">
<title>near wall right&#45;&gt;down</title>
<path fill="none" stroke="red" stroke-width="0.32" d="M453.04,-100.42C457.66,-90.28 464.98,-74.2 471.58,-59.68"/>
<polygon fill="red" stroke="red" stroke-width="0.32" points="474.63,-61.44 475.59,-50.89 468.26,-58.54 474.63,-61.44"/>
</g>
<!-- life pos x -->
<g id="node7" class="node">
<title>life pos x</title>
<polygon fill="lightgray" stroke="black" points="550.38,-122.66 500.38,-122.66 500.38,-100.66 550.38,-100.66 550.38,-122.66"/>
<text text-anchor="middle" x="525.38" y="-109.46" font-family="Times New Roman,serif" font-size="9.00">life pos x</text>
</g>
<!-- life pos x&#45;&gt;down -->
<g id="edge3" class="edge">
<title>life pos x&#45;&gt;down</title>
<path fill="none" stroke="green" stroke-width="0.14" d="M520.6,-100.42C515.86,-90.28 508.35,-74.2 501.57,-59.68"/>
<polygon fill="green" stroke="green" stroke-width="0.14" points="504.76,-58.23 497.35,-50.65 498.41,-61.19 504.76,-58.23"/>
</g>
<!-- near wall left -->
<g id="node8" class="node">
<title>near wall left</title>
<polygon fill="lightgray" stroke="black" points="631.88,-122.66 568.88,-122.66 568.88,-100.66 631.88,-100.66 631.88,-122.66"/>
<text text-anchor="middle" x="600.38" y="-109.46" font-family="Times New Roman,serif" font-size="9.00">near wall left</text>
</g>
<!-- stop -->
<g id="node9" class="node">
<title>stop</title>
<ellipse fill="lightblue" stroke="black" cx="673.38" cy="-111.66" rx="23.17" ry="23.17"/>
<text text-anchor="middle" x="673.38" y="-109.46" font-family="Times New Roman,serif" font-size="9.00">stop</text>
</g>
</g>
</svg>
