<?xml version="1.0" encoding="UTF-8" standalone="no"?>
<!DOCTYPE svg PUBLIC "-//W3C//DTD SVG 1.1//EN"
 "http://www.w3.org/Graphics/SVG/1.1/DTD/svg11.dtd">
<!-- Generated by graphviz version 7.1.0 (20230121.1956)
 -->
<!-- Pages: 1 -->
<svg width="443pt" height="143pt"
 viewBox="0.00 0.00 442.66 142.99" xmlns="http://www.w3.org/2000/svg" xmlns:xlink="http://www.w3.org/1999/xlink">
<g id="graph0" class="graph" transform="scale(1 1) rotate(0) translate(4 138.99)">
<polygon fill="white" stroke="none" points="-4,4 -4,-138.99 438.66,-138.99 438.66,4 -4,4"/>
<!-- life pos y -->
<g id="node1" class="node">
<title>life pos y</title>
<polygon fill="lightgray" stroke="black" points="51,-119.83 0,-119.83 0,-97.83 51,-97.83 51,-119.83"/>
<text text-anchor="middle" x="25.5" y="-106.63" font-family="Times New Roman,serif" font-size="9.00">life pos y</text>
</g>
<!-- abs y -->
<g id="node2" class="node">
<title>abs y</title>
<polygon fill="lightgray" stroke="black" points="105.5,-119.83 69.5,-119.83 69.5,-97.83 105.5,-97.83 105.5,-119.83"/>
<text text-anchor="middle" x="87.5" y="-106.63" font-family="Times New Roman,serif" font-size="9.00">abs y</text>
</g>
<!-- left -->
<g id="node9" class="node">
<title>left</title>
<ellipse fill="lightblue" stroke="black" cx="87.5" cy="-23.33" rx="20.51" ry="20.51"/>
<text text-anchor="middle" x="87.5" y="-21.13" font-family="Times New Roman,serif" font-size="9.00">left</text>
</g>
<!-- abs y&#45;&gt;left -->
<g id="edge2" class="edge">
<title>abs y&#45;&gt;left</title>
<path fill="none" stroke="green" stroke-width="0.76" d="M87.5,-97.59C87.5,-87.04 87.5,-70.08 87.5,-55.13"/>
<polygon fill="green" stroke="green" stroke-width="0.76" points="91,-55.37 87.5,-45.37 84,-55.37 91,-55.37"/>
</g>
<!-- near wall? -->
<g id="node3" class="node">
<title>near wall?</title>
<polygon fill="lightgray" stroke="black" points="232,-119.83 179,-119.83 179,-97.83 232,-97.83 232,-119.83"/>
<text text-anchor="middle" x="205.5" y="-106.63" font-family="Times New Roman,serif" font-size="9.00">near wall?</text>
</g>
<!-- right -->
<g id="node10" class="node">
<title>right</title>
<ellipse fill="lightblue" stroke="black" cx="205.5" cy="-23.33" rx="23.17" ry="23.17"/>
<text text-anchor="middle" x="205.5" y="-21.13" font-family="Times New Roman,serif" font-size="9.00">right</text>
</g>
<!-- near wall?&#45;&gt;right -->
<g id="edge1" class="edge">
<title>near wall?&#45;&gt;right</title>
<path fill="none" stroke="red" stroke-width="1.26" d="M205.5,-97.59C205.5,-87.89 205.5,-72.77 205.5,-58.77"/>
<polygon fill="red" stroke="red" stroke-width="1.26" points="209,-58.84 205.5,-48.84 202,-58.84 209,-58.84"/>
</g>
<!-- abs x -->
<g id="node4" class="node">
<title>abs x</title>
<polygon fill="lightgray" stroke="black" points="160,-119.83 125,-119.83 125,-97.83 160,-97.83 160,-119.83"/>
<text text-anchor="middle" x="142.5" y="-106.63" font-family="Times New Roman,serif" font-size="9.00">abs x</text>
</g>
<!-- up -->
<g id="node7" class="node">
<title>up</title>
<ellipse fill="lightblue" stroke="black" cx="144.5" cy="-23.33" rx="18.27" ry="18.27"/>
<text text-anchor="middle" x="144.5" y="-21.13" font-family="Times New Roman,serif" font-size="9.00">up</text>
</g>
<!-- abs x&#45;&gt;up -->
<g id="edge3" class="edge">
<title>abs x&#45;&gt;up</title>
<path fill="none" stroke="green" stroke-width="0.49" d="M142.75,-97.59C143.01,-86.45 143.45,-68.15 143.82,-52.62"/>
<polygon fill="green" stroke="green" stroke-width="0.49" points="147.32,-52.77 144.06,-42.69 140.32,-52.6 147.32,-52.77"/>
</g>
<!-- abs x&#45;&gt;left -->
<g id="edge4" class="edge">
<title>abs x&#45;&gt;left</title>
<path fill="none" stroke="red" stroke-width="0.46" d="M135.76,-97.59C127.99,-85.8 114.93,-65.98 104.36,-49.93"/>
<polygon fill="red" stroke="red" stroke-width="0.46" points="107.29,-48.01 98.86,-41.58 101.44,-51.86 107.29,-48.01"/>
</g>
<!-- life pos x -->
<g id="node5" class="node">
<title>life pos x</title>
<polygon fill="lightgray" stroke="black" points="300.5,-119.83 250.5,-119.83 250.5,-97.83 300.5,-97.83 300.5,-119.83"/>
<text text-anchor="middle" x="275.5" y="-106.63" font-family="Times New Roman,serif" font-size="9.00">life pos x</text>
</g>
<!-- stop -->
<g id="node6" class="node">
<title>stop</title>
<ellipse fill="lightblue" stroke="black" cx="341.5" cy="-108.83" rx="23.17" ry="23.17"/>
<text text-anchor="middle" x="341.5" y="-106.63" font-family="Times New Roman,serif" font-size="9.00">stop</text>
</g>
<!-- down -->
<g id="node8" class="node">
<title>down</title>
<ellipse fill="lightblue" stroke="black" cx="408.5" cy="-108.83" rx="26.33" ry="26.33"/>
<text text-anchor="middle" x="408.5" y="-106.63" font-family="Times New Roman,serif" font-size="9.00">down</text>
</g>
</g>
</svg>
