<?xml version="1.0" encoding="UTF-8" standalone="no"?>
<!DOCTYPE svg PUBLIC "-//W3C//DTD SVG 1.1//EN"
 "http://www.w3.org/Graphics/SVG/1.1/DTD/svg11.dtd">
<!-- Generated by graphviz version 7.1.0 (20230121.1956)
 -->
<!-- Pages: 1 -->
<svg width="501pt" height="143pt"
 viewBox="0.00 0.00 500.66 142.99" xmlns="http://www.w3.org/2000/svg" xmlns:xlink="http://www.w3.org/1999/xlink">
<g id="graph0" class="graph" transform="scale(1 1) rotate(0) translate(4 138.99)">
<polygon fill="white" stroke="none" points="-4,4 -4,-138.99 496.66,-138.99 496.66,4 -4,4"/>
<!-- life pos y -->
<g id="node1" class="node">
<title>life pos y</title>
<polygon fill="lightgray" stroke="black" points="51,-119.83 0,-119.83 0,-97.83 51,-97.83 51,-119.83"/>
<text text-anchor="middle" x="25.5" y="-106.63" font-family="Times New Roman,serif" font-size="9.00">life pos y</text>
</g>
<!-- abs y -->
<g id="node2" class="node">
<title>abs y</title>
<polygon fill="lightgray" stroke="black" points="105.5,-119.83 69.5,-119.83 69.5,-97.83 105.5,-97.83 105.5,-119.83"/>
<text text-anchor="middle" x="87.5" y="-106.63" font-family="Times New Roman,serif" font-size="9.00">abs y</text>
</g>
<!-- left -->
<g id="node9" class="node">
<title>left</title>
<ellipse fill="lightblue" stroke="black" cx="116.5" cy="-23.33" rx="20.51" ry="20.51"/>
<text text-anchor="middle" x="116.5" y="-21.13" font-family="Times New Roman,serif" font-size="9.00">left</text>
</g>
<!-- abs y&#45;&gt;left -->
<g id="edge2" class="edge">
<title>abs y&#45;&gt;left</title>
<path fill="none" stroke="green" stroke-width="0.2" stroke-dasharray="1,5" d="M91.06,-97.59C94.9,-86.52 101.2,-68.37 106.57,-52.91"/>
<polygon fill="green" stroke="green" stroke-width="0.2" points="109.86,-54.13 109.83,-43.53 103.24,-51.83 109.86,-54.13"/>
</g>
<!-- near wall? -->
<g id="node3" class="node">
<title>near wall?</title>
<polygon fill="lightgray" stroke="black" points="237,-119.83 184,-119.83 184,-97.83 237,-97.83 237,-119.83"/>
<text text-anchor="middle" x="210.5" y="-106.63" font-family="Times New Roman,serif" font-size="9.00">near wall?</text>
</g>
<!-- right -->
<g id="node10" class="node">
<title>right</title>
<ellipse fill="lightblue" stroke="black" cx="210.5" cy="-23.33" rx="23.17" ry="23.17"/>
<text text-anchor="middle" x="210.5" y="-21.13" font-family="Times New Roman,serif" font-size="9.00">right</text>
</g>
<!-- near wall?&#45;&gt;right -->
<g id="edge1" class="edge">
<title>near wall?&#45;&gt;right</title>
<path fill="none" stroke="red" stroke-width="0.95" d="M210.5,-97.59C210.5,-87.8 210.5,-72.46 210.5,-58.35"/>
<polygon fill="red" stroke="red" stroke-width="0.95" points="214,-58.36 210.5,-48.36 207,-58.36 214,-58.36"/>
</g>
<!-- abs x -->
<g id="node4" class="node">
<title>abs x</title>
<polygon fill="lightgray" stroke="black" points="290,-119.83 255,-119.83 255,-97.83 290,-97.83 290,-119.83"/>
<text text-anchor="middle" x="272.5" y="-106.63" font-family="Times New Roman,serif" font-size="9.00">abs x</text>
</g>
<!-- up -->
<g id="node7" class="node">
<title>up</title>
<ellipse fill="lightblue" stroke="black" cx="272.5" cy="-23.33" rx="18.27" ry="18.27"/>
<text text-anchor="middle" x="272.5" y="-21.13" font-family="Times New Roman,serif" font-size="9.00">up</text>
</g>
<!-- abs x&#45;&gt;up -->
<g id="edge3" class="edge">
<title>abs x&#45;&gt;up</title>
<path fill="none" stroke="red" stroke-width="0.13" d="M272.5,-97.59C272.5,-86.23 272.5,-67.43 272.5,-51.72"/>
<polygon fill="red" stroke="red" stroke-width="0.13" points="276,-52.14 272.5,-42.14 269,-52.14 276,-52.14"/>
</g>
<!-- life pos x -->
<g id="node5" class="node">
<title>life pos x</title>
<polygon fill="lightgray" stroke="black" points="358.5,-119.83 308.5,-119.83 308.5,-97.83 358.5,-97.83 358.5,-119.83"/>
<text text-anchor="middle" x="333.5" y="-106.63" font-family="Times New Roman,serif" font-size="9.00">life pos x</text>
</g>
<!-- stop -->
<g id="node6" class="node">
<title>stop</title>
<ellipse fill="lightblue" stroke="black" cx="399.5" cy="-108.83" rx="23.17" ry="23.17"/>
<text text-anchor="middle" x="399.5" y="-106.63" font-family="Times New Roman,serif" font-size="9.00">stop</text>
</g>
<!-- down -->
<g id="node8" class="node">
<title>down</title>
<ellipse fill="lightblue" stroke="black" cx="466.5" cy="-108.83" rx="26.33" ry="26.33"/>
<text text-anchor="middle" x="466.5" y="-106.63" font-family="Times New Roman,serif" font-size="9.00">down</text>
</g>
<!-- 600 -->
<g id="node11" class="node">
<title>600</title>
<ellipse fill="white" stroke="black" cx="144.5" cy="-108.83" rx="21.43" ry="21.43"/>
<text text-anchor="middle" x="144.5" y="-106.63" font-family="Times New Roman,serif" font-size="9.00">600</text>
</g>
<!-- 600&#45;&gt;left -->
<g id="edge4" class="edge">
<title>600&#45;&gt;left</title>
<path fill="none" stroke="green" stroke-width="0.28" d="M137.86,-88.04C134.34,-77.53 129.94,-64.41 126.05,-52.81"/>
<polygon fill="green" stroke="green" stroke-width="0.28" points="129.43,-51.89 122.93,-43.52 122.8,-54.11 129.43,-51.89"/>
</g>
</g>
</svg>
