<?xml version="1.0" encoding="UTF-8" standalone="no"?>
<!DOCTYPE svg PUBLIC "-//W3C//DTD SVG 1.1//EN"
 "http://www.w3.org/Graphics/SVG/1.1/DTD/svg11.dtd">
<!-- Generated by graphviz version 7.1.0 (20230121.1956)
 -->
<!-- Pages: 1 -->
<svg width="396pt" height="143pt"
 viewBox="0.00 0.00 395.72 142.99" xmlns="http://www.w3.org/2000/svg" xmlns:xlink="http://www.w3.org/1999/xlink">
<g id="graph0" class="graph" transform="scale(1 1) rotate(0) translate(4 138.99)">
<polygon fill="white" stroke="none" points="-4,4 -4,-138.99 391.72,-138.99 391.72,4 -4,4"/>
<!-- life pos y -->
<g id="node1" class="node">
<title>life pos y</title>
<polygon fill="lightgray" stroke="black" points="106.88,-122.66 55.88,-122.66 55.88,-100.66 106.88,-100.66 106.88,-122.66"/>
<text text-anchor="middle" x="81.38" y="-109.46" font-family="Times New Roman,serif" font-size="9.00">life pos y</text>
</g>
<!-- up -->
<g id="node6" class="node">
<title>up</title>
<ellipse fill="lightblue" stroke="black" cx="18.38" cy="-26.16" rx="18.27" ry="18.27"/>
<text text-anchor="middle" x="18.38" y="-23.96" font-family="Times New Roman,serif" font-size="9.00">up</text>
</g>
<!-- life pos y&#45;&gt;up -->
<g id="edge4" class="edge">
<title>life pos y&#45;&gt;up</title>
<path fill="none" stroke="red" stroke-width="0.19" d="M73.66,-100.42C64.15,-87.81 47.72,-66.04 35.24,-49.5"/>
<polygon fill="red" stroke="red" stroke-width="0.19" points="38.12,-47.5 29.3,-41.63 32.53,-51.72 38.12,-47.5"/>
</g>
<!-- down -->
<g id="node7" class="node">
<title>down</title>
<ellipse fill="lightblue" stroke="black" cx="81.38" cy="-26.16" rx="26.33" ry="26.33"/>
<text text-anchor="middle" x="81.38" y="-23.96" font-family="Times New Roman,serif" font-size="9.00">down</text>
</g>
<!-- life pos y&#45;&gt;down -->
<g id="edge5" class="edge">
<title>life pos y&#45;&gt;down</title>
<path fill="none" stroke="red" stroke-width="0.29" d="M81.38,-100.42C81.38,-91.05 81.38,-76.62 81.38,-63.04"/>
<polygon fill="red" stroke="red" stroke-width="0.29" points="84.88,-63.36 81.38,-53.36 77.88,-63.36 84.88,-63.36"/>
</g>
<!-- left -->
<g id="node8" class="node">
<title>left</title>
<ellipse fill="lightblue" stroke="black" cx="146.38" cy="-26.16" rx="20.51" ry="20.51"/>
<text text-anchor="middle" x="146.38" y="-23.96" font-family="Times New Roman,serif" font-size="9.00">left</text>
</g>
<!-- life pos y&#45;&gt;left -->
<g id="edge3" class="edge">
<title>life pos y&#45;&gt;left</title>
<path fill="none" stroke="green" stroke-width="0.33" d="M89.36,-100.42C98.88,-88.18 115.13,-67.31 127.85,-50.97"/>
<polygon fill="green" stroke="green" stroke-width="0.33" points="130.44,-53.34 133.82,-43.3 124.92,-49.04 130.44,-53.34"/>
</g>
<!-- food dist y -->
<g id="node2" class="node">
<title>food dist y</title>
<polygon fill="lightgray" stroke="black" points="181.38,-122.66 125.38,-122.66 125.38,-100.66 181.38,-100.66 181.38,-122.66"/>
<text text-anchor="middle" x="153.38" y="-109.46" font-family="Times New Roman,serif" font-size="9.00">food dist y</text>
</g>
<!-- right -->
<g id="node9" class="node">
<title>right</title>
<ellipse fill="lightblue" stroke="black" cx="218.38" cy="-26.16" rx="23.17" ry="23.17"/>
<text text-anchor="middle" x="218.38" y="-23.96" font-family="Times New Roman,serif" font-size="9.00">right</text>
</g>
<!-- food dist y&#45;&gt;right -->
<g id="edge1" class="edge">
<title>food dist y&#45;&gt;right</title>
<path fill="none" stroke="green" stroke-width="0.22" stroke-dasharray="1,5" d="M161.36,-100.42C170.48,-88.7 185.76,-69.07 198.22,-53.07"/>
<polygon fill="green" stroke="green" stroke-width="0.22" points="200.84,-55.4 204.22,-45.36 195.31,-51.1 200.84,-55.4"/>
</g>
<!-- food dist x -->
<g id="node3" class="node">
<title>food dist x</title>
<polygon fill="lightgray" stroke="black" points="254.88,-122.66 199.88,-122.66 199.88,-100.66 254.88,-100.66 254.88,-122.66"/>
<text text-anchor="middle" x="227.38" y="-109.46" font-family="Times New Roman,serif" font-size="9.00">food dist x</text>
</g>
<!-- food dist x&#45;&gt;right -->
<g id="edge2" class="edge">
<title>food dist x&#45;&gt;right</title>
<path fill="none" stroke="green" stroke-width="0.36" d="M226.28,-100.42C225.19,-90.26 223.45,-74.14 221.88,-59.61"/>
<polygon fill="green" stroke="green" stroke-width="0.36" points="225.39,-59.52 220.84,-49.95 218.43,-60.27 225.39,-59.52"/>
</g>
<!-- life pos x -->
<g id="node4" class="node">
<title>life pos x</title>
<polygon fill="lightgray" stroke="black" points="323.38,-122.66 273.38,-122.66 273.38,-100.66 323.38,-100.66 323.38,-122.66"/>
<text text-anchor="middle" x="298.38" y="-109.46" font-family="Times New Roman,serif" font-size="9.00">life pos x</text>
</g>
<!-- stop -->
<g id="node5" class="node">
<title>stop</title>
<ellipse fill="lightblue" stroke="black" cx="364.38" cy="-111.66" rx="23.17" ry="23.17"/>
<text text-anchor="middle" x="364.38" y="-109.46" font-family="Times New Roman,serif" font-size="9.00">stop</text>
</g>
</g>
</svg>
