<?xml version="1.0" encoding="UTF-8" standalone="no"?>
<!DOCTYPE svg PUBLIC "-//W3C//DTD SVG 1.1//EN"
 "http://www.w3.org/Graphics/SVG/1.1/DTD/svg11.dtd">
<!-- Generated by graphviz version 7.1.0 (20230121.1956)
 -->
<!-- Pages: 1 -->
<svg width="335pt" height="304pt"
 viewBox="0.00 0.00 334.71 304.09" xmlns="http://www.w3.org/2000/svg" xmlns:xlink="http://www.w3.org/1999/xlink">
<g id="graph0" class="graph" transform="scale(1 1) rotate(0) translate(4 300.09)">
<polygon fill="white" stroke="none" points="-4,4 -4,-300.09 330.71,-300.09 330.71,4 -4,4"/>
<!-- life pos y -->
<g id="node1" class="node">
<title>life pos y</title>
<polygon fill="lightgray" stroke="black" points="51,-283.76 0,-283.76 0,-261.76 51,-261.76 51,-283.76"/>
<text text-anchor="middle" x="25.5" y="-270.56" font-family="Times New Roman,serif" font-size="9.00">life pos y</text>
</g>
<!-- rel y -->
<g id="node2" class="node">
<title>rel y</title>
<polygon fill="lightgray" stroke="black" points="102,-283.76 69,-283.76 69,-261.76 102,-261.76 102,-283.76"/>
<text text-anchor="middle" x="85.5" y="-270.56" font-family="Times New Roman,serif" font-size="9.00">rel y</text>
</g>
<!-- right -->
<g id="node10" class="node">
<title>right</title>
<ellipse fill="lightblue" stroke="black" cx="85.5" cy="-190.09" rx="23.17" ry="23.17"/>
<text text-anchor="middle" x="85.5" y="-187.89" font-family="Times New Roman,serif" font-size="9.00">right</text>
</g>
<!-- rel y&#45;&gt;right -->
<g id="edge2" class="edge">
<title>rel y&#45;&gt;right</title>
<path fill="none" stroke="red" stroke-width="0.41" d="M85.5,-261.54C85.5,-252.11 85.5,-237.56 85.5,-224.14"/>
<polygon fill="red" stroke="red" stroke-width="0.41" points="89,-224.35 85.5,-214.35 82,-224.35 89,-224.35"/>
</g>
<!-- near wall? -->
<g id="node3" class="node">
<title>near wall?</title>
<polygon fill="lightgray" stroke="black" points="175,-283.76 122,-283.76 122,-261.76 175,-261.76 175,-283.76"/>
<text text-anchor="middle" x="148.5" y="-270.56" font-family="Times New Roman,serif" font-size="9.00">near wall?</text>
</g>
<!-- 111 -->
<g id="node11" class="node">
<title>111</title>
<ellipse fill="white" stroke="black" cx="148.5" cy="-190.09" rx="21.43" ry="21.43"/>
<text text-anchor="middle" x="148.5" y="-187.89" font-family="Times New Roman,serif" font-size="9.00">111</text>
</g>
<!-- near wall?&#45;&gt;111 -->
<g id="edge6" class="edge">
<title>near wall?&#45;&gt;111</title>
<path fill="none" stroke="red" stroke-width="0.16" d="M148.5,-261.54C148.5,-251.51 148.5,-235.71 148.5,-221.61"/>
<polygon fill="red" stroke="red" stroke-width="0.16" points="152,-221.99 148.5,-211.99 145,-221.99 152,-221.99"/>
</g>
<!-- rel x -->
<g id="node4" class="node">
<title>rel x</title>
<polygon fill="lightgray" stroke="black" points="219.5,-201.09 187.5,-201.09 187.5,-179.09 219.5,-179.09 219.5,-201.09"/>
<text text-anchor="middle" x="203.5" y="-187.89" font-family="Times New Roman,serif" font-size="9.00">rel x</text>
</g>
<!-- up -->
<g id="node7" class="node">
<title>up</title>
<ellipse fill="lightblue" stroke="black" cx="247.5" cy="-109.54" rx="18.27" ry="18.27"/>
<text text-anchor="middle" x="247.5" y="-107.34" font-family="Times New Roman,serif" font-size="9.00">up</text>
</g>
<!-- rel x&#45;&gt;up -->
<g id="edge5" class="edge">
<title>rel x&#45;&gt;up</title>
<path fill="none" stroke="green" stroke-width="0.28" d="M209.25,-178.82C215.5,-167.66 225.71,-149.45 234,-134.63"/>
<polygon fill="green" stroke="green" stroke-width="0.28" points="236.83,-136.76 238.66,-126.32 230.72,-133.34 236.83,-136.76"/>
</g>
<!-- down -->
<g id="node8" class="node">
<title>down</title>
<ellipse fill="lightblue" stroke="black" cx="253.5" cy="-26.16" rx="26.33" ry="26.33"/>
<text text-anchor="middle" x="253.5" y="-23.96" font-family="Times New Roman,serif" font-size="9.00">down</text>
</g>
<!-- rel x&#45;&gt;down -->
<g id="edge4" class="edge">
<title>rel x&#45;&gt;down</title>
<path fill="none" stroke="red" stroke-width="0.53" d="M204.12,-178.8C205.49,-160.27 209.55,-120.2 220.5,-88.33 224.02,-78.08 229.13,-67.49 234.29,-58.07"/>
<polygon fill="red" stroke="red" stroke-width="0.53" points="237.3,-59.84 239.21,-49.42 231.22,-56.38 237.3,-59.84"/>
</g>
<!-- left -->
<g id="node9" class="node">
<title>left</title>
<ellipse fill="lightblue" stroke="black" cx="151.5" cy="-109.54" rx="20.51" ry="20.51"/>
<text text-anchor="middle" x="151.5" y="-107.34" font-family="Times New Roman,serif" font-size="9.00">left</text>
</g>
<!-- rel x&#45;&gt;left -->
<g id="edge1" class="edge">
<title>rel x&#45;&gt;left</title>
<path fill="none" stroke="green" stroke-width="0.19" stroke-dasharray="1,5" d="M196.7,-178.82C189.43,-167.83 177.63,-150.01 167.91,-135.33"/>
<polygon fill="green" stroke="green" stroke-width="0.19" points="171.07,-133.76 162.63,-127.36 165.23,-137.63 171.07,-133.76"/>
</g>
<!-- life pos x -->
<g id="node5" class="node">
<title>life pos x</title>
<polygon fill="lightgray" stroke="black" points="309.5,-201.09 259.5,-201.09 259.5,-179.09 309.5,-179.09 309.5,-201.09"/>
<text text-anchor="middle" x="284.5" y="-187.89" font-family="Times New Roman,serif" font-size="9.00">life pos x</text>
</g>
<!-- life pos x&#45;&gt;up -->
<g id="edge3" class="edge">
<title>life pos x&#45;&gt;up</title>
<path fill="none" stroke="green" stroke-width="0.61" stroke-dasharray="1,5" d="M279.66,-178.82C274.57,-168.01 266.36,-150.57 259.5,-136.02"/>
<polygon fill="green" stroke="green" stroke-width="0.61" points="262.85,-134.92 255.43,-127.36 256.52,-137.9 262.85,-134.92"/>
</g>
<!-- 178 -->
<g id="node12" class="node">
<title>178</title>
<ellipse fill="white" stroke="black" cx="305.5" cy="-109.54" rx="21.43" ry="21.43"/>
<text text-anchor="middle" x="305.5" y="-107.34" font-family="Times New Roman,serif" font-size="9.00">178</text>
</g>
<!-- life pos x&#45;&gt;178 -->
<g id="edge8" class="edge">
<title>life pos x&#45;&gt;178</title>
<path fill="none" stroke="green" stroke-width="0.36" d="M287.25,-178.82C289.85,-169.08 293.89,-153.95 297.51,-140.41"/>
<polygon fill="green" stroke="green" stroke-width="0.36" points="300.82,-141.58 300.03,-131.01 294.06,-139.77 300.82,-141.58"/>
</g>
<!-- stop -->
<g id="node6" class="node">
<title>stop</title>
<ellipse fill="lightblue" stroke="black" cx="216.5" cy="-272.76" rx="23.17" ry="23.17"/>
<text text-anchor="middle" x="216.5" y="-270.56" font-family="Times New Roman,serif" font-size="9.00">stop</text>
</g>
<!-- 111&#45;&gt;left -->
<g id="edge7" class="edge">
<title>111&#45;&gt;left</title>
<path fill="none" stroke="green" stroke-width="0.15" d="M149.29,-168.45C149.61,-159.93 150,-149.88 150.35,-140.58"/>
<polygon fill="green" stroke="green" stroke-width="0.15" points="153.84,-140.85 150.73,-130.72 146.85,-140.58 153.84,-140.85"/>
</g>
<!-- 178&#45;&gt;down -->
<g id="edge9" class="edge">
<title>178&#45;&gt;down</title>
<path fill="none" stroke="red" stroke-width="0.35" d="M294.22,-90.88C287.99,-81.14 280.1,-68.78 272.91,-57.54"/>
<polygon fill="red" stroke="red" stroke-width="0.35" points="275.97,-55.83 267.64,-49.29 270.08,-59.6 275.97,-55.83"/>
</g>
</g>
</svg>
