<?xml version="1.0" encoding="UTF-8" standalone="no"?>
<!DOCTYPE svg PUBLIC "-//W3C//DTD SVG 1.1//EN"
 "http://www.w3.org/Graphics/SVG/1.1/DTD/svg11.dtd">
<!-- Generated by graphviz version 7.1.0 (20230121.1956)
 -->
<!-- Pages: 1 -->
<svg width="386pt" height="304pt"
 viewBox="0.00 0.00 385.83 304.09" xmlns="http://www.w3.org/2000/svg" xmlns:xlink="http://www.w3.org/1999/xlink">
<g id="graph0" class="graph" transform="scale(1 1) rotate(0) translate(4 300.09)">
<polygon fill="white" stroke="none" points="-4,4 -4,-300.09 381.83,-300.09 381.83,4 -4,4"/>
<!-- life pos y -->
<g id="node1" class="node">
<title>life pos y</title>
<polygon fill="lightgray" stroke="black" points="51,-283.76 0,-283.76 0,-261.76 51,-261.76 51,-283.76"/>
<text text-anchor="middle" x="25.5" y="-270.56" font-family="Times New Roman,serif" font-size="9.00">life pos y</text>
</g>
<!-- food dist y -->
<g id="node2" class="node">
<title>food dist y</title>
<polygon fill="lightgray" stroke="black" points="125.5,-283.76 69.5,-283.76 69.5,-261.76 125.5,-261.76 125.5,-283.76"/>
<text text-anchor="middle" x="97.5" y="-270.56" font-family="Times New Roman,serif" font-size="9.00">food dist y</text>
</g>
<!-- right -->
<g id="node9" class="node">
<title>right</title>
<ellipse fill="lightblue" stroke="black" cx="97.5" cy="-190.09" rx="23.17" ry="23.17"/>
<text text-anchor="middle" x="97.5" y="-187.89" font-family="Times New Roman,serif" font-size="9.00">right</text>
</g>
<!-- food dist y&#45;&gt;right -->
<g id="edge1" class="edge">
<title>food dist y&#45;&gt;right</title>
<path fill="none" stroke="red" stroke-width="0.37" d="M97.5,-261.54C97.5,-252.11 97.5,-237.56 97.5,-224.14"/>
<polygon fill="red" stroke="red" stroke-width="0.37" points="101,-224.28 97.5,-214.28 94,-224.28 101,-224.28"/>
</g>
<!-- food dist x -->
<g id="node3" class="node">
<title>food dist x</title>
<polygon fill="lightgray" stroke="black" points="245,-283.76 190,-283.76 190,-261.76 245,-261.76 245,-283.76"/>
<text text-anchor="middle" x="217.5" y="-270.56" font-family="Times New Roman,serif" font-size="9.00">food dist x</text>
</g>
<!-- down -->
<g id="node7" class="node">
<title>down</title>
<ellipse fill="lightblue" stroke="black" cx="203.5" cy="-26.16" rx="26.33" ry="26.33"/>
<text text-anchor="middle" x="203.5" y="-23.96" font-family="Times New Roman,serif" font-size="9.00">down</text>
</g>
<!-- food dist x&#45;&gt;down -->
<g id="edge2" class="edge">
<title>food dist x&#45;&gt;down</title>
<path fill="none" stroke="red" stroke-width="0.32" d="M212.33,-261.44C199.03,-233.57 165.51,-154.46 178.5,-88.33 180.4,-78.65 183.84,-68.59 187.57,-59.47"/>
<polygon fill="red" stroke="red" stroke-width="0.32" points="190.71,-61.03 191.49,-50.47 184.29,-58.24 190.71,-61.03"/>
</g>
<!-- 64 -->
<g id="node10" class="node">
<title>64</title>
<ellipse fill="white" stroke="black" cx="240.5" cy="-190.09" rx="18.27" ry="18.27"/>
<text text-anchor="middle" x="240.5" y="-187.89" font-family="Times New Roman,serif" font-size="9.00">64</text>
</g>
<!-- food dist x&#45;&gt;64 -->
<g id="edge3" class="edge">
<title>food dist x&#45;&gt;64</title>
<path fill="none" stroke="red" stroke-width="0.11" d="M220.41,-261.54C223.57,-250.48 228.72,-232.4 233.02,-217.33"/>
<polygon fill="red" stroke="red" stroke-width="0.11" points="236.27,-218.7 235.64,-208.12 229.54,-216.78 236.27,-218.7"/>
</g>
<!-- life pos x -->
<g id="node4" class="node">
<title>life pos x</title>
<polygon fill="lightgray" stroke="black" points="313.5,-283.76 263.5,-283.76 263.5,-261.76 313.5,-261.76 313.5,-283.76"/>
<text text-anchor="middle" x="288.5" y="-270.56" font-family="Times New Roman,serif" font-size="9.00">life pos x</text>
</g>
<!-- stop -->
<g id="node5" class="node">
<title>stop</title>
<ellipse fill="lightblue" stroke="black" cx="354.5" cy="-272.76" rx="23.17" ry="23.17"/>
<text text-anchor="middle" x="354.5" y="-270.56" font-family="Times New Roman,serif" font-size="9.00">stop</text>
</g>
<!-- up -->
<g id="node6" class="node">
<title>up</title>
<ellipse fill="lightblue" stroke="black" cx="205.5" cy="-109.54" rx="18.27" ry="18.27"/>
<text text-anchor="middle" x="205.5" y="-107.34" font-family="Times New Roman,serif" font-size="9.00">up</text>
</g>
<!-- left -->
<g id="node8" class="node">
<title>left</title>
<ellipse fill="lightblue" stroke="black" cx="287.5" cy="-26.16" rx="20.51" ry="20.51"/>
<text text-anchor="middle" x="287.5" y="-23.96" font-family="Times New Roman,serif" font-size="9.00">left</text>
</g>
<!-- 64&#45;&gt;up -->
<g id="edge7" class="edge">
<title>64&#45;&gt;up</title>
<path fill="none" stroke="red" stroke-width="0.32" d="M233.25,-172.81C228.56,-162.28 222.34,-148.34 216.99,-136.32"/>
<polygon fill="red" stroke="red" stroke-width="0.32" points="220.21,-134.95 212.94,-127.24 213.81,-137.8 220.21,-134.95"/>
</g>
<!-- 64&#45;&gt;left -->
<g id="edge4" class="edge">
<title>64&#45;&gt;left</title>
<path fill="none" stroke="green" stroke-width="0.22" d="M254.92,-178.45C267.81,-167.97 285.81,-150.66 293.5,-130.75 302.72,-106.89 299.87,-77.63 295.49,-56.3"/>
<polygon fill="green" stroke="green" stroke-width="0.22" points="298.91,-55.53 293.27,-46.56 292.08,-57.08 298.91,-55.53"/>
</g>
<!-- 129 -->
<g id="node11" class="node">
<title>129</title>
<ellipse fill="white" stroke="black" cx="263.5" cy="-109.54" rx="21.43" ry="21.43"/>
<text text-anchor="middle" x="263.5" y="-107.34" font-family="Times New Roman,serif" font-size="9.00">129</text>
</g>
<!-- 64&#45;&gt;129 -->
<g id="edge5" class="edge">
<title>64&#45;&gt;129</title>
<path fill="none" stroke="red" stroke-width="0.39" d="M245.49,-172.04C248.19,-162.81 251.61,-151.14 254.74,-140.44"/>
<polygon fill="red" stroke="red" stroke-width="0.39" points="258.01,-141.76 257.46,-131.18 251.29,-139.79 258.01,-141.76"/>
</g>
<!-- 129&#45;&gt;down -->
<g id="edge8" class="edge">
<title>129&#45;&gt;down</title>
<path fill="none" stroke="red" stroke-width="0.51" d="M251.07,-91.68C243.63,-81.59 233.96,-68.48 225.29,-56.71"/>
<polygon fill="red" stroke="red" stroke-width="0.51" points="228.11,-54.65 219.36,-48.68 222.48,-58.8 228.11,-54.65"/>
</g>
<!-- 129&#45;&gt;left -->
<g id="edge6" class="edge">
<title>129&#45;&gt;left</title>
<path fill="none" stroke="red" stroke-width="0.28" d="M269.43,-88.42C272.31,-78.65 275.83,-66.73 278.99,-56.01"/>
<polygon fill="red" stroke="red" stroke-width="0.28" points="282.29,-57.2 281.76,-46.62 275.58,-55.22 282.29,-57.2"/>
</g>
</g>
</svg>
