<?xml version="1.0" encoding="UTF-8" standalone="no"?>
<!DOCTYPE svg PUBLIC "-//W3C//DTD SVG 1.1//EN"
 "http://www.w3.org/Graphics/SVG/1.1/DTD/svg11.dtd">
<!-- Generated by graphviz version 7.1.0 (20230121.1956)
 -->
<!-- Pages: 1 -->
<svg width="343pt" height="304pt"
 viewBox="0.00 0.00 342.55 304.09" xmlns="http://www.w3.org/2000/svg" xmlns:xlink="http://www.w3.org/1999/xlink">
<g id="graph0" class="graph" transform="scale(1 1) rotate(0) translate(4 300.09)">
<polygon fill="white" stroke="none" points="-4,4 -4,-300.09 338.55,-300.09 338.55,4 -4,4"/>
<!-- life pos y -->
<g id="node1" class="node">
<title>life pos y</title>
<polygon fill="lightgray" stroke="black" points="198.71,-283.76 147.71,-283.76 147.71,-261.76 198.71,-261.76 198.71,-283.76"/>
<text text-anchor="middle" x="173.21" y="-270.56" font-family="Times New Roman,serif" font-size="9.00">life pos y</text>
</g>
<!-- rel y -->
<g id="node2" class="node">
<title>rel y</title>
<polygon fill="lightgray" stroke="black" points="153.71,-203.21 120.71,-203.21 120.71,-181.21 153.71,-181.21 153.71,-203.21"/>
<text text-anchor="middle" x="137.21" y="-190.01" font-family="Times New Roman,serif" font-size="9.00">rel y</text>
</g>
<!-- right -->
<g id="node10" class="node">
<title>right</title>
<ellipse fill="lightblue" stroke="black" cx="139.21" cy="-111.66" rx="23.17" ry="23.17"/>
<text text-anchor="middle" x="139.21" y="-109.46" font-family="Times New Roman,serif" font-size="9.00">right</text>
</g>
<!-- rel y&#45;&gt;right -->
<g id="edge2" class="edge">
<title>rel y&#45;&gt;right</title>
<path fill="none" stroke="red" stroke-width="0.24" d="M137.47,-180.94C137.71,-171.82 138.06,-157.98 138.39,-145.14"/>
<polygon fill="red" stroke="red" stroke-width="0.24" points="141.88,-145.61 138.63,-135.52 134.88,-145.43 141.88,-145.61"/>
</g>
<!-- near wall? -->
<g id="node3" class="node">
<title>near wall?</title>
<polygon fill="lightgray" stroke="black" points="269.71,-283.76 216.71,-283.76 216.71,-261.76 269.71,-261.76 269.71,-283.76"/>
<text text-anchor="middle" x="243.21" y="-270.56" font-family="Times New Roman,serif" font-size="9.00">near wall?</text>
</g>
<!-- 111 -->
<g id="node11" class="node">
<title>111</title>
<ellipse fill="white" stroke="black" cx="243.21" cy="-192.21" rx="21.43" ry="21.43"/>
<text text-anchor="middle" x="243.21" y="-190.01" font-family="Times New Roman,serif" font-size="9.00">111</text>
</g>
<!-- near wall?&#45;&gt;111 -->
<g id="edge6" class="edge">
<title>near wall?&#45;&gt;111</title>
<path fill="none" stroke="red" stroke-width="0.4" d="M243.21,-261.49C243.21,-252.13 243.21,-237.81 243.21,-224.7"/>
<polygon fill="red" stroke="red" stroke-width="0.4" points="246.71,-224.7 243.21,-214.7 239.71,-224.7 246.71,-224.7"/>
</g>
<!-- rel x -->
<g id="node4" class="node">
<title>rel x</title>
<polygon fill="lightgray" stroke="black" points="204.21,-203.21 172.21,-203.21 172.21,-181.21 204.21,-181.21 204.21,-203.21"/>
<text text-anchor="middle" x="188.21" y="-190.01" font-family="Times New Roman,serif" font-size="9.00">rel x</text>
</g>
<!-- up -->
<g id="node7" class="node">
<title>up</title>
<ellipse fill="lightblue" stroke="black" cx="79.21" cy="-111.66" rx="18.27" ry="18.27"/>
<text text-anchor="middle" x="79.21" y="-109.46" font-family="Times New Roman,serif" font-size="9.00">up</text>
</g>
<!-- rel x&#45;&gt;up -->
<g id="edge5" class="edge">
<title>rel x&#45;&gt;up</title>
<path fill="none" stroke="green" stroke-width="0.1" d="M175.14,-180.71C171.06,-177.52 166.49,-174.05 162.21,-170.99 138.44,-154.02 130.88,-152.12 107.21,-134.99 105.14,-133.5 103.01,-131.9 100.9,-130.28"/>
<polygon fill="green" stroke="green" stroke-width="0.1" points="103.12,-127.58 93.1,-124.15 98.8,-133.08 103.12,-127.58"/>
</g>
<!-- down -->
<g id="node8" class="node">
<title>down</title>
<ellipse fill="lightblue" stroke="black" cx="105.21" cy="-26.16" rx="26.33" ry="26.33"/>
<text text-anchor="middle" x="105.21" y="-23.96" font-family="Times New Roman,serif" font-size="9.00">down</text>
</g>
<!-- rel x&#45;&gt;down -->
<g id="edge4" class="edge">
<title>rel x&#45;&gt;down</title>
<path fill="none" stroke="red" stroke-width="0.14" d="M188.64,-180.87C189.01,-161.5 187.68,-118.94 171.21,-88.33 162.57,-72.26 148.08,-58.13 134.88,-47.5"/>
<polygon fill="red" stroke="red" stroke-width="0.14" points="137.11,-44.81 127.05,-41.48 132.84,-50.35 137.11,-44.81"/>
</g>
<!-- left -->
<g id="node9" class="node">
<title>left</title>
<ellipse fill="lightblue" stroke="black" cx="242.21" cy="-111.66" rx="20.51" ry="20.51"/>
<text text-anchor="middle" x="242.21" y="-109.46" font-family="Times New Roman,serif" font-size="9.00">left</text>
</g>
<!-- rel x&#45;&gt;left -->
<g id="edge1" class="edge">
<title>rel x&#45;&gt;left</title>
<path fill="none" stroke="green" stroke-width="0.46" stroke-dasharray="1,5" d="M195.27,-180.94C202.75,-170.06 214.85,-152.46 224.89,-137.86"/>
<polygon fill="green" stroke="green" stroke-width="0.46" points="227.64,-140.03 230.42,-129.81 221.87,-136.07 227.64,-140.03"/>
</g>
<!-- rel x&#45;&gt;right -->
<g id="edge10" class="edge">
<title>rel x&#45;&gt;right</title>
<path fill="none" stroke="red" stroke-width="0.13" d="M181.81,-180.94C175.41,-170.68 165.28,-154.45 156.51,-140.38"/>
<polygon fill="red" stroke="red" stroke-width="0.13" points="159.63,-138.78 151.37,-132.14 153.69,-142.48 159.63,-138.78"/>
</g>
<!-- life pos x -->
<g id="node5" class="node">
<title>life pos x</title>
<polygon fill="lightgray" stroke="black" points="76.21,-203.21 26.21,-203.21 26.21,-181.21 76.21,-181.21 76.21,-203.21"/>
<text text-anchor="middle" x="51.21" y="-190.01" font-family="Times New Roman,serif" font-size="9.00">life pos x</text>
</g>
<!-- life pos x&#45;&gt;up -->
<g id="edge3" class="edge">
<title>life pos x&#45;&gt;up</title>
<path fill="none" stroke="green" stroke-width="0.74" stroke-dasharray="1,5" d="M54.87,-180.94C58.61,-170.47 64.56,-153.78 69.64,-139.52"/>
<polygon fill="green" stroke="green" stroke-width="0.74" points="72.87,-140.89 72.93,-130.3 66.27,-138.54 72.87,-140.89"/>
</g>
<!-- 178 -->
<g id="node12" class="node">
<title>178</title>
<ellipse fill="white" stroke="black" cx="21.21" cy="-111.66" rx="21.43" ry="21.43"/>
<text text-anchor="middle" x="21.21" y="-109.46" font-family="Times New Roman,serif" font-size="9.00">178</text>
</g>
<!-- life pos x&#45;&gt;178 -->
<g id="edge8" class="edge">
<title>life pos x&#45;&gt;178</title>
<path fill="none" stroke="red" stroke-width="0.13" d="M47.29,-180.94C43.45,-170.87 37.41,-155.06 32.11,-141.18"/>
<polygon fill="red" stroke="red" stroke-width="0.13" points="35.5,-140.26 28.66,-132.16 28.96,-142.76 35.5,-140.26"/>
</g>
<!-- stop -->
<g id="node6" class="node">
<title>stop</title>
<ellipse fill="lightblue" stroke="black" cx="311.21" cy="-272.76" rx="23.17" ry="23.17"/>
<text text-anchor="middle" x="311.21" y="-270.56" font-family="Times New Roman,serif" font-size="9.00">stop</text>
</g>
<!-- 111&#45;&gt;left -->
<g id="edge7" class="edge">
<title>111&#45;&gt;left</title>
<path fill="none" stroke="green" stroke-width="0.29" d="M242.95,-170.57C242.84,-162.14 242.72,-152.22 242.6,-143"/>
<polygon fill="green" stroke="green" stroke-width="0.29" points="246.1,-143.01 242.47,-133.06 239.1,-143.1 246.1,-143.01"/>
</g>
<!-- 178&#45;&gt;down -->
<g id="edge9" class="edge">
<title>178&#45;&gt;down</title>
<path fill="none" stroke="green" stroke-width="0.18" d="M36.23,-95.73C48.29,-83.75 65.49,-66.65 79.69,-52.53"/>
<polygon fill="green" stroke="green" stroke-width="0.18" points="82,-55.18 86.62,-45.64 77.06,-50.21 82,-55.18"/>
</g>
</g>
</svg>
