<?xml version="1.0" encoding="UTF-8" standalone="no"?>
<!DOCTYPE svg PUBLIC "-//W3C//DTD SVG 1.1//EN"
 "http://www.w3.org/Graphics/SVG/1.1/DTD/svg11.dtd">
<!-- Generated by graphviz version 7.1.0 (20230121.1956)
 -->
<!-- Pages: 1 -->
<svg width="323pt" height="274pt"
 viewBox="0.00 0.00 322.71 273.76" xmlns="http://www.w3.org/2000/svg" xmlns:xlink="http://www.w3.org/1999/xlink">
<g id="graph0" class="graph" transform="scale(1 1) rotate(0) translate(4 269.76)">
<polygon fill="white" stroke="none" points="-4,4 -4,-269.76 318.71,-269.76 318.71,4 -4,4"/>
<!-- life pos y -->
<g id="node1" class="node">
<title>life pos y</title>
<polygon fill="lightgray" stroke="black" points="51,-265.76 0,-265.76 0,-243.76 51,-243.76 51,-265.76"/>
<text text-anchor="middle" x="25.5" y="-252.56" font-family="Times New Roman,serif" font-size="9.00">life pos y</text>
</g>
<!-- stop -->
<g id="node5" class="node">
<title>stop</title>
<ellipse fill="lightblue" stroke="black" cx="25.5" cy="-181.6" rx="23.17" ry="23.17"/>
<text text-anchor="middle" x="25.5" y="-179.4" font-family="Times New Roman,serif" font-size="9.00">stop</text>
</g>
<!-- life pos y&#45;&gt;stop -->
<g id="edge3" class="edge">
<title>life pos y&#45;&gt;stop</title>
<path fill="none" stroke="red" stroke-width="0.82" d="M25.5,-243.57C25.5,-236.31 25.5,-226.11 25.5,-216.12"/>
<polygon fill="red" stroke="red" stroke-width="0.82" points="29,-216.35 25.5,-206.35 22,-216.35 29,-216.35"/>
</g>
<!-- food dist y -->
<g id="node2" class="node">
<title>food dist y</title>
<polygon fill="lightgray" stroke="black" points="125.5,-265.76 69.5,-265.76 69.5,-243.76 125.5,-243.76 125.5,-265.76"/>
<text text-anchor="middle" x="97.5" y="-252.56" font-family="Times New Roman,serif" font-size="9.00">food dist y</text>
</g>
<!-- right -->
<g id="node9" class="node">
<title>right</title>
<ellipse fill="lightblue" stroke="black" cx="97.5" cy="-181.6" rx="23.17" ry="23.17"/>
<text text-anchor="middle" x="97.5" y="-179.4" font-family="Times New Roman,serif" font-size="9.00">right</text>
</g>
<!-- food dist y&#45;&gt;right -->
<g id="edge1" class="edge">
<title>food dist y&#45;&gt;right</title>
<path fill="none" stroke="red" stroke-width="0.59" d="M97.5,-243.57C97.5,-236.23 97.5,-225.89 97.5,-215.8"/>
<polygon fill="red" stroke="red" stroke-width="0.59" points="101,-216 97.5,-206 94,-216 101,-216"/>
</g>
<!-- food dist x -->
<g id="node3" class="node">
<title>food dist x</title>
<polygon fill="lightgray" stroke="black" points="227,-265.76 172,-265.76 172,-243.76 227,-243.76 227,-265.76"/>
<text text-anchor="middle" x="199.5" y="-252.56" font-family="Times New Roman,serif" font-size="9.00">food dist x</text>
</g>
<!-- down -->
<g id="node7" class="node">
<title>down</title>
<ellipse fill="lightblue" stroke="black" cx="181.5" cy="-181.6" rx="26.33" ry="26.33"/>
<text text-anchor="middle" x="181.5" y="-179.4" font-family="Times New Roman,serif" font-size="9.00">down</text>
</g>
<!-- food dist x&#45;&gt;down -->
<g id="edge2" class="edge">
<title>food dist x&#45;&gt;down</title>
<path fill="none" stroke="red" stroke-width="0.71" d="M196.92,-243.57C195.2,-236.76 192.82,-227.35 190.45,-217.97"/>
<polygon fill="red" stroke="red" stroke-width="0.71" points="193.91,-217.4 188.07,-208.56 187.13,-219.12 193.91,-217.4"/>
</g>
<!-- 64 -->
<g id="node10" class="node">
<title>64</title>
<ellipse fill="white" stroke="black" cx="244.5" cy="-181.6" rx="18.27" ry="18.27"/>
<text text-anchor="middle" x="244.5" y="-179.4" font-family="Times New Roman,serif" font-size="9.00">64</text>
</g>
<!-- food dist x&#45;&gt;64 -->
<g id="edge4" class="edge">
<title>food dist x&#45;&gt;64</title>
<path fill="none" stroke="red" stroke-width="0.13" d="M205.95,-243.57C212.15,-233.76 221.74,-218.59 229.81,-205.84"/>
<polygon fill="red" stroke="red" stroke-width="0.13" points="232.59,-207.98 234.98,-197.66 226.68,-204.24 232.59,-207.98"/>
</g>
<!-- life pos x -->
<g id="node4" class="node">
<title>life pos x</title>
<polygon fill="lightgray" stroke="black" points="295.5,-265.76 245.5,-265.76 245.5,-243.76 295.5,-243.76 295.5,-265.76"/>
<text text-anchor="middle" x="270.5" y="-252.56" font-family="Times New Roman,serif" font-size="9.00">life pos x</text>
</g>
<!-- up -->
<g id="node6" class="node">
<title>up</title>
<ellipse fill="lightblue" stroke="black" cx="198.5" cy="-98.23" rx="18.27" ry="18.27"/>
<text text-anchor="middle" x="198.5" y="-96.03" font-family="Times New Roman,serif" font-size="9.00">up</text>
</g>
<!-- left -->
<g id="node8" class="node">
<title>left</title>
<ellipse fill="lightblue" stroke="black" cx="268.5" cy="-20.51" rx="20.51" ry="20.51"/>
<text text-anchor="middle" x="268.5" y="-18.31" font-family="Times New Roman,serif" font-size="9.00">left</text>
</g>
<!-- 64&#45;&gt;up -->
<g id="edge8" class="edge">
<title>64&#45;&gt;up</title>
<path fill="none" stroke="red" stroke-width="0.3" d="M235.85,-165.3C229.21,-153.55 219.91,-137.1 212.26,-123.56"/>
<polygon fill="red" stroke="red" stroke-width="0.3" points="215.46,-122.12 207.5,-115.14 209.37,-125.57 215.46,-122.12"/>
</g>
<!-- 64&#45;&gt;left -->
<g id="edge5" class="edge">
<title>64&#45;&gt;left</title>
<path fill="none" stroke="red" stroke-width="0.41" stroke-dasharray="1,5" d="M247.11,-163.27C251.15,-136.5 258.96,-84.73 263.94,-51.71"/>
<polygon fill="red" stroke="red" stroke-width="0.41" points="267.39,-52.32 265.42,-41.91 260.47,-51.28 267.39,-52.32"/>
</g>
<!-- 129 -->
<g id="node11" class="node">
<title>129</title>
<ellipse fill="white" stroke="black" cx="293.5" cy="-98.23" rx="21.43" ry="21.43"/>
<text text-anchor="middle" x="293.5" y="-96.03" font-family="Times New Roman,serif" font-size="9.00">129</text>
</g>
<!-- 64&#45;&gt;129 -->
<g id="edge6" class="edge">
<title>64&#45;&gt;129</title>
<path fill="none" stroke="green" stroke-width="0.27" d="M253.72,-165.3C260.43,-154.15 269.69,-138.77 277.59,-125.65"/>
<polygon fill="green" stroke="green" stroke-width="0.27" points="280.42,-127.74 282.58,-117.36 274.42,-124.12 280.42,-127.74"/>
</g>
<!-- 129&#45;&gt;left -->
<g id="edge7" class="edge">
<title>129&#45;&gt;left</title>
<path fill="none" stroke="red" stroke-width="0.13" d="M286.93,-77.33C284.17,-68.96 280.9,-59.07 277.89,-49.96"/>
<polygon fill="red" stroke="red" stroke-width="0.13" points="281.29,-49.07 274.83,-40.67 274.64,-51.27 281.29,-49.07"/>
</g>
</g>
</svg>
