<?xml version="1.0" encoding="UTF-8" standalone="no"?>
<!DOCTYPE svg PUBLIC "-//W3C//DTD SVG 1.1//EN"
 "http://www.w3.org/Graphics/SVG/1.1/DTD/svg11.dtd">
<!-- Generated by graphviz version 7.1.0 (20230121.1956)
 -->
<!-- Pages: 1 -->
<svg width="405pt" height="143pt"
 viewBox="0.00 0.00 404.83 142.99" xmlns="http://www.w3.org/2000/svg" xmlns:xlink="http://www.w3.org/1999/xlink">
<g id="graph0" class="graph" transform="scale(1 1) rotate(0) translate(4 138.99)">
<polygon fill="white" stroke="none" points="-4,4 -4,-138.99 400.83,-138.99 400.83,4 -4,4"/>
<!-- life pos y -->
<g id="node1" class="node">
<title>life pos y</title>
<polygon fill="lightgray" stroke="black" points="51,-122.66 0,-122.66 0,-100.66 51,-100.66 51,-122.66"/>
<text text-anchor="middle" x="25.5" y="-109.46" font-family="Times New Roman,serif" font-size="9.00">life pos y</text>
</g>
<!-- left -->
<g id="node8" class="node">
<title>left</title>
<ellipse fill="lightblue" stroke="black" cx="25.5" cy="-26.16" rx="20.51" ry="20.51"/>
<text text-anchor="middle" x="25.5" y="-23.96" font-family="Times New Roman,serif" font-size="9.00">left</text>
</g>
<!-- life pos y&#45;&gt;left -->
<g id="edge2" class="edge">
<title>life pos y&#45;&gt;left</title>
<path fill="none" stroke="green" stroke-width="0.13" d="M25.5,-100.42C25.5,-89.67 25.5,-72.24 25.5,-57.08"/>
<polygon fill="green" stroke="green" stroke-width="0.13" points="29,-57.26 25.5,-47.26 22,-57.26 29,-57.26"/>
</g>
<!-- food dist y -->
<g id="node2" class="node">
<title>food dist y</title>
<polygon fill="lightgray" stroke="black" points="125.5,-122.66 69.5,-122.66 69.5,-100.66 125.5,-100.66 125.5,-122.66"/>
<text text-anchor="middle" x="97.5" y="-109.46" font-family="Times New Roman,serif" font-size="9.00">food dist y</text>
</g>
<!-- down -->
<g id="node7" class="node">
<title>down</title>
<ellipse fill="lightblue" stroke="black" cx="134.5" cy="-26.16" rx="26.33" ry="26.33"/>
<text text-anchor="middle" x="134.5" y="-23.96" font-family="Times New Roman,serif" font-size="9.00">down</text>
</g>
<!-- food dist y&#45;&gt;down -->
<g id="edge1" class="edge">
<title>food dist y&#45;&gt;down</title>
<path fill="none" stroke="green" stroke-width="0.25" d="M102.04,-100.42C106.5,-90.35 113.56,-74.42 119.95,-59.99"/>
<polygon fill="green" stroke="green" stroke-width="0.25" points="123.02,-61.71 123.87,-51.14 116.62,-58.87 123.02,-61.71"/>
</g>
<!-- food dist x -->
<g id="node3" class="node">
<title>food dist x</title>
<polygon fill="lightgray" stroke="black" points="199,-122.66 144,-122.66 144,-100.66 199,-100.66 199,-122.66"/>
<text text-anchor="middle" x="171.5" y="-109.46" font-family="Times New Roman,serif" font-size="9.00">food dist x</text>
</g>
<!-- food dist x&#45;&gt;down -->
<g id="edge3" class="edge">
<title>food dist x&#45;&gt;down</title>
<path fill="none" stroke="red" stroke-width="0.58" d="M166.96,-100.42C162.54,-90.44 155.58,-74.73 149.23,-60.4"/>
<polygon fill="red" stroke="red" stroke-width="0.58" points="152.58,-59.32 145.33,-51.6 146.18,-62.16 152.58,-59.32"/>
</g>
<!-- life pos x -->
<g id="node4" class="node">
<title>life pos x</title>
<polygon fill="lightgray" stroke="black" points="267.5,-122.66 217.5,-122.66 217.5,-100.66 267.5,-100.66 267.5,-122.66"/>
<text text-anchor="middle" x="242.5" y="-109.46" font-family="Times New Roman,serif" font-size="9.00">life pos x</text>
</g>
<!-- up -->
<g id="node6" class="node">
<title>up</title>
<ellipse fill="lightblue" stroke="black" cx="242.5" cy="-26.16" rx="18.27" ry="18.27"/>
<text text-anchor="middle" x="242.5" y="-23.96" font-family="Times New Roman,serif" font-size="9.00">up</text>
</g>
<!-- life pos x&#45;&gt;up -->
<g id="edge4" class="edge">
<title>life pos x&#45;&gt;up</title>
<path fill="none" stroke="green" stroke-width="0.25" d="M242.5,-100.42C242.5,-89.17 242.5,-70.62 242.5,-55"/>
<polygon fill="green" stroke="green" stroke-width="0.25" points="246,-55.17 242.5,-45.17 239,-55.17 246,-55.17"/>
</g>
<!-- stop -->
<g id="node5" class="node">
<title>stop</title>
<ellipse fill="lightblue" stroke="black" cx="308.5" cy="-111.66" rx="23.17" ry="23.17"/>
<text text-anchor="middle" x="308.5" y="-109.46" font-family="Times New Roman,serif" font-size="9.00">stop</text>
</g>
<!-- right -->
<g id="node9" class="node">
<title>right</title>
<ellipse fill="lightblue" stroke="black" cx="373.5" cy="-111.66" rx="23.17" ry="23.17"/>
<text text-anchor="middle" x="373.5" y="-109.46" font-family="Times New Roman,serif" font-size="9.00">right</text>
</g>
</g>
</svg>
