<?xml version="1.0" encoding="UTF-8" standalone="no"?>
<!DOCTYPE svg PUBLIC "-//W3C//DTD SVG 1.1//EN"
 "http://www.w3.org/Graphics/SVG/1.1/DTD/svg11.dtd">
<!-- Generated by graphviz version 7.1.0 (20230121.1956)
 -->
<!-- Pages: 1 -->
<svg width="361pt" height="226pt"
 viewBox="0.00 0.00 360.83 225.66" xmlns="http://www.w3.org/2000/svg" xmlns:xlink="http://www.w3.org/1999/xlink">
<g id="graph0" class="graph" transform="scale(1 1) rotate(0) translate(4 221.66)">
<polygon fill="white" stroke="none" points="-4,4 -4,-221.66 356.83,-221.66 356.83,4 -4,4"/>
<!-- life pos y -->
<g id="node1" class="node">
<title>life pos y</title>
<polygon fill="lightgray" stroke="black" points="51,-205.33 0,-205.33 0,-183.33 51,-183.33 51,-205.33"/>
<text text-anchor="middle" x="25.5" y="-192.13" font-family="Times New Roman,serif" font-size="9.00">life pos y</text>
</g>
<!-- food dist y -->
<g id="node2" class="node">
<title>food dist y</title>
<polygon fill="lightgray" stroke="black" points="125.5,-205.33 69.5,-205.33 69.5,-183.33 125.5,-183.33 125.5,-205.33"/>
<text text-anchor="middle" x="97.5" y="-192.13" font-family="Times New Roman,serif" font-size="9.00">food dist y</text>
</g>
<!-- left -->
<g id="node8" class="node">
<title>left</title>
<ellipse fill="lightblue" stroke="black" cx="67.5" cy="-111.66" rx="20.51" ry="20.51"/>
<text text-anchor="middle" x="67.5" y="-109.46" font-family="Times New Roman,serif" font-size="9.00">left</text>
</g>
<!-- food dist y&#45;&gt;left -->
<g id="edge1" class="edge">
<title>food dist y&#45;&gt;left</title>
<path fill="none" stroke="green" stroke-width="0.33" d="M93.7,-183.11C89.78,-172.57 83.49,-155.66 78.05,-141.04"/>
<polygon fill="green" stroke="green" stroke-width="0.33" points="81.41,-140.02 74.64,-131.86 74.85,-142.46 81.41,-140.02"/>
</g>
<!-- 138 -->
<g id="node10" class="node">
<title>138</title>
<ellipse fill="white" stroke="black" cx="127.5" cy="-111.66" rx="21.43" ry="21.43"/>
<text text-anchor="middle" x="127.5" y="-109.46" font-family="Times New Roman,serif" font-size="9.00">138</text>
</g>
<!-- food dist y&#45;&gt;138 -->
<g id="edge3" class="edge">
<title>food dist y&#45;&gt;138</title>
<path fill="none" stroke="green" stroke-width="0.23" stroke-dasharray="1,5" d="M101.3,-183.11C105.17,-172.71 111.35,-156.1 116.73,-141.61"/>
<polygon fill="green" stroke="green" stroke-width="0.23" points="119.97,-142.95 120.17,-132.36 113.41,-140.51 119.97,-142.95"/>
</g>
<!-- food dist x -->
<g id="node3" class="node">
<title>food dist x</title>
<polygon fill="lightgray" stroke="black" points="222,-122.66 167,-122.66 167,-100.66 222,-100.66 222,-122.66"/>
<text text-anchor="middle" x="194.5" y="-109.46" font-family="Times New Roman,serif" font-size="9.00">food dist x</text>
</g>
<!-- up -->
<g id="node6" class="node">
<title>up</title>
<ellipse fill="lightblue" stroke="black" cx="129.5" cy="-26.16" rx="18.27" ry="18.27"/>
<text text-anchor="middle" x="129.5" y="-23.96" font-family="Times New Roman,serif" font-size="9.00">up</text>
</g>
<!-- food dist x&#45;&gt;up -->
<g id="edge2" class="edge">
<title>food dist x&#45;&gt;up</title>
<path fill="none" stroke="green" stroke-width="0.63" d="M186.53,-100.42C176.75,-87.86 159.88,-66.18 147.01,-49.66"/>
<polygon fill="green" stroke="green" stroke-width="0.63" points="149.85,-47.6 140.94,-41.86 144.32,-51.9 149.85,-47.6"/>
</g>
<!-- down -->
<g id="node7" class="node">
<title>down</title>
<ellipse fill="lightblue" stroke="black" cx="194.5" cy="-26.16" rx="26.33" ry="26.33"/>
<text text-anchor="middle" x="194.5" y="-23.96" font-family="Times New Roman,serif" font-size="9.00">down</text>
</g>
<!-- food dist x&#45;&gt;down -->
<g id="edge5" class="edge">
<title>food dist x&#45;&gt;down</title>
<path fill="none" stroke="red" stroke-width="0.18" d="M194.5,-100.42C194.5,-91.05 194.5,-76.62 194.5,-63.04"/>
<polygon fill="red" stroke="red" stroke-width="0.18" points="198,-63.18 194.5,-53.18 191,-63.18 198,-63.18"/>
</g>
<!-- life pos x -->
<g id="node4" class="node">
<title>life pos x</title>
<polygon fill="lightgray" stroke="black" points="288.5,-205.33 238.5,-205.33 238.5,-183.33 288.5,-183.33 288.5,-205.33"/>
<text text-anchor="middle" x="263.5" y="-192.13" font-family="Times New Roman,serif" font-size="9.00">life pos x</text>
</g>
<!-- right -->
<g id="node9" class="node">
<title>right</title>
<ellipse fill="lightblue" stroke="black" cx="263.5" cy="-111.66" rx="23.17" ry="23.17"/>
<text text-anchor="middle" x="263.5" y="-109.46" font-family="Times New Roman,serif" font-size="9.00">right</text>
</g>
<!-- life pos x&#45;&gt;right -->
<g id="edge6" class="edge">
<title>life pos x&#45;&gt;right</title>
<path fill="none" stroke="green" stroke-width="0.11" d="M263.5,-183.11C263.5,-173.59 263.5,-158.85 263.5,-145.31"/>
<polygon fill="green" stroke="green" stroke-width="0.11" points="267,-145.46 263.5,-135.46 260,-145.46 267,-145.46"/>
</g>
<!-- stop -->
<g id="node5" class="node">
<title>stop</title>
<ellipse fill="lightblue" stroke="black" cx="329.5" cy="-194.33" rx="23.17" ry="23.17"/>
<text text-anchor="middle" x="329.5" y="-192.13" font-family="Times New Roman,serif" font-size="9.00">stop</text>
</g>
<!-- 138&#45;&gt;up -->
<g id="edge4" class="edge">
<title>138&#45;&gt;up</title>
<path fill="none" stroke="red" stroke-width="0.34" d="M127.99,-90.02C128.25,-79.48 128.56,-66.5 128.83,-55.08"/>
<polygon fill="red" stroke="red" stroke-width="0.34" points="132.33,-55.34 129.07,-45.26 125.33,-55.17 132.33,-55.34"/>
</g>
</g>
</svg>
