<?xml version="1.0" encoding="UTF-8" standalone="no"?>
<!DOCTYPE svg PUBLIC "-//W3C//DTD SVG 1.1//EN"
 "http://www.w3.org/Graphics/SVG/1.1/DTD/svg11.dtd">
<!-- Generated by graphviz version 7.1.0 (20230121.1956)
 -->
<!-- Pages: 1 -->
<svg width="459pt" height="143pt"
 viewBox="0.00 0.00 458.83 142.99" xmlns="http://www.w3.org/2000/svg" xmlns:xlink="http://www.w3.org/1999/xlink">
<g id="graph0" class="graph" transform="scale(1 1) rotate(0) translate(4 138.99)">
<polygon fill="white" stroke="none" points="-4,4 -4,-138.99 454.83,-138.99 454.83,4 -4,4"/>
<!-- life pos y -->
<g id="node1" class="node">
<title>life pos y</title>
<polygon fill="lightgray" stroke="black" points="51,-122.66 0,-122.66 0,-100.66 51,-100.66 51,-122.66"/>
<text text-anchor="middle" x="25.5" y="-109.46" font-family="Times New Roman,serif" font-size="9.00">life pos y</text>
</g>
<!-- food dist y -->
<g id="node2" class="node">
<title>food dist y</title>
<polygon fill="lightgray" stroke="black" points="125.5,-122.66 69.5,-122.66 69.5,-100.66 125.5,-100.66 125.5,-122.66"/>
<text text-anchor="middle" x="97.5" y="-109.46" font-family="Times New Roman,serif" font-size="9.00">food dist y</text>
</g>
<!-- food dist x -->
<g id="node3" class="node">
<title>food dist x</title>
<polygon fill="lightgray" stroke="black" points="199,-122.66 144,-122.66 144,-100.66 199,-100.66 199,-122.66"/>
<text text-anchor="middle" x="171.5" y="-109.46" font-family="Times New Roman,serif" font-size="9.00">food dist x</text>
</g>
<!-- up -->
<g id="node6" class="node">
<title>up</title>
<ellipse fill="lightblue" stroke="black" cx="140.5" cy="-26.16" rx="18.27" ry="18.27"/>
<text text-anchor="middle" x="140.5" y="-23.96" font-family="Times New Roman,serif" font-size="9.00">up</text>
</g>
<!-- food dist x&#45;&gt;up -->
<g id="edge1" class="edge">
<title>food dist x&#45;&gt;up</title>
<path fill="none" stroke="red" stroke-width="0.33" stroke-dasharray="1,5" d="M167.7,-100.42C163.4,-88.85 156.24,-69.55 150.34,-53.66"/>
<polygon fill="red" stroke="red" stroke-width="0.33" points="153.63,-52.46 146.86,-44.3 147.06,-54.9 153.63,-52.46"/>
</g>
<!-- down -->
<g id="node7" class="node">
<title>down</title>
<ellipse fill="lightblue" stroke="black" cx="203.5" cy="-26.16" rx="26.33" ry="26.33"/>
<text text-anchor="middle" x="203.5" y="-23.96" font-family="Times New Roman,serif" font-size="9.00">down</text>
</g>
<!-- food dist x&#45;&gt;down -->
<g id="edge3" class="edge">
<title>food dist x&#45;&gt;down</title>
<path fill="none" stroke="red" stroke-width="0.39" d="M175.42,-100.42C179.22,-90.51 185.19,-74.95 190.64,-60.71"/>
<polygon fill="red" stroke="red" stroke-width="0.39" points="193.79,-62.28 194.1,-51.69 187.25,-59.78 193.79,-62.28"/>
</g>
<!-- life pos x -->
<g id="node4" class="node">
<title>life pos x</title>
<polygon fill="lightgray" stroke="black" points="267.5,-122.66 217.5,-122.66 217.5,-100.66 267.5,-100.66 267.5,-122.66"/>
<text text-anchor="middle" x="242.5" y="-109.46" font-family="Times New Roman,serif" font-size="9.00">life pos x</text>
</g>
<!-- stop -->
<g id="node5" class="node">
<title>stop</title>
<ellipse fill="lightblue" stroke="black" cx="308.5" cy="-111.66" rx="23.17" ry="23.17"/>
<text text-anchor="middle" x="308.5" y="-109.46" font-family="Times New Roman,serif" font-size="9.00">stop</text>
</g>
<!-- left -->
<g id="node8" class="node">
<title>left</title>
<ellipse fill="lightblue" stroke="black" cx="370.5" cy="-111.66" rx="20.51" ry="20.51"/>
<text text-anchor="middle" x="370.5" y="-109.46" font-family="Times New Roman,serif" font-size="9.00">left</text>
</g>
<!-- right -->
<g id="node9" class="node">
<title>right</title>
<ellipse fill="lightblue" stroke="black" cx="427.5" cy="-26.16" rx="23.17" ry="23.17"/>
<text text-anchor="middle" x="427.5" y="-23.96" font-family="Times New Roman,serif" font-size="9.00">right</text>
</g>
<!-- 35 -->
<g id="node10" class="node">
<title>35</title>
<ellipse fill="white" stroke="black" cx="427.5" cy="-111.66" rx="18.27" ry="18.27"/>
<text text-anchor="middle" x="427.5" y="-109.46" font-family="Times New Roman,serif" font-size="9.00">35</text>
</g>
<!-- 35&#45;&gt;right -->
<g id="edge2" class="edge">
<title>35&#45;&gt;right</title>
<path fill="none" stroke="red" stroke-width="0.41" d="M427.5,-92.95C427.5,-83.38 427.5,-71.24 427.5,-60"/>
<polygon fill="red" stroke="red" stroke-width="0.41" points="431,-60.25 427.5,-50.25 424,-60.25 431,-60.25"/>
</g>
</g>
</svg>
