<?xml version="1.0" encoding="UTF-8" standalone="no"?>
<!DOCTYPE svg PUBLIC "-//W3C//DTD SVG 1.1//EN"
 "http://www.w3.org/Graphics/SVG/1.1/DTD/svg11.dtd">
<!-- Generated by graphviz version 7.1.0 (20230121.1956)
 -->
<!-- Pages: 1 -->
<svg width="553pt" height="293pt"
 viewBox="0.00 0.00 553.00 292.78" xmlns="http://www.w3.org/2000/svg" xmlns:xlink="http://www.w3.org/1999/xlink">
<g id="graph0" class="graph" transform="scale(1 1) rotate(0) translate(4 288.78)">
<polygon fill="white" stroke="none" points="-4,4 -4,-288.78 549,-288.78 549,4 -4,4"/>
<!-- life pos y -->
<g id="node1" class="node">
<title>life pos y</title>
<polygon fill="lightgray" stroke="black" points="51,-194.72 0,-194.72 0,-172.72 51,-172.72 51,-194.72"/>
<text text-anchor="middle" x="25.5" y="-181.52" font-family="Times New Roman,serif" font-size="9.00">life pos y</text>
</g>
<!-- right -->
<g id="node13" class="node">
<title>right</title>
<ellipse fill="lightblue" stroke="black" cx="58.5" cy="-103.18" rx="23.17" ry="23.17"/>
<text text-anchor="middle" x="58.5" y="-100.98" font-family="Times New Roman,serif" font-size="9.00">right</text>
</g>
<!-- life pos y&#45;&gt;right -->
<g id="edge8" class="edge">
<title>life pos y&#45;&gt;right</title>
<path fill="none" stroke="red" stroke-width="0.19" d="M29.81,-172.45C33.86,-162.82 40.12,-147.92 45.76,-134.49"/>
<polygon fill="red" stroke="red" stroke-width="0.19" points="48.96,-135.91 49.61,-125.34 42.51,-133.2 48.96,-135.91"/>
</g>
<!-- near wall down -->
<g id="node2" class="node">
<title>near wall down</title>
<polygon fill="lightgray" stroke="black" points="219,-194.72 148,-194.72 148,-172.72 219,-172.72 219,-194.72"/>
<text text-anchor="middle" x="183.5" y="-181.52" font-family="Times New Roman,serif" font-size="9.00">near wall down</text>
</g>
<!-- up -->
<g id="node10" class="node">
<title>up</title>
<ellipse fill="lightblue" stroke="black" cx="190.5" cy="-20.51" rx="18.27" ry="18.27"/>
<text text-anchor="middle" x="190.5" y="-18.31" font-family="Times New Roman,serif" font-size="9.00">up</text>
</g>
<!-- near wall down&#45;&gt;up -->
<g id="edge12" class="edge">
<title>near wall down&#45;&gt;up</title>
<path fill="none" stroke="red" stroke-width="0.12" d="M183.94,-172.64C184.99,-148.29 187.72,-85.63 189.3,-49.09"/>
<polygon fill="red" stroke="red" stroke-width="0.12" points="192.79,-49.42 189.73,-39.28 185.8,-49.11 192.79,-49.42"/>
</g>
<!-- down -->
<g id="node11" class="node">
<title>down</title>
<ellipse fill="lightblue" stroke="black" cx="237.5" cy="-103.18" rx="26.33" ry="26.33"/>
<text text-anchor="middle" x="237.5" y="-100.98" font-family="Times New Roman,serif" font-size="9.00">down</text>
</g>
<!-- near wall down&#45;&gt;down -->
<g id="edge11" class="edge">
<title>near wall down&#45;&gt;down</title>
<path fill="none" stroke="green" stroke-width="0.35" d="M190.56,-172.45C197.27,-162.7 207.68,-147.55 217,-133.99"/>
<polygon fill="green" stroke="green" stroke-width="0.35" points="219.84,-136.05 222.62,-125.82 214.07,-132.08 219.84,-136.05"/>
</g>
<!-- 5 -->
<g id="node14" class="node">
<title>5</title>
<ellipse fill="white" stroke="black" cx="136.5" cy="-103.18" rx="14.7" ry="14.7"/>
<text text-anchor="middle" x="136.5" y="-100.98" font-family="Times New Roman,serif" font-size="9.00">5</text>
</g>
<!-- near wall down&#45;&gt;5 -->
<g id="edge3" class="edge">
<title>near wall down&#45;&gt;5</title>
<path fill="none" stroke="red" stroke-width="0.35" d="M177.36,-172.45C170.18,-160.47 158.14,-140.34 148.98,-125.04"/>
<polygon fill="red" stroke="red" stroke-width="0.35" points="152.13,-123.48 143.99,-116.7 146.12,-127.08 152.13,-123.48"/>
</g>
<!-- food dist y -->
<g id="node3" class="node">
<title>food dist y</title>
<polygon fill="lightgray" stroke="black" points="390.5,-272.44 334.5,-272.44 334.5,-250.44 390.5,-250.44 390.5,-272.44"/>
<text text-anchor="middle" x="362.5" y="-259.24" font-family="Times New Roman,serif" font-size="9.00">food dist y</text>
</g>
<!-- near wall up -->
<g id="node4" class="node">
<title>near wall up</title>
<polygon fill="lightgray" stroke="black" points="130,-194.72 69,-194.72 69,-172.72 130,-172.72 130,-194.72"/>
<text text-anchor="middle" x="99.5" y="-181.52" font-family="Times New Roman,serif" font-size="9.00">near wall up</text>
</g>
<!-- near wall up&#45;&gt;right -->
<g id="edge2" class="edge">
<title>near wall up&#45;&gt;right</title>
<path fill="none" stroke="red" stroke-width="0.42" d="M94.14,-172.45C88.95,-162.52 80.85,-146.99 73.68,-133.25"/>
<polygon fill="red" stroke="red" stroke-width="0.42" points="76.93,-131.92 69.2,-124.68 70.73,-135.16 76.93,-131.92"/>
</g>
<!-- near wall up&#45;&gt;5 -->
<g id="edge6" class="edge">
<title>near wall up&#45;&gt;5</title>
<path fill="none" stroke="green" stroke-width="0.17" d="M104.34,-172.45C109.83,-160.79 118.96,-141.41 126.09,-126.27"/>
<polygon fill="green" stroke="green" stroke-width="0.17" points="129.23,-127.83 130.32,-117.29 122.89,-124.85 129.23,-127.83"/>
</g>
<!-- food dist x -->
<g id="node5" class="node">
<title>food dist x</title>
<polygon fill="lightgray" stroke="black" points="464,-272.44 409,-272.44 409,-250.44 464,-250.44 464,-272.44"/>
<text text-anchor="middle" x="436.5" y="-259.24" font-family="Times New Roman,serif" font-size="9.00">food dist x</text>
</g>
<!-- near wall right -->
<g id="node6" class="node">
<title>near wall right</title>
<polygon fill="lightgray" stroke="black" points="252.5,-272.44 184.5,-272.44 184.5,-250.44 252.5,-250.44 252.5,-272.44"/>
<text text-anchor="middle" x="218.5" y="-259.24" font-family="Times New Roman,serif" font-size="9.00">near wall right</text>
</g>
<!-- 26 -->
<g id="node15" class="node">
<title>26</title>
<ellipse fill="white" stroke="black" cx="255.5" cy="-183.72" rx="18.27" ry="18.27"/>
<text text-anchor="middle" x="255.5" y="-181.52" font-family="Times New Roman,serif" font-size="9.00">26</text>
</g>
<!-- near wall right&#45;&gt;26 -->
<g id="edge10" class="edge">
<title>near wall right&#45;&gt;26</title>
<path fill="none" stroke="green" stroke-width="0.2" d="M223.49,-250.23C228.55,-239.87 236.59,-223.42 243.34,-209.6"/>
<polygon fill="green" stroke="green" stroke-width="0.2" points="246.38,-211.36 247.63,-200.84 240.09,-208.28 246.38,-211.36"/>
</g>
<!-- life pos x -->
<g id="node7" class="node">
<title>life pos x</title>
<polygon fill="lightgray" stroke="black" points="331.5,-114.18 281.5,-114.18 281.5,-92.18 331.5,-92.18 331.5,-114.18"/>
<text text-anchor="middle" x="306.5" y="-100.98" font-family="Times New Roman,serif" font-size="9.00">life pos x</text>
</g>
<!-- life pos x&#45;&gt;up -->
<g id="edge1" class="edge">
<title>life pos x&#45;&gt;up</title>
<path fill="none" stroke="green" stroke-width="0.11" d="M292.7,-91.76C286.56,-87.18 279.21,-81.76 272.5,-77.01 252.79,-63.05 230.01,-47.7 213.47,-36.68"/>
<polygon fill="green" stroke="green" stroke-width="0.11" points="215.85,-34.06 205.58,-31.44 211.98,-39.89 215.85,-34.06"/>
</g>
<!-- near wall left -->
<g id="node8" class="node">
<title>near wall left</title>
<polygon fill="lightgray" stroke="black" points="545,-272.44 482,-272.44 482,-250.44 545,-250.44 545,-272.44"/>
<text text-anchor="middle" x="513.5" y="-259.24" font-family="Times New Roman,serif" font-size="9.00">near wall left</text>
</g>
<!-- stop -->
<g id="node9" class="node">
<title>stop</title>
<ellipse fill="lightblue" stroke="black" cx="293.5" cy="-261.44" rx="23.17" ry="23.17"/>
<text text-anchor="middle" x="293.5" y="-259.24" font-family="Times New Roman,serif" font-size="9.00">stop</text>
</g>
<!-- stop&#45;&gt;26 -->
<g id="edge5" class="edge">
<title>stop&#45;&gt;26</title>
<path fill="none" stroke="red" stroke-width="0.18" d="M283.32,-240.15C278.59,-230.72 272.92,-219.43 267.93,-209.5"/>
<polygon fill="red" stroke="red" stroke-width="0.18" points="271.16,-208.12 263.54,-200.75 264.9,-211.26 271.16,-208.12"/>
</g>
<!-- left -->
<g id="node12" class="node">
<title>left</title>
<ellipse fill="lightblue" stroke="black" cx="133.5" cy="-20.51" rx="20.51" ry="20.51"/>
<text text-anchor="middle" x="133.5" y="-18.31" font-family="Times New Roman,serif" font-size="9.00">left</text>
</g>
<!-- 5&#45;&gt;up -->
<g id="edge9" class="edge">
<title>5&#45;&gt;up</title>
<path fill="none" stroke="red" stroke-width="0.38" d="M144.47,-90.27C152.44,-78.37 164.91,-59.74 174.86,-44.87"/>
<polygon fill="red" stroke="red" stroke-width="0.38" points="177.69,-46.93 180.35,-36.67 171.88,-43.04 177.69,-46.93"/>
</g>
<!-- 5&#45;&gt;left -->
<g id="edge7" class="edge">
<title>5&#45;&gt;left</title>
<path fill="none" stroke="green" stroke-width="0.19" d="M135.98,-88.12C135.6,-78.04 135.08,-64.07 134.62,-51.52"/>
<polygon fill="green" stroke="green" stroke-width="0.19" points="138.12,-51.58 134.25,-41.72 131.13,-51.84 138.12,-51.58"/>
</g>
<!-- 26&#45;&gt;down -->
<g id="edge4" class="edge">
<title>26&#45;&gt;down</title>
<path fill="none" stroke="red" stroke-width="0.28" d="M251.59,-165.68C249.82,-157.94 247.66,-148.49 245.56,-139.34"/>
<polygon fill="red" stroke="red" stroke-width="0.28" points="248.98,-138.61 243.34,-129.65 242.16,-140.18 248.98,-138.61"/>
</g>
</g>
</svg>
