<?xml version="1.0" encoding="UTF-8" standalone="no"?>
<!DOCTYPE svg PUBLIC "-//W3C//DTD SVG 1.1//EN"
 "http://www.w3.org/Graphics/SVG/1.1/DTD/svg11.dtd">
<!-- Generated by graphviz version 7.1.0 (20230121.1956)
 -->
<!-- Pages: 1 -->
<svg width="444pt" height="143pt"
 viewBox="0.00 0.00 443.72 142.99" xmlns="http://www.w3.org/2000/svg" xmlns:xlink="http://www.w3.org/1999/xlink">
<g id="graph0" class="graph" transform="scale(1 1) rotate(0) translate(4 138.99)">
<polygon fill="white" stroke="none" points="-4,4 -4,-138.99 439.72,-138.99 439.72,4 -4,4"/>
<!-- life pos y -->
<g id="node1" class="node">
<title>life pos y</title>
<polygon fill="lightgray" stroke="black" points="84.88,-122.66 33.88,-122.66 33.88,-100.66 84.88,-100.66 84.88,-122.66"/>
<text text-anchor="middle" x="59.38" y="-109.46" font-family="Times New Roman,serif" font-size="9.00">life pos y</text>
</g>
<!-- up -->
<g id="node6" class="node">
<title>up</title>
<ellipse fill="lightblue" stroke="black" cx="18.38" cy="-26.16" rx="18.27" ry="18.27"/>
<text text-anchor="middle" x="18.38" y="-23.96" font-family="Times New Roman,serif" font-size="9.00">up</text>
</g>
<!-- life pos y&#45;&gt;up -->
<g id="edge2" class="edge">
<title>life pos y&#45;&gt;up</title>
<path fill="none" stroke="green" stroke-width="0.32" stroke-dasharray="1,5" d="M54.36,-100.42C48.46,-88.41 38.47,-68.07 30.52,-51.87"/>
<polygon fill="green" stroke="green" stroke-width="0.32" points="33.88,-50.78 26.33,-43.34 27.6,-53.86 33.88,-50.78"/>
</g>
<!-- left -->
<g id="node8" class="node">
<title>left</title>
<ellipse fill="lightblue" stroke="black" cx="75.38" cy="-26.16" rx="20.51" ry="20.51"/>
<text text-anchor="middle" x="75.38" y="-23.96" font-family="Times New Roman,serif" font-size="9.00">left</text>
</g>
<!-- life pos y&#45;&gt;left -->
<g id="edge1" class="edge">
<title>life pos y&#45;&gt;left</title>
<path fill="none" stroke="green" stroke-width="0.71" d="M61.35,-100.42C63.4,-89.7 66.73,-72.35 69.63,-57.22"/>
<polygon fill="green" stroke="green" stroke-width="0.71" points="72.99,-58.26 71.43,-47.78 66.11,-56.95 72.99,-58.26"/>
</g>
<!-- food dist y -->
<g id="node2" class="node">
<title>food dist y</title>
<polygon fill="lightgray" stroke="black" points="371.38,-122.66 315.38,-122.66 315.38,-100.66 371.38,-100.66 371.38,-122.66"/>
<text text-anchor="middle" x="343.38" y="-109.46" font-family="Times New Roman,serif" font-size="9.00">food dist y</text>
</g>
<!-- food dist x -->
<g id="node3" class="node">
<title>food dist x</title>
<polygon fill="lightgray" stroke="black" points="296.88,-122.66 241.88,-122.66 241.88,-100.66 296.88,-100.66 296.88,-122.66"/>
<text text-anchor="middle" x="269.38" y="-109.46" font-family="Times New Roman,serif" font-size="9.00">food dist x</text>
</g>
<!-- 444 -->
<g id="node10" class="node">
<title>444</title>
<ellipse fill="white" stroke="black" cx="269.38" cy="-26.16" rx="21.43" ry="21.43"/>
<text text-anchor="middle" x="269.38" y="-23.96" font-family="Times New Roman,serif" font-size="9.00">444</text>
</g>
<!-- food dist x&#45;&gt;444 -->
<g id="edge4" class="edge">
<title>food dist x&#45;&gt;444</title>
<path fill="none" stroke="red" stroke-width="0.35" d="M269.38,-100.42C269.38,-89.98 269.38,-73.25 269.38,-58.41"/>
<polygon fill="red" stroke="red" stroke-width="0.35" points="272.88,-58.59 269.38,-48.59 265.88,-58.59 272.88,-58.59"/>
</g>
<!-- life pos x -->
<g id="node4" class="node">
<title>life pos x</title>
<polygon fill="lightgray" stroke="black" points="178.38,-122.66 128.38,-122.66 128.38,-100.66 178.38,-100.66 178.38,-122.66"/>
<text text-anchor="middle" x="153.38" y="-109.46" font-family="Times New Roman,serif" font-size="9.00">life pos x</text>
</g>
<!-- stop -->
<g id="node5" class="node">
<title>stop</title>
<ellipse fill="lightblue" stroke="black" cx="137.38" cy="-26.16" rx="23.17" ry="23.17"/>
<text text-anchor="middle" x="137.38" y="-23.96" font-family="Times New Roman,serif" font-size="9.00">stop</text>
</g>
<!-- life pos x&#45;&gt;stop -->
<g id="edge7" class="edge">
<title>life pos x&#45;&gt;stop</title>
<path fill="none" stroke="green" stroke-width="0.3" d="M151.42,-100.42C149.48,-90.26 146.39,-74.14 143.6,-59.61"/>
<polygon fill="green" stroke="green" stroke-width="0.3" points="147.05,-59.02 141.73,-49.86 140.18,-60.34 147.05,-59.02"/>
</g>
<!-- down -->
<g id="node7" class="node">
<title>down</title>
<ellipse fill="lightblue" stroke="black" cx="204.38" cy="-26.16" rx="26.33" ry="26.33"/>
<text text-anchor="middle" x="204.38" y="-23.96" font-family="Times New Roman,serif" font-size="9.00">down</text>
</g>
<!-- life pos x&#45;&gt;down -->
<g id="edge6" class="edge">
<title>life pos x&#45;&gt;down</title>
<path fill="none" stroke="red" stroke-width="0.24" d="M159.64,-100.42C166.13,-89.79 176.6,-72.65 185.78,-57.61"/>
<polygon fill="red" stroke="red" stroke-width="0.24" points="188.59,-59.74 190.81,-49.38 182.61,-56.09 188.59,-59.74"/>
</g>
<!-- life pos x&#45;&gt;left -->
<g id="edge3" class="edge">
<title>life pos x&#45;&gt;left</title>
<path fill="none" stroke="red" stroke-width="0.11" d="M143.82,-100.42C131.9,-87.66 111.2,-65.5 95.68,-48.88"/>
<polygon fill="red" stroke="red" stroke-width="0.11" points="98.46,-46.74 89.07,-41.82 93.34,-51.51 98.46,-46.74"/>
</g>
<!-- life pos x&#45;&gt;444 -->
<g id="edge5" class="edge">
<title>life pos x&#45;&gt;444</title>
<path fill="none" stroke="red" stroke-width="0.2" d="M169.9,-100.18C187.47,-88.85 215.92,-70.05 239.38,-52.33 241.43,-50.78 243.51,-49.15 245.59,-47.49"/>
<polygon fill="red" stroke="red" stroke-width="0.2" points="247.69,-50.29 253.2,-41.25 243.25,-44.88 247.69,-50.29"/>
</g>
<!-- right -->
<g id="node9" class="node">
<title>right</title>
<ellipse fill="lightblue" stroke="black" cx="412.38" cy="-111.66" rx="23.17" ry="23.17"/>
<text text-anchor="middle" x="412.38" y="-109.46" font-family="Times New Roman,serif" font-size="9.00">right</text>
</g>
</g>
</svg>
