<?xml version="1.0" encoding="UTF-8" standalone="no"?>
<!DOCTYPE svg PUBLIC "-//W3C//DTD SVG 1.1//EN"
 "http://www.w3.org/Graphics/SVG/1.1/DTD/svg11.dtd">
<!-- Generated by graphviz version 7.1.0 (20230121.1956)
 -->
<!-- Pages: 1 -->
<svg width="505pt" height="303pt"
 viewBox="0.00 0.00 505.50 302.68" xmlns="http://www.w3.org/2000/svg" xmlns:xlink="http://www.w3.org/1999/xlink">
<g id="graph0" class="graph" transform="scale(1 1) rotate(0) translate(4 298.68)">
<polygon fill="white" stroke="none" points="-4,4 -4,-298.68 501.5,-298.68 501.5,4 -4,4"/>
<!-- life pos y -->
<g id="node1" class="node">
<title>life pos y</title>
<polygon fill="lightgray" stroke="black" points="85.83,-279.51 34.83,-279.51 34.83,-257.51 85.83,-257.51 85.83,-279.51"/>
<text text-anchor="middle" x="60.33" y="-266.31" font-family="Times New Roman,serif" font-size="9.00">life pos y</text>
</g>
<!-- stop -->
<g id="node6" class="node">
<title>stop</title>
<ellipse fill="lightblue" stroke="black" cx="23.33" cy="-183.02" rx="23.17" ry="23.17"/>
<text text-anchor="middle" x="23.33" y="-180.82" font-family="Times New Roman,serif" font-size="9.00">stop</text>
</g>
<!-- life pos y&#45;&gt;stop -->
<g id="edge4" class="edge">
<title>life pos y&#45;&gt;stop</title>
<path fill="none" stroke="red" stroke-width="0.54" d="M55.8,-257.27C51.05,-246.56 43.37,-229.22 36.67,-214.1"/>
<polygon fill="red" stroke="red" stroke-width="0.54" points="40.03,-213.05 32.78,-205.33 33.63,-215.89 40.03,-213.05"/>
</g>
<!-- 21 -->
<g id="node11" class="node">
<title>21</title>
<ellipse fill="white" stroke="black" cx="83.33" cy="-183.02" rx="18.27" ry="18.27"/>
<text text-anchor="middle" x="83.33" y="-180.82" font-family="Times New Roman,serif" font-size="9.00">21</text>
</g>
<!-- life pos y&#45;&gt;21 -->
<g id="edge1" class="edge">
<title>life pos y&#45;&gt;21</title>
<path fill="none" stroke="green" stroke-width="0.11" d="M63.15,-257.27C66.35,-245.66 71.69,-226.27 76.08,-210.36"/>
<polygon fill="green" stroke="green" stroke-width="0.11" points="79.33,-211.73 78.61,-201.16 72.58,-209.87 79.33,-211.73"/>
</g>
<!-- abs y -->
<g id="node2" class="node">
<title>abs y</title>
<polygon fill="lightgray" stroke="black" points="166.33,-279.51 130.33,-279.51 130.33,-257.51 166.33,-257.51 166.33,-279.51"/>
<text text-anchor="middle" x="148.33" y="-266.31" font-family="Times New Roman,serif" font-size="9.00">abs y</text>
</g>
<!-- near wall? -->
<g id="node3" class="node">
<title>near wall?</title>
<polygon fill="lightgray" stroke="black" points="250.83,-279.51 197.83,-279.51 197.83,-257.51 250.83,-257.51 250.83,-279.51"/>
<text text-anchor="middle" x="224.33" y="-266.31" font-family="Times New Roman,serif" font-size="9.00">near wall?</text>
</g>
<!-- 23 -->
<g id="node12" class="node">
<title>23</title>
<ellipse fill="white" stroke="black" cx="224.33" cy="-183.02" rx="18.27" ry="18.27"/>
<text text-anchor="middle" x="224.33" y="-180.82" font-family="Times New Roman,serif" font-size="9.00">23</text>
</g>
<!-- near wall?&#45;&gt;23 -->
<g id="edge3" class="edge">
<title>near wall?&#45;&gt;23</title>
<path fill="none" stroke="green" stroke-width="0.4" d="M224.33,-257.27C224.33,-246.02 224.33,-227.47 224.33,-211.85"/>
<polygon fill="green" stroke="green" stroke-width="0.4" points="227.83,-212.24 224.33,-202.24 220.83,-212.24 227.83,-212.24"/>
</g>
<!-- abs x -->
<g id="node4" class="node">
<title>abs x</title>
<polygon fill="lightgray" stroke="black" points="303.83,-279.51 268.83,-279.51 268.83,-257.51 303.83,-257.51 303.83,-279.51"/>
<text text-anchor="middle" x="286.33" y="-266.31" font-family="Times New Roman,serif" font-size="9.00">abs x</text>
</g>
<!-- life pos x -->
<g id="node5" class="node">
<title>life pos x</title>
<polygon fill="lightgray" stroke="black" points="372.33,-279.51 322.33,-279.51 322.33,-257.51 372.33,-257.51 372.33,-279.51"/>
<text text-anchor="middle" x="347.33" y="-266.31" font-family="Times New Roman,serif" font-size="9.00">life pos x</text>
</g>
<!-- up -->
<g id="node7" class="node">
<title>up</title>
<ellipse fill="lightblue" stroke="black" cx="408.33" cy="-268.51" rx="18.27" ry="18.27"/>
<text text-anchor="middle" x="408.33" y="-266.31" font-family="Times New Roman,serif" font-size="9.00">up</text>
</g>
<!-- down -->
<g id="node8" class="node">
<title>down</title>
<ellipse fill="lightblue" stroke="black" cx="471.33" cy="-268.51" rx="26.33" ry="26.33"/>
<text text-anchor="middle" x="471.33" y="-266.31" font-family="Times New Roman,serif" font-size="9.00">down</text>
</g>
<!-- left -->
<g id="node9" class="node">
<title>left</title>
<ellipse fill="lightblue" stroke="black" cx="224.33" cy="-103.18" rx="20.51" ry="20.51"/>
<text text-anchor="middle" x="224.33" y="-100.98" font-family="Times New Roman,serif" font-size="9.00">left</text>
</g>
<!-- right -->
<g id="node10" class="node">
<title>right</title>
<ellipse fill="lightblue" stroke="black" cx="106.33" cy="-23.33" rx="23.17" ry="23.17"/>
<text text-anchor="middle" x="106.33" y="-21.13" font-family="Times New Roman,serif" font-size="9.00">right</text>
</g>
<!-- 21&#45;&gt;right -->
<g id="edge2" class="edge">
<title>21&#45;&gt;right</title>
<path fill="none" stroke="red" stroke-width="0.4" stroke-dasharray="1,5" d="M80.03,-164.91C76.77,-144.92 73.1,-110.99 79.33,-82.67 81.54,-72.66 85.63,-62.33 89.98,-53.2"/>
<polygon fill="red" stroke="red" stroke-width="0.4" points="93.06,-54.87 94.44,-44.37 86.81,-51.71 93.06,-54.87"/>
</g>
<!-- 26 -->
<g id="node13" class="node">
<title>26</title>
<ellipse fill="white" stroke="black" cx="106.33" cy="-103.18" rx="18.27" ry="18.27"/>
<text text-anchor="middle" x="106.33" y="-100.98" font-family="Times New Roman,serif" font-size="9.00">26</text>
</g>
<!-- 21&#45;&gt;26 -->
<g id="edge5" class="edge">
<title>21&#45;&gt;26</title>
<path fill="none" stroke="red" stroke-width="0.2" d="M88.33,-165.13C91.28,-155.13 95.09,-142.24 98.44,-130.89"/>
<polygon fill="red" stroke="red" stroke-width="0.2" points="101.79,-131.91 101.27,-121.33 95.08,-129.93 101.79,-131.91"/>
</g>
<!-- 23&#45;&gt;left -->
<g id="edge8" class="edge">
<title>23&#45;&gt;left</title>
<path fill="none" stroke="red" stroke-width="0.23" d="M224.33,-164.35C224.33,-155.43 224.33,-144.36 224.33,-134.15"/>
<polygon fill="red" stroke="red" stroke-width="0.23" points="227.83,-134.31 224.33,-124.31 220.83,-134.31 227.83,-134.31"/>
</g>
<!-- 26&#45;&gt;right -->
<g id="edge6" class="edge">
<title>26&#45;&gt;right</title>
<path fill="none" stroke="red" stroke-width="0.38" d="M106.33,-84.51C106.33,-76.52 106.33,-66.79 106.33,-57.52"/>
<polygon fill="red" stroke="red" stroke-width="0.38" points="109.83,-57.53 106.33,-47.53 102.83,-57.53 109.83,-57.53"/>
</g>
<!-- 31 -->
<g id="node14" class="node">
<title>31</title>
<ellipse fill="white" stroke="black" cx="161.33" cy="-103.18" rx="18.27" ry="18.27"/>
<text text-anchor="middle" x="161.33" y="-100.98" font-family="Times New Roman,serif" font-size="9.00">31</text>
</g>
<!-- 31&#45;&gt;right -->
<g id="edge7" class="edge">
<title>31&#45;&gt;right</title>
<path fill="none" stroke="green" stroke-width="0.53" d="M150.99,-87.53C143.78,-77.33 133.95,-63.41 125.34,-51.24"/>
<polygon fill="green" stroke="green" stroke-width="0.53" points="128.44,-49.55 119.81,-43.41 122.72,-53.59 128.44,-49.55"/>
</g>
</g>
</svg>
