<?xml version="1.0" encoding="UTF-8" standalone="no"?>
<!DOCTYPE svg PUBLIC "-//W3C//DTD SVG 1.1//EN"
 "http://www.w3.org/Graphics/SVG/1.1/DTD/svg11.dtd">
<!-- Generated by graphviz version 7.1.0 (20230121.1956)
 -->
<!-- Pages: 1 -->
<svg width="433pt" height="352pt"
 viewBox="0.00 0.00 432.50 352.19" xmlns="http://www.w3.org/2000/svg" xmlns:xlink="http://www.w3.org/1999/xlink">
<g id="graph0" class="graph" transform="scale(1 1) rotate(0) translate(4 348.19)">
<polygon fill="white" stroke="none" points="-4,4 -4,-348.19 428.5,-348.19 428.5,4 -4,4"/>
<!-- life pos y -->
<g id="node1" class="node">
<title>life pos y</title>
<polygon fill="lightgray" stroke="black" points="114.5,-344.19 63.5,-344.19 63.5,-322.19 114.5,-322.19 114.5,-344.19"/>
<text text-anchor="middle" x="89" y="-330.99" font-family="Times New Roman,serif" font-size="9.00">life pos y</text>
</g>
<!-- near wall down -->
<g id="node2" class="node">
<title>near wall down</title>
<polygon fill="lightgray" stroke="black" points="203.5,-344.19 132.5,-344.19 132.5,-322.19 203.5,-322.19 203.5,-344.19"/>
<text text-anchor="middle" x="168" y="-330.99" font-family="Times New Roman,serif" font-size="9.00">near wall down</text>
</g>
<!-- down -->
<g id="node11" class="node">
<title>down</title>
<ellipse fill="lightblue" stroke="black" cx="174" cy="-260.03" rx="26.33" ry="26.33"/>
<text text-anchor="middle" x="174" y="-257.83" font-family="Times New Roman,serif" font-size="9.00">down</text>
</g>
<!-- near wall down&#45;&gt;down -->
<g id="edge3" class="edge">
<title>near wall down&#45;&gt;down</title>
<path fill="none" stroke="red" stroke-width="0.85" d="M168.86,-321.99C169.41,-315.51 170.15,-306.68 170.9,-297.75"/>
<polygon fill="red" stroke="red" stroke-width="0.85" points="174.39,-298.1 171.74,-287.84 167.41,-297.51 174.39,-298.1"/>
</g>
<!-- food dist y -->
<g id="node3" class="node">
<title>food dist y</title>
<polygon fill="lightgray" stroke="black" points="56,-190.48 0,-190.48 0,-168.48 56,-168.48 56,-190.48"/>
<text text-anchor="middle" x="28" y="-177.28" font-family="Times New Roman,serif" font-size="9.00">food dist y</text>
</g>
<!-- up -->
<g id="node10" class="node">
<title>up</title>
<ellipse fill="lightblue" stroke="black" cx="106" cy="-103.88" rx="18.27" ry="18.27"/>
<text text-anchor="middle" x="106" y="-101.68" font-family="Times New Roman,serif" font-size="9.00">up</text>
</g>
<!-- food dist y&#45;&gt;up -->
<g id="edge1" class="edge">
<title>food dist y&#45;&gt;up</title>
<path fill="none" stroke="green" stroke-width="0.5" d="M38.85,-168.25C50.78,-156.98 70.26,-138.61 85.17,-124.54"/>
<polygon fill="green" stroke="green" stroke-width="0.5" points="87.48,-127.17 92.35,-117.76 82.68,-122.08 87.48,-127.17"/>
</g>
<!-- near wall up -->
<g id="node4" class="node">
<title>near wall up</title>
<polygon fill="lightgray" stroke="black" points="351.5,-344.19 290.5,-344.19 290.5,-322.19 351.5,-322.19 351.5,-344.19"/>
<text text-anchor="middle" x="321" y="-330.99" font-family="Times New Roman,serif" font-size="9.00">near wall up</text>
</g>
<!-- left -->
<g id="node12" class="node">
<title>left</title>
<ellipse fill="lightblue" stroke="black" cx="321" cy="-260.03" rx="20.51" ry="20.51"/>
<text text-anchor="middle" x="321" y="-257.83" font-family="Times New Roman,serif" font-size="9.00">left</text>
</g>
<!-- near wall up&#45;&gt;left -->
<g id="edge2" class="edge">
<title>near wall up&#45;&gt;left</title>
<path fill="none" stroke="green" stroke-width="0.76" d="M321,-321.99C321,-314.07 321,-302.63 321,-291.79"/>
<polygon fill="green" stroke="green" stroke-width="0.76" points="324.5,-292.05 321,-282.05 317.5,-292.05 324.5,-292.05"/>
</g>
<!-- food dist x -->
<g id="node5" class="node">
<title>food dist x</title>
<polygon fill="lightgray" stroke="black" points="424.5,-344.19 369.5,-344.19 369.5,-322.19 424.5,-322.19 424.5,-344.19"/>
<text text-anchor="middle" x="397" y="-330.99" font-family="Times New Roman,serif" font-size="9.00">food dist x</text>
</g>
<!-- near wall right -->
<g id="node6" class="node">
<title>near wall right</title>
<polygon fill="lightgray" stroke="black" points="319,-114.88 251,-114.88 251,-92.88 319,-92.88 319,-114.88"/>
<text text-anchor="middle" x="285" y="-101.68" font-family="Times New Roman,serif" font-size="9.00">near wall right</text>
</g>
<!-- right -->
<g id="node13" class="node">
<title>right</title>
<ellipse fill="lightblue" stroke="black" cx="212" cy="-23.33" rx="23.17" ry="23.17"/>
<text text-anchor="middle" x="212" y="-21.13" font-family="Times New Roman,serif" font-size="9.00">right</text>
</g>
<!-- near wall right&#45;&gt;right -->
<g id="edge5" class="edge">
<title>near wall right&#45;&gt;right</title>
<path fill="none" stroke="red" stroke-width="0.21" stroke-dasharray="1,5" d="M275.46,-92.61C265.06,-81.42 248.06,-63.14 234.27,-48.3"/>
<polygon fill="red" stroke="red" stroke-width="0.21" points="237,-46.09 227.63,-41.15 231.87,-50.86 237,-46.09"/>
</g>
<!-- life pos x -->
<g id="node7" class="node">
<title>life pos x</title>
<polygon fill="lightgray" stroke="black" points="272,-344.19 222,-344.19 222,-322.19 272,-322.19 272,-344.19"/>
<text text-anchor="middle" x="247" y="-330.99" font-family="Times New Roman,serif" font-size="9.00">life pos x</text>
</g>
<!-- stop -->
<g id="node9" class="node">
<title>stop</title>
<ellipse fill="lightblue" stroke="black" cx="247" cy="-260.03" rx="23.17" ry="23.17"/>
<text text-anchor="middle" x="247" y="-257.83" font-family="Times New Roman,serif" font-size="9.00">stop</text>
</g>
<!-- life pos x&#45;&gt;stop -->
<g id="edge12" class="edge">
<title>life pos x&#45;&gt;stop</title>
<path fill="none" stroke="green" stroke-width="0.32" d="M247,-321.99C247,-314.58 247,-304.09 247,-293.9"/>
<polygon fill="green" stroke="green" stroke-width="0.32" points="250.5,-294.02 247,-284.02 243.5,-294.02 250.5,-294.02"/>
</g>
<!-- life pos x&#45;&gt;down -->
<g id="edge6" class="edge">
<title>life pos x&#45;&gt;down</title>
<path fill="none" stroke="red" stroke-width="0.36" d="M236.54,-321.99C227.07,-312.77 212.73,-298.78 200.16,-286.53"/>
<polygon fill="red" stroke="red" stroke-width="0.36" points="202.62,-284.04 193.02,-279.57 197.74,-289.05 202.62,-284.04"/>
</g>
<!-- near wall left -->
<g id="node8" class="node">
<title>near wall left</title>
<polygon fill="lightgray" stroke="black" points="137.5,-190.48 74.5,-190.48 74.5,-168.48 137.5,-168.48 137.5,-190.48"/>
<text text-anchor="middle" x="106" y="-177.28" font-family="Times New Roman,serif" font-size="9.00">near wall left</text>
</g>
<!-- near wall left&#45;&gt;up -->
<g id="edge4" class="edge">
<title>near wall left&#45;&gt;up</title>
<path fill="none" stroke="red" stroke-width="0.78" d="M106,-168.25C106,-159.27 106,-145.77 106,-133.54"/>
<polygon fill="red" stroke="red" stroke-width="0.78" points="109.5,-133.56 106,-123.56 102.5,-133.56 109.5,-133.56"/>
</g>
<!-- 72 -->
<g id="node14" class="node">
<title>72</title>
<ellipse fill="white" stroke="black" cx="174" cy="-179.48" rx="18.27" ry="18.27"/>
<text text-anchor="middle" x="174" y="-177.28" font-family="Times New Roman,serif" font-size="9.00">72</text>
</g>
<!-- down&#45;&gt;72 -->
<g id="edge11" class="edge">
<title>down&#45;&gt;72</title>
<path fill="none" stroke="red" stroke-width="0.43" d="M174,-233.31C174,-225.31 174,-216.46 174,-208.32"/>
<polygon fill="red" stroke="red" stroke-width="0.43" points="177.5,-208.47 174,-198.47 170.5,-208.47 177.5,-208.47"/>
</g>
<!-- 72&#45;&gt;up -->
<g id="edge8" class="edge">
<title>72&#45;&gt;up</title>
<path fill="none" stroke="red" stroke-width="0.23" d="M161.84,-165.32C151.59,-154.23 136.75,-138.16 124.94,-125.38"/>
<polygon fill="red" stroke="red" stroke-width="0.23" points="127.65,-123.15 118.29,-118.18 122.51,-127.9 127.65,-123.15"/>
</g>
<!-- 72&#45;&gt;right -->
<g id="edge7" class="edge">
<title>72&#45;&gt;right</title>
<path fill="none" stroke="green" stroke-width="0.15" d="M173.44,-160.8C173.28,-141.29 174.41,-109.14 182,-82.67 184.97,-72.32 189.83,-61.67 194.79,-52.34"/>
<polygon fill="green" stroke="green" stroke-width="0.15" points="197.79,-54.15 199.6,-43.71 191.67,-50.74 197.79,-54.15"/>
</g>
<!-- 138 -->
<g id="node15" class="node">
<title>138</title>
<ellipse fill="white" stroke="black" cx="212" cy="-103.88" rx="21.43" ry="21.43"/>
<text text-anchor="middle" x="212" y="-101.68" font-family="Times New Roman,serif" font-size="9.00">138</text>
</g>
<!-- 72&#45;&gt;138 -->
<g id="edge9" class="edge">
<title>72&#45;&gt;138</title>
<path fill="none" stroke="red" stroke-width="0.11" d="M182.06,-162.87C186.68,-153.93 192.6,-142.46 197.96,-132.08"/>
<polygon fill="red" stroke="red" stroke-width="0.11" points="200.92,-133.97 202.4,-123.48 194.7,-130.76 200.92,-133.97"/>
</g>
<!-- 138&#45;&gt;right -->
<g id="edge10" class="edge">
<title>138&#45;&gt;right</title>
<path fill="none" stroke="green" stroke-width="0.33" d="M212,-82.24C212,-74.57 212,-65.67 212,-57.18"/>
<polygon fill="green" stroke="green" stroke-width="0.33" points="215.5,-57.26 212,-47.26 208.5,-57.26 215.5,-57.26"/>
</g>
</g>
</svg>
